<?xml version="1.0" encoding="utf-8"?>
<!-- Generator: Adobe Illustrator 16.0.3, SVG Export Plug-In . SVG Version: 6.00 Build 0)  -->
<!DOCTYPE svg PUBLIC "-//W3C//DTD SVG 1.1//EN" "http://www.w3.org/Graphics/SVG/1.1/DTD/svg11.dtd">
<svg version="1.1" id="Capa_1" xmlns="http://www.w3.org/2000/svg" xmlns:xlink="http://www.w3.org/1999/xlink" x="0px" y="0px"
	 width="100px" height="100px" viewBox="0 -5.155 100 100" enable-background="new 0 -5.155 100 100" xml:space="preserve">
<path fill="#FFFFFF" d="M49.921-5.154c7.23,0,14.456,0.005,21.688-0.001c6.372-0.005,12.106,1.93,17.14,5.821
	c6.134,4.745,9.771,11,10.899,18.703c0.19,1.302,0.242,2.608,0.242,3.922c-0.005,14.535,0.134,29.072-0.052,43.605
	c-0.138,10.841-5.251,18.976-14.532,24.436c-4.24,2.494-8.897,3.584-13.828,3.575c-14.374-0.025-28.749-0.056-43.124,0.003
	C14.742,94.968,2.717,84.898,0.439,71.238c-0.31-1.858-0.41-3.727-0.413-5.597c-0.02-13.889-0.002-27.778-0.015-41.668
	c-0.005-6.904,1.941-13.145,6.31-18.527c4.711-5.804,10.782-9.269,18.189-10.357c1.383-0.203,2.769-0.242,4.159-0.242
	C35.754-5.154,42.837-5.154,49.921-5.154z M90.131,44.878c-0.003,0-0.007,0-0.012,0c0-7.435,0.054-14.869-0.018-22.301
	c-0.048-4.725-1.856-8.804-5.093-12.207c-3.791-3.986-8.521-5.804-13.976-5.805C57.012,4.562,42.993,4.56,28.972,4.573
	c-1.056,0.001-2.118,0.034-3.165,0.211C18.61,6,13.652,10.013,10.955,16.804c-0.959,2.416-1.139,4.952-1.133,7.539
	c0.038,13.68,0.019,27.36,0.016,41.04c0,0.747-0.03,1.494,0.014,2.243c0.263,4.461,1.915,8.343,4.949,11.582
	c3.684,3.93,8.254,5.916,13.658,5.913c7.042-0.005,14.083,0.001,21.122,0c7.499-0.001,14.998,0.033,22.496-0.023
	c4.833-0.037,8.997-1.865,12.438-5.229c3.746-3.665,5.622-8.166,5.616-13.438C90.125,59.245,90.131,52.063,90.131,44.878z"/>
<path fill="#FFFFFF" d="M23.911,44.844c0.012-14.401,11.759-26.133,26.146-26.109c14.354,0.023,26.021,11.805,26.002,26.259
	c-0.02,14.354-11.813,26.048-26.241,26.019C35.591,70.986,23.898,59.175,23.911,44.844z M50.003,28.528
	c-9.02-0.005-16.308,7.269-16.323,16.291c-0.016,9.042,7.251,16.39,16.219,16.401c9.039,0.009,16.378-7.261,16.391-16.233
	C66.298,35.849,59.063,28.534,50.003,28.528z"/>
<path fill="#FFFFFF" d="M82.553,18.495c-0.005,3.322-2.725,6.042-6.039,6.037c-3.351-0.003-6.017-2.717-6.005-6.113
	c0.012-3.32,2.769-6.065,6.05-6.024C79.887,12.435,82.555,15.154,82.553,18.495z"/>
</svg>
