<?xml version="1.0" encoding="utf-8"?>
<!-- Generator: Adobe Illustrator 16.0.3, SVG Export Plug-In . SVG Version: 6.00 Build 0)  -->
<!DOCTYPE svg PUBLIC "-//W3C//DTD SVG 1.1//EN" "http://www.w3.org/Graphics/SVG/1.1/DTD/svg11.dtd">
<svg version="1.1" id="Capa_1" xmlns="http://www.w3.org/2000/svg" xmlns:xlink="http://www.w3.org/1999/xlink" x="0px" y="0px"
	 width="24px" height="24px" viewBox="0 0 24 24" enable-background="new 0 0 24 24" xml:space="preserve">
<path fill="none" d="M0,0h24v24H0V0z"/>
<path fill="#272727" d="M7,11h2v2H7V11z M21,6v14c0,1.1-0.9,2-2,2H5c-1.11,0-2-0.9-2-2L3.01,6c0-1.1,0.88-2,1.99-2h1V2h2v2h8V2h2v2
	h1C20.1,4,21,4.9,21,6z M5,8h14V6H5V8z M19,20V10H5v10H19z M15,13h2v-2h-2V13z M11,13h2v-2h-2V13z"/>
</svg>
