<svg id="Capa_1" data-name="Capa 1" xmlns="http://www.w3.org/2000/svg" viewBox="0 0 191 262.52"><defs><style>.cls-1{fill:#005873;}.cls-2{fill:#ef9494;}.cls-3{fill:none;stroke:#272727;stroke-miterlimit:10;stroke-width:5px;}.cls-4{fill:red;}.cls-5{fill:#272727;}.cls-6{fill:#00a200;}.cls-7{fill:#e42c2c;}.cls-8{fill:#e42828;}.cls-9{fill:#e43030;}.cls-10{fill:#fefcfc;}</style></defs><title>check-data</title><path class="cls-1" d="M37.95252,53.99621c-1.30495,1.62045-3.09421.70293-4.63459.78061-9.77017.49271-17.05,7.3351-17.35908,17.10892-.38427,12.15187-.4139,24.31787-.429,36.478q-.07277,58.73755-.01419,117.47527c.00476,11.1797,4.8797,18.7567,13.59071,21.52725,2.62174.83385,5.26973.68521,7.91946.68654q58.73764.02913,117.47529.01311c14.26567-.00025,21.47253-7.27352,21.47325-21.709q.00361-73.23459-.01953-146.46917a48.21971,48.21971,0,0,0-.64314-9.94975c-1.93585-9.26772-8.30661-14.96553-17.79842-14.95251-3.853.00529-4.92644-1.12106-4.58952-4.78642.31825-3.46264.06833-6.97752.06833-10.85458,3.57791,1.894,6.63266-.86826,10.21392-.03025,14.414,3.37285,24.16452,13.26826,26.92815,28.06955A6.19368,6.19368,0,0,0,191,69.00959v168c-.33441.3208-.861.5846-.97559.97063-5.07139,17.09216-17.02127,26.03328-34.85955,26.03389q-60.404.00205-120.80788-.00073a33.64744,33.64744,0,0,1-33.31843-27.9786C.85311,234.989,1.49732,233.61765,0,233.00959v-35c1.58415-1.28943.93623-3.08269.93788-4.65448Q.9938,140.00608.93663,86.657c-.00172-1.56742.665-3.36436-.93663-4.64738v-12c1.82761-1.36032,1.33588-3.57422,1.76638-5.357A33.11209,33.11209,0,0,1,37.00665,39.03466l1.16378,1.02569a65.68549,65.68549,0,0,1-.03688,12.90883C37.5148,53.21316,37.21251,53.51286,37.95252,53.99621Z" transform="translate(0 -1.49565)"/><path class="cls-2" d="M0,82.00959c1.60164,1.283.93491,3.08.93663,4.64738Q.995,140.006.93788,193.35511c-.00165,1.57179.64627,3.365-.93788,4.65448Z" transform="translate(0 -1.49565)"/><path class="cls-3" d="M60.04575,65.81139c-6.41117-2.07442-8.98822-5.404-9.12486-11.90146-.05945-2.82694.04952-5.65773-.0239-8.484-.30534-11.75407,3.69428-13.719,13.55429-14.8378,3.99962-.45383,5.48522-1.13164,6.1826-5.33413C72.80437,12.17436,83.60925,3.6695,96.70551,4.00524c12.40875.31811,22.73693,9.89788,24.20507,22.90323.33147,2.93633,1.34415,3.64139,3.972,3.50984,3.49457-.17493,7.02666-.13569,10.16135,1.781,8.16617,4.99326,7.91679,27.62627-.38046,32.3987a19.28594,19.28594,0,0,1-3.70722,1.24036c-.3602-.5093-.66809-.43729-.93551.0842q-34.52339.70019-69.04647-.01386C60.71593,65.38809,60.4094,65.32737,60.04575,65.81139ZM95.09589,30.13118c3.47831,0,6.98179-.26235,10.42833.0685,4.02245.38613,3.96-1.79052,3.36026-4.52679C107.602,19.822,101.201,15.44715,94.543,15.82541c-6.03815.34306-11.64931,5.35133-12.49895,10.94268-.40135,2.64122.44543,3.56149,3.11639,3.40793C88.46225,29.9862,91.78323,30.13061,95.09589,30.13118Z" transform="translate(0 -1.49565)"/><path class="cls-4" d="M128.59511,104.58276c-.7291-.82376-1.35179-1.5908-2.04029-2.29334-2.09221-2.13484-4.27223-4.18711-6.2998-6.38083a4.68057,4.68057,0,0,1-.145-6.729c1.8045-2.19331,4.09647-2.946,6.57839-1.20821a34.8332,34.8332,0,0,1,6.555,5.30745c2.73289,3.15763,4.6622,2.42584,6.9321-.37535a40.23182,40.23182,0,0,1,4.63382-4.51828c2.58931-2.30619,5.46913-2.77315,7.92573-.08613,2.29653,2.51191,1.61426,5.18616-.72558,7.483-.47412.4654-.92939.95009-1.407,1.41173-6.40094,6.18684-6.399,6.18378-.00809,12.817.92114.956,1.85954,1.90381,2.69452,2.93284,2.0312,2.50326,1.02786,5.17845-.54088,7.09717-1.79336,2.19345-4.54475,1.922-6.7194.1498-2.57149-2.09557-5.00339-4.37664-7.36745-6.70748-1.49809-1.477-2.568-1.5696-4.0174.11323a69.84744,69.84744,0,0,1-6.27284,6.4011c-2.29227,2.05584-4.88286,2.98676-7.51895.45644-2.78127-2.66963-2.04794-5.37161.19448-7.88959,1.76447-1.9813,3.71517-3.79591,5.55961-5.70728C127.28793,106.1504,127.90259,105.37893,128.59511,104.58276Z" transform="translate(0 -1.49565)"/><path class="cls-5" d="M69.505,157.974c-8.81475.001-17.6302-.06462-26.44391.03108-3.89912.04234-6.82176-1.33168-6.791-5.45694.02983-4.00163,2.79971-5.62057,6.75128-5.60754q26.44395.08719,52.88838.01756c3.811-.00391,6.818,1.38011,6.87012,5.498.05336,4.21779-3.10948,5.49529-6.83066,5.50751C87.13457,157.99261,78.31976,157.973,69.505,157.974Z" transform="translate(0 -1.49565)"/><path class="cls-5" d="M40.97261,99.12868l57.05726,0c.22694.49655.52424.57505.90589.15249,3.169,1.13313,4.40891,3.47319,3.62186,6.61813-.74906,2.99313-3.07172,4.09485-6.05056,4.09177-17.938-.0185-35.876.00958-53.8139-.039-2.81611-.00762-5.31657-.88382-6.13162-4.01211-.84089-3.22748.36812-5.47439,3.5115-6.64887C40.45842,99.7106,40.75088,99.61553,40.97261,99.12868Z" transform="translate(0 -1.49565)"/><path class="cls-5" d="M39.99681,199.025c10.73211-1.09905,21.494-.393,32.2385-.41452,8.92276-.01781,17.87087-.70709,26.77809.44685l1.56828.85753c2.39328,1.48778,2.62838,3.626,1.75568,6.041-.94755,2.62219-3.139,3.26793-5.60317,3.27162q-27.4717.04113-54.94349.037c-2.62671.00139-4.52708-1.124-5.26635-3.70166-.77141-2.68967-.07564-4.90793,2.53479-6.295C39.5122,199.72946,39.79259,199.52427,39.99681,199.025Z" transform="translate(0 -1.49565)"/><path class="cls-6" d="M158.39555,138.53143a33.50472,33.50472,0,0,1-2.76335,4.098c-7.37535,8.14134-14.73045,16.30484-22.283,24.28038-4.17781,4.41177-7.69883,4.01076-10.85859-1.05069-2.46-3.9406-4.60205-8.08061-6.85856-12.14691-.9374-1.68923-1.52252-3.43413.3508-4.90039,1.73824-1.36054,3.09755.02574,4.512.78122a11.3946,11.3946,0,0,1,1.22324.86041c7.18951,5.16679,7.22946,5.21649,14.32452-.49959a155.56847,155.56847,0,0,1,17.82183-12.791c1.02145-.60846,2.24083-1.571,3.6051-.32315C157.9756,137.30248,158.56165,137.58422,158.39555,138.53143Z" transform="translate(0 -1.49565)"/><path class="cls-6" d="M158.39894,189.264a33.50549,33.50549,0,0,1-2.76335,4.098c-7.37535,8.14134-14.73045,16.30484-22.283,24.28038-4.17781,4.41177-7.69884,4.01075-10.85859-1.05069-2.46-3.9406-4.60205-8.08061-6.85856-12.14691-.9374-1.68923-1.52253-3.43413.3508-4.90039,1.73824-1.36054,3.09755.02574,4.512.78121a11.39612,11.39612,0,0,1,1.22324.86042c7.18951,5.16679,7.22946,5.21649,14.32452-.49959a155.56847,155.56847,0,0,1,17.82183-12.791c1.02145-.60846,2.24082-1.57095,3.6051-.32315C157.979,188.03509,158.565,188.31683,158.39894,189.264Z" transform="translate(0 -1.49565)"/><path class="cls-7" d="M38.17043,40.06035l-1.16378-1.02569C37.73559,38.98963,38.2522,39.18551,38.17043,40.06035Z" transform="translate(0 -1.49565)"/><path class="cls-7" d="M37.95252,53.99621c-.74-.48335-.43772-.783.181-1.027Q38.0431,53.48265,37.95252,53.99621Z" transform="translate(0 -1.49565)"/><path class="cls-8" d="M60.04575,65.81139c.36365-.484.67018-.4233.92849.09735l-.47632.06647Z" transform="translate(0 -1.49565)"/><path class="cls-8" d="M130.02071,65.9226c.26742-.52149.57531-.5935.93551-.0842l-.45784.15223Z" transform="translate(0 -1.49565)"/><path class="cls-8" d="M40.97261,99.12868c-.22173.48685-.51419.58192-.89957.16242A.78429.78429,0,0,1,40.97261,99.12868Z" transform="translate(0 -1.49565)"/><path class="cls-8" d="M98.93576,99.28119c-.38165.42256-.679.34406-.90589-.15249A.81107.81107,0,0,1,98.93576,99.28119Z" transform="translate(0 -1.49565)"/><path class="cls-9" d="M39.99681,199.025c-.20422.49925-.48461.70444-.93767.24284Z" transform="translate(0 -1.49565)"/><path class="cls-9" d="M100.58168,199.91488l-1.56828-.85753Z" transform="translate(0 -1.49565)"/><path class="cls-10" d="M95.09589,30.13089c-3.31266-.00028-6.63364-.14469-9.9354.04513-2.671.15356-3.51774-.76671-3.11639-3.40793.84964-5.59135,6.4608-10.59962,12.49895-10.94268,6.65791-.37826,13.059,3.9966,14.34143,9.84748.59977,2.73627.66219,4.91292-3.36026,4.52679C102.07768,29.86883,98.5742,30.13118,95.09589,30.13089Z" transform="translate(0 -1.49565)"/></svg>