<?xml version="1.0" encoding="utf-8"?>
<!-- Generator: Adobe Illustrator 23.0.6, SVG Export Plug-In . SVG Version: 6.00 Build 0)  -->
<svg version="1.1" id="Capa_1" xmlns="http://www.w3.org/2000/svg" xmlns:xlink="http://www.w3.org/1999/xlink" x="0px" y="0px"
	 viewBox="0 0 1000 1000" style="enable-background:new 0 0 1000 1000;" xml:space="preserve">
<style type="text/css">
	.st0{fill:#005873;}
	.st1{fill:#00A200;}
	.st2{fill:#272727;}
	.st3{fill:#47597E;}
</style>
<g>
	<g transform="translate(0.000000,512.000000) scale(0.100000,-0.100000)">
		<path class="st0" d="M946.8,4998.5c-42.1-13.4-103.4-38.3-136-55.6c-82.4-42.2-214.6-191.6-262.5-296.9l-42.2-90V532.8v-4023.1
			l51.7-109.2c67.1-143.7,199.2-270.1,333.3-319.9c103.5-40.2,134.1-40.2,1835.3-40.2c1705,0,1731.8,0,1779.7,38.3
			c72.8,57.5,99.6,153.3,63.2,235.6c-55.6,136,42.1,128.4-1821.9,128.4c-1821.9,0-1756.8-3.8-1806.6,105.4
			c-17.2,38.3-23,977-23,3994.3v3946.5l55.6,61.3l55.6,63.2l693.6,11.5v-226.1v-226.1l-86.2-46c-107.3-57.5-210.7-170.5-264.4-287.4
			c-59.4-128.4-57.5-358.3,3.8-496.2c93.9-206.9,325.7-356.3,557.5-356.3s463.6,149.4,557.5,356.3c61.3,137.9,63.2,367.8,3.8,496.2
			c-53.6,116.9-157.1,229.9-264.4,287.4l-86.2,46v226.1V4623l1216.5-9.5l5.7-210.7l5.7-212.6l-116.9-74.7
			c-201.2-130.3-295-295-295-519.2c-1.9-337.2,272-611.1,613-609.2c333.3,1.9,582.4,245.2,597.7,586.2
			c7.7,126.4,1.9,160.9-42.1,258.6c-61.3,130.3-176.3,256.7-281.6,302.7l-74.7,34.5v228V4623h613h613v-228v-228l-61.3-24.9
			c-101.5-42.1-228-170.5-285.4-295c-189.7-396.6,103.5-856.3,546-860.2c243.3-1.9,442.5,124.5,551.7,348.7
			c53.6,107.3,61.3,145.6,61.3,260.5c-1.9,226.1-95.8,390.8-295,519.2l-116.9,74.7l5.7,212.6l5.7,210.7l609.2,5.7l607.3,3.8v-224.2
			v-226.1l-86.2-46c-107.3-57.5-210.7-170.5-264.4-287.4c-59.4-126.4-57.5-358.3,1.9-490.4c178.2-388.9,664.8-484.7,979-191.6
			c132.2,122.6,182,245.2,183.9,440.6c0,116.9-9.6,174.3-42.2,241.4c-53.6,116.9-157.1,229.9-264.4,287.4l-86.2,46v224.2V4623h307
			c331.4,0,410-17.2,467.5-97.7c28.7-40.2,30.6-233.7,30.6-2130.3c0-2281.7-5.7-2184,113-2243.4c72.8-38.3,122.6-38.3,195.4,0
			c118.8,59.4,113-36.4,113,2218.5c0,1423.4-5.8,2090.1-21.1,2161c-40.2,189.7-174.3,358.2-352.5,440.6l-95.8,44.1l-3390.9,3.8
			C1717,5021.5,1008.1,5017.6,946.8,4998.5z M2031.2,3768.6c178.2-92,105.4-371.7-95.8-371.7c-199.2,0-279.7,262.5-109.2,365.9
			C1899,3806.9,1954.5,3808.8,2031.2,3768.6z M3707.4,3734.1c74.7-74.7,86.2-153.3,32.6-241.4c-99.6-168.6-371.7-103.4-369.7,90
			c1.9,134.1,80.5,214.6,208.8,216.5C3627,3799.2,3659.5,3782,3707.4,3734.1z M5305.2,3766.6c164.7-97.7,103.5-369.7-84.3-369.7
			c-90,0-151.3,30.7-189.6,95.8c-53.6,88.1-42.1,166.7,32.6,241.4C5138.5,3808.8,5217.1,3820.3,5305.2,3766.6z M6935.5,3768.6
			c178.2-92,105.4-371.7-95.8-371.7c-199.2,0-279.7,262.5-109.2,365.9C6803.3,3806.9,6858.8,3808.8,6935.5,3768.6z"/>
		<path class="st1" d="M6991.1-302.4c-507.7-59.4-934.9-266.3-1312.3-639.9c-281.6-277.8-444.5-530.7-555.6-860.2
			C4763-2873.4,5234.3-4032.4,6230.5-4536.2c1067.1-540.2,2356.4-155.2,2965.6,885.1c224.2,385.1,333.3,883.2,287.4,1318
			c-55.5,538.3-270.1,996.2-643.7,1373.6c-369.7,371.7-837.2,599.6-1360.2,659C7284.2-279.4,7196-279.4,6991.1-302.4z M7745.9-767.9
			c319.9-95.8,569-243.3,797-471.3c226.1-226.1,373.6-473.2,471.3-797c47.9-155.2,53.7-199.2,53.7-486.6
			c1.9-272.1-3.8-339.1-42.1-475.1c-136-500-459.8-911.9-910-1153.3c-285.4-153.3-536.4-216.5-875.5-216.5
			c-379.3,0-695.4,93.9-1003.9,300.8c-578.5,387-896.6,1065.2-816.1,1735.7c95.8,787.4,672.4,1425.3,1436.8,1592
			C7102.2-685.6,7514-699,7745.9-767.9z"/>
		<path class="st1" d="M8408.7-1520.8c-15.3-5.7-375.5-356.3-798.9-777.8l-772.1-770.1L6468.1-2699
			c-329.5,327.6-377.4,367.8-433,367.8c-130.3,0-210.7-80.5-212.6-210.7v-86.2l456-454c461.7-461.7,503.8-492.4,613-465.5
			c57.5,13.4,1710.8,1647.5,1758.7,1737.6c15.3,28.7,26.8,69,26.8,92C8676.9-1589.8,8525.6-1478.7,8408.7-1520.8z"/>
	</g>
</g>
<rect x="193.1" y="725.3" class="st2" width="249" height="7.7"/>
<g>
	<g>
		<g>
			<path class="st3" d="M207.7,478.6c-6,0-12.6-1.3-18.9-4.4c-8.2-4.1-18.7-12.7-22.4-30.8c-10-48.8,16.2-63,18.8-64.2
				c20.8-11.1,38.5,18.6,47.1,32.9c7.9,13.2,10.1,29.5,5.8,43.6c-2.8,9.4-8.1,16.5-14.9,19.7C219.1,477.4,213.7,478.6,207.7,478.6z
				 M194.3,386.2c-1.6,0-3.2,0.4-4.8,1.2c-0.1,0-0.2,0.1-0.3,0.1c-0.9,0.4-22.4,11.5-13.7,53.9c3,14.4,11.1,21.2,17.4,24.3
				c9.6,4.8,20.3,3.9,26.1,1.2c4.3-2.1,8-7.2,10-14c3.5-11.6,1.7-25.1-4.9-36.1C211.7,396,202.2,386.2,194.3,386.2z M187.3,383.3
				L187.3,383.3L187.3,383.3z"/>
		</g>
		<g>
			<path class="st3" d="M267.5,419.1c-1.8,0-3.6-0.1-5.4-0.3l0,0c-6.3-0.7-19.9-6.5-29.5-19.4c-9.3-12.6-12.4-29.1-8.8-47.6
				c4.3-22.3,20.9-45.4,40.3-56.3c10.1-5.7,19.5-7.2,27.2-4.3c19.7,7.3,22.1,53.2,22.4,67c0.4,21-6.1,39.3-17.8,50.1
				C288.2,415.4,278.5,419.1,267.5,419.1z M283.2,299.2c-4.2,0-9.2,1.5-14.5,4.5c-14,7.9-31.1,26.8-35.6,49.9
				c-3.1,16-0.7,29.6,7.1,40.2c8.1,11,19.6,15.3,22.9,15.7l0,0c10.5,1.1,19.4-1.6,26.4-8.1c9.8-9,15.2-24.7,14.8-43
				c-0.7-36.2-9-55.7-16.3-58.4C286.6,299.4,285,299.2,283.2,299.2z"/>
		</g>
		<g>
			<path class="st3" d="M367.7,419.1c-10.9,0-20.6-3.7-28.4-10.8c-11.8-10.8-18.3-29.1-17.8-50.1c0.3-13.9,2.7-59.7,22.4-67
				c7.7-2.9,17.1-1.4,27.2,4.3c19.4,10.8,35.9,34,40.3,56.3c3.6,18.5,0.6,34.9-8.8,47.6c-9.5,12.9-23.1,18.8-29.5,19.4
				C371.3,419,369.5,419.1,367.7,419.1z M352,299.2c-1.8,0-3.4,0.3-4.8,0.8c-7.3,2.7-15.6,22.2-16.3,58.4c-0.4,18.3,5,34,14.8,43
				c7,6.5,15.9,9.2,26.4,8.1l0,0c3.3-0.3,14.8-4.7,22.9-15.7c7.9-10.6,10.3-24.1,7.1-40.2c-4.5-23.1-21.6-42.1-35.6-49.9
				C361.2,300.7,356.2,299.2,352,299.2z"/>
		</g>
		<g>
			<path class="st3" d="M427.6,478.6c-6,0-11.4-1.3-15.4-3.2c-6.8-3.3-12.1-10.3-14.9-19.7c-4.2-14.1-2.1-30.4,5.8-43.6
				c8.5-14.3,26.3-44,47.1-32.9c2.6,1.3,28.8,15.5,18.8,64.2c-3.7,18.1-14.3,26.8-22.4,30.8C440.2,477.3,433.6,478.6,427.6,478.6z
				 M441,386.2c-8,0-17.4,9.8-29.9,30.6c-6.6,11-8.4,24.5-4.9,36.1c2,6.8,5.7,11.9,10,14c5.8,2.8,16.5,3.6,26.1-1.2
				c6.3-3.1,14.5-9.9,17.4-24.3c8.8-43-13.5-53.8-13.7-53.9c-0.1,0-0.2-0.1-0.3-0.1C444.2,386.6,442.6,386.2,441,386.2z"/>
		</g>
	</g>
	<g>
		<path class="st3" d="M266.4,580.6c-1.8,0-3.7-0.1-5.6-0.3c-18.6-1.9-41.2-11.8-49.1-33.8c-10.1-28.4,4.8-52.7,20.7-64.9
			c11-8.5,19.6-20.6,26.5-30.4c3.2-4.5,5.9-8.4,8.4-11.2c9.5-10.8,20.6-21.2,37.1-24.7c36.2-7.7,55,16,73.1,38.9
			c7.9,9.9,16,20.2,25.4,27.4c15.9,12.2,30.8,36.6,20.7,64.9c-5.2,14.5-16.5,25.3-31.8,30.5c-19.3,6.5-43,3.6-60.1-7.6
			c-3.9-2.5-7.9-5-11.9-7.3c-0.6-0.4-1.2-0.7-1.8-1.1C304,570.1,286,580.6,266.4,580.6z M317.4,423.2c-3.5,0-7.1,0.4-11,1.2
			c-13,2.8-22.2,10.7-32,21.7c-2.2,2.4-4.8,6.1-7.8,10.4c-6.9,9.7-16.4,23.1-28.5,32.4c-13.4,10.3-26,30.7-17.6,54.4
			c6.4,17.9,25.5,26,41.2,27.6c16.3,1.7,31.8-5.8,47.4-15.4c-6.5-4.2-12.2-8.2-17.5-12.9c-4.1-3.6-7.8-7.5-10.8-11.3
			c-5-6.3-7.7-11.9-8.7-17.7c-2-12.2,5.5-25.2,17.1-29.5c9.6-3.6,21-1,28.4,6c6.8-6.5,17-9.3,26.2-6.7c11.2,3.2,19.5,14,19.6,25.7
			c0,5.8-1.8,11.9-5.4,17.6c-3.4,5.4-7.8,9.7-11.3,13c-5.8,5.3-12.4,10.5-20,15.7c3.3,2,6.7,4.1,10.1,6.3c14.7,9.5,35.6,12.1,52,6.6
			c8.9-3,20.6-9.8,26-24.8c8.4-23.6-4.2-44-17.6-54.4c-10.3-7.9-18.8-18.6-27-29C355.3,441.1,341,423.2,317.4,423.2z M298.3,491.8
			c-2,0-3.9,0.3-5.8,1c-7.4,2.8-12.4,11.5-11.1,19.3c0.7,4.1,2.8,8.4,6.7,13.3c2.7,3.5,6,6.9,9.7,10.1c5.8,5.2,12.3,9.6,20,14.3
			c8.8-5.8,16.2-11.4,22.5-17.3c3-2.8,6.9-6.6,9.7-11c2.6-4.2,4-8.5,4-12.5c-0.1-7.5-5.5-14.7-12.7-16.8c-7.2-2-15.7,1.2-19.7,7.5
			c-0.9,1.4-2.4,2.2-4,2.2C317.6,502.1,304.3,491.8,298.3,491.8z"/>
	</g>
</g>
<rect x="193.1" y="756.5" class="st2" width="249" height="7.7"/>
<rect x="193.1" y="694" class="st2" width="249" height="7.7"/>
<rect x="193.2" y="662.8" class="st2" width="249" height="7.7"/>
</svg>
