<?xml version="1.0" encoding="utf-8"?>
<!-- Generator: Adobe Illustrator 16.0.3, SVG Export Plug-In . SVG Version: 6.00 Build 0)  -->
<!DOCTYPE svg PUBLIC "-//W3C//DTD SVG 1.1//EN" "http://www.w3.org/Graphics/SVG/1.1/DTD/svg11.dtd">
<svg version="1.1" id="Capa_1" xmlns="http://www.w3.org/2000/svg" xmlns:xlink="http://www.w3.org/1999/xlink" x="0px" y="0px"
	 width="100.006px" height="100.006px" viewBox="0 0 100.006 100.006" enable-background="new 0 0 100.006 100.006"
	 xml:space="preserve">
<path fill-rule="evenodd" clip-rule="evenodd" fill="#FFFFFF" d="M57.811,82.426c0-5.459-0.001-10.915,0-16.373
	c0.001-1.199,0.018-1.214,1.222-1.217c3.101-0.004,6.203-0.032,9.303,0.021c0.866,0.015,1.151-0.299,1.271-1.112
	c0.606-4.152,1.248-8.303,1.903-12.449c0.125-0.794-0.212-0.952-0.902-0.948c-3.855,0.018-7.71,0.009-11.564,0.008
	c-1.213-0.001-1.231-0.019-1.232-1.205c0-2.919-0.013-5.838,0.01-8.756c0.033-4.131,2.515-6.829,6.603-7.287
	c2.229-0.25,4.459-0.108,6.687-0.114c0.862-0.001,1.165-0.241,1.151-1.14c-0.045-3.326-0.044-6.654-0.001-9.981
	c0.012-0.898-0.215-1.248-1.173-1.367c-3.596-0.446-7.191-0.891-10.819-0.787c-3.927,0.112-7.646,1.033-10.892,3.362
	c-4.103,2.943-6.095,7.14-6.822,12.039c-0.563,3.801-0.264,7.63-0.332,11.449c-0.016,0.934-0.042,1.87,0.009,2.802
	c0.042,0.784-0.285,1-1.022,0.996c-3.479-0.026-6.956-0.012-10.435-0.011c-1.243,0-1.246,0.003-1.246,1.26
	c-0.002,4.029,0.021,8.056-0.017,12.084c-0.009,0.876,0.245,1.165,1.132,1.154c3.477-0.045,6.955-0.021,10.434-0.018
	c1.098,0.003,1.144,0.045,1.144,1.115c0.001,11.005,0,22.008-0.003,33.011c0,1.071-0.045,1.111-1.083,0.917
	c-9.103-1.691-17.166-5.561-24.112-11.737C8.45,80.517,3.032,71.03,0.898,59.729c-1.766-9.353-0.957-18.535,2.427-27.453
	c2.833-7.467,7.21-13.899,13.082-19.254C23.376,6.667,31.509,2.529,40.771,0.84c11.19-2.042,21.948-0.578,32.086,4.691
	c10.296,5.353,17.841,13.401,22.704,24.003c3.542,7.723,4.927,15.864,4.339,24.295C99.115,65.072,95.009,75,87.612,83.5
	c-6.722,7.726-15.039,12.887-24.89,15.531c-1.259,0.341-2.542,0.584-3.819,0.847c-1.04,0.213-1.091,0.164-1.092-0.904
	C57.809,93.459,57.811,87.943,57.811,82.426z"/>
</svg>
