<?xml version="1.0" encoding="utf-8"?>
<!-- Generator: Adobe Illustrator 23.0.6, SVG Export Plug-In . SVG Version: 6.00 Build 0)  -->
<svg version="1.1" id="Layer_1" xmlns="http://www.w3.org/2000/svg" xmlns:xlink="http://www.w3.org/1999/xlink" x="0px" y="0px"
	 viewBox="0 0 50 50" style="enable-background:new 0 0 50 50;" xml:space="preserve">
<style type="text/css">
	.st0{fill:none;}
	.st1{fill:none;stroke:#11698E;stroke-width:2;stroke-linecap:round;stroke-miterlimit:10;}
</style>
<rect class="st0" width="50" height="50"/>
<path class="st1" d="M29.9,34.7c0-0.3,0-0.7-0.1-1.2c4.3-0.4,7.4-1.5,7.4-2.7c0,0,0,0,0-0.1C34,27.8,40,7,28.7,7.4
	C28,6.8,26.8,6.3,25,6.3c-14,1.1-9.5,17.6-11.3,23.2c-0.1,0.6-0.3,1.1-0.6,1.7c0.5,1,3.3,1.9,7.1,2.3c0,0.3,0,0.6-0.1,1.3
	c-1.3,3.4-7.8,3.3-11.5,6.7c2,1.8,8.9,6.9,16.5,6.9s13.8-3.6,16.3-6.6C37.7,38.4,31.2,38.1,29.9,34.7z"/>
<circle class="st1" cx="25" cy="25" r="24"/>
</svg>
