<svg id="Capa_1" data-name="Capa 1" xmlns="http://www.w3.org/2000/svg" viewBox="0 0 422.75259 405.99714"><defs><style>.cls-1{fill:#005873;}.cls-2{fill:#00a200;}</style></defs><title>find_home</title><path class="cls-1" d="M144.97778,405.9869c-.2848-.02275-.5696-.06538-.85439-.06538q-37.37282.0023-74.74562.0128-14.21325.00583-28.42649.04513c-4.94352-1.17306-7.16141-4.17934-7.1616-9.74658q-.00313-91.2324-.00132-182.46486v-2.80876c-.744.54951-1.08395.7862-1.40849,1.04241-6.202,4.89622-12.36655,9.84077-18.6147,14.67734-4.51653,3.49614-10.28832,2.12512-12.942-2.92988C.60549,223.33454.6076,222.73794,0,222.59218V167.37552a15.78569,15.78569,0,0,1,3.74654-5.05672Q103.1435,83.71136,202.48628,5.03536C204.98239,3.05907,207.37255.9376,210.51353,0h1.29415a17.66206,17.66206,0,0,1,5.45748,2.57541Q317.351,81.88143,417.50794,161.09765a15.48289,15.48289,0,0,1,5.24465,6.27787v55.21666c-.34281.03655-.41945.31535-.5525.5685-3.19414,6.0769-8.60951,7.2212-14.03052,2.95413-3.89269-3.064-7.76681-6.1516-11.6534-9.22345-2.39065-1.88947-4.789-3.76913-7.55194-5.94267,0,1.30224,0,2.13509,0,2.96794q0,90.84544-.00189,181.69089c0,.8616.02978,1.72892-.05379,2.58383a8.34369,8.34369,0,0,1-7.0875,7.79539,4.69519,4.69519,0,0,0-.63667-.08483q-50.10561.01184-100.21124.0342c-1.0739.0005-2.14779.03981-3.22169.061m11.81535-16.73971q40.224-.10391,80.44846-.00984c1.58582.00308,2.01643-.34684,2.0152-1.98518q-.07047-94.03649-.0058-188.073a3.45439,3.45439,0,0,0-1.52149-3.03132Q291.70646,133.88214,212.97225,71.52719c-1.26072-.99874-1.946-.97082-3.18668.01208Q131.314,133.70536,52.7537,195.75925a4.60285,4.60285,0,0,0-2.039,4.082q.09936,46.58668.0472,93.17372,0,47.01828-.04562,94.03643c-.00371,1.82686.47991,2.20506,2.24157,2.20105q40.00845-.091,80.01714-.00123M16.87964,202.66288c1.00832-.762,1.63979-1.21989,2.25075-1.70368q92.75217-73.44542,185.50213-146.89366c5.09993-4.0384,8.43824-4.05511,13.46829-.071q89.44689,70.84819,178.892,141.69862c2.83825,2.24812,5.68882,4.48069,8.8811,6.99405,0-1.07244,0-1.69248,0-2.31251,0-8.26659-.03767-16.53352.03534-24.79946a3.59493,3.59493,0,0,0-1.59675-3.19557Q374.9659,149.21309,345.684,125.96448q-66.46918-52.65763-132.92265-105.335c-1.0313-.818-1.66707-.90345-2.72335-.03092-3.6545,3.01875-7.40588,5.92024-11.122,8.86438Q134.05374,80.85153,69.19054,132.23905q-25.42129,20.139-50.839,40.2825c-.62808.49835-1.49459.80008-1.49059,1.92019C16.894,183.69249,16.87964,192.9434,16.87964,202.66288Z"/><path class="cls-2" d="M138.45555,285.67434a29.4801,29.4801,0,0,1-12.9502-3.01486c-5.61861-2.80931-12.81317-8.702-15.34839-21.104-6.852-33.43755,11.10017-43.16735,12.88169-43.98959,14.25208-7.60568,26.38,12.74465,32.27273,22.543a37.746,37.746,0,0,1,3.97414,29.87455c-1.91855,6.44083-5.55009,11.30573-10.20941,13.49837A24.60768,24.60768,0,0,1,138.45555,285.67434Zm-9.18163-63.31211a7.29762,7.29762,0,0,0-3.28894.82225c-.06852,0-.137.06852-.20556.06852-.61667.27407-15.34839,7.87975-9.38718,36.93206,2.05558,9.86682,7.60568,14.52617,11.9224,16.65026,6.57789,3.28893,13.90948,2.67226,17.88362.82224,2.94635-1.43892,5.48157-4.93342,6.852-9.59274a31.33575,31.33575,0,0,0-3.35745-24.73559C141.19633,229.07714,134.687,222.36223,129.27392,222.36223Zm-4.79637-1.98708Z"/><path class="cls-2" d="M179.43027,244.90518a33.48491,33.48491,0,0,1-3.70005-.20555h0c-4.31674-.47965-13.6354-4.45378-20.21329-13.2928-6.37232-8.63348-8.49642-19.93921-6.02972-32.61534,2.94634-15.27986,14.32059-31.10789,27.6134-38.57652,6.92048-3.90563,13.36132-4.93342,18.63734-2.94634,13.49837,5.00192,15.14283,36.45244,15.34838,45.90813.27408,14.38912-4.1797,26.9282-12.19648,34.32833A27.99946,27.99946,0,0,1,179.43027,244.90518Zm10.75759-82.155a20.87534,20.87534,0,0,0-9.93535,3.08338c-9.59274,5.413-21.3096,18.36325-24.393,34.19128-2.12411,10.96313-.47963,20.2818,4.8649,27.54489,5.55009,7.53715,13.42984,10.48349,15.691,10.75758h0c7.19456.75372,13.2928-1.09632,18.08917-5.55009,6.71492-6.16676,10.415-16.92435,10.1409-29.46343-.47965-24.8041-6.16677-38.16543-11.16869-40.01544A8.29174,8.29174,0,0,0,190.18786,162.75018Z"/><path class="cls-2" d="M248.08692,244.90518a28.2409,28.2409,0,0,1-19.45956-7.40011c-8.08531-7.40011-12.53908-19.93921-12.19648-34.32833.20555-9.52422,1.85-40.90621,15.34838-45.90813,5.276-1.98706,11.71686-.95927,18.63734,2.94633,13.2928,7.40011,24.59854,23.29667,27.61339,38.57653,2.46671,12.67613.41113,23.91334-6.02971,32.61534-6.50936,8.839-15.828,12.88167-20.21328,13.2928A33.48128,33.48128,0,0,1,248.08692,244.90518Zm-10.75759-82.155a9.72567,9.72567,0,0,0-3.28893.54815c-5.00192,1.85-10.68906,15.21136-11.16869,40.01544-.27407,12.53908,3.426,23.29667,10.1409,29.46343,4.79637,4.45377,10.89461,6.30381,18.08917,5.55009h0c2.26114-.20555,10.14089-3.22043,15.691-10.75758,5.413-7.26309,7.05751-16.51323,4.8649-27.54489-3.08338-15.828-14.80024-28.84676-24.393-34.19128A20.87552,20.87552,0,0,0,237.32933,162.75018Z"/><path class="cls-2" d="M289.13016,285.67434a25.078,25.078,0,0,1-10.552-2.19264c-4.65932-2.26113-8.29087-7.05751-10.20941-13.49837a38.02949,38.02949,0,0,1,3.97412-29.87455c5.82417-9.79829,18.02065-30.14862,32.27274-22.54294,1.78152.89075,19.73364,10.62054,12.88168,43.98957-2.53523,12.40205-9.7983,18.36325-15.34839,21.104A29.97687,29.97687,0,0,1,289.13016,285.67434Zm9.18162-63.31211c-5.48157,0-11.92241,6.71491-20.48736,20.967a31.33571,31.33571,0,0,0-3.35745,24.73559c1.37039,4.65932,3.90562,8.15382,6.852,9.59274,3.97413,1.91854,11.30573,2.46671,17.88362-.82224,4.31672-2.12412,9.93534-6.78344,11.9224-16.65026,6.02972-29.46343-9.25014-36.86354-9.38719-36.93206-.06852,0-.137-.06852-.20555-.06852A6.81989,6.81989,0,0,0,298.31178,222.36223Z"/><path class="cls-2" d="M178.67655,355.56431a36.97117,36.97117,0,0,1-3.8371-.20555c-12.74465-1.30189-28.23008-8.0853-33.64313-23.15961-6.92048-19.45959,3.28894-36.10984,14.18356-44.46922,7.53715-5.82417,13.42984-14.115,18.15768-20.83,2.19263-3.08338,4.04265-5.75564,5.75564-7.6742,6.50936-7.40011,14.115-14.52616,25.42078-16.92435,24.8041-5.276,37.68578,10.96314,50.08783,26.65412,5.413,6.78344,10.96314,13.841,17.404,18.77437,10.89461,8.3594,21.104,25.07816,14.18356,44.46924-3.563,9.93534-11.30573,17.33545-21.78922,20.89848-13.22428,4.45377-29.46343,2.46668-41.18029-5.20748-2.67226-1.713-5.413-3.426-8.15383-5.00192-.41112-.2741-.82224-.47965-1.23334-.7537C204.43992,348.36976,192.1064,355.56431,178.67655,355.56431Zm34.945-107.84982a37.24825,37.24825,0,0,0-7.53716.82224c-8.90755,1.91854-15.21136,7.3316-21.92627,14.86876a76.23625,76.23625,0,0,0-5.34452,7.126c-4.72785,6.64641-11.23721,15.828-19.52809,22.20034-9.18162,7.05751-17.8151,21.03553-12.05945,37.27468,4.38525,12.265,17.4725,17.8151,28.23008,18.9114,11.16869,1.16484,21.78923-3.97413,32.47829-10.552a96.95569,96.95569,0,0,1-11.99093-8.839,59.85409,59.85409,0,0,1-7.40011-7.74271c-3.426-4.31673-5.276-8.15385-5.96121-12.128A18.90451,18.90451,0,0,1,194.299,289.4429a19.16679,19.16679,0,0,1,19.45957,4.11117,18.45279,18.45279,0,0,1,31.382,13.01873,22.71468,22.71468,0,0,1-3.70006,12.05943,46.61534,46.61534,0,0,1-7.74271,8.90755,124.02542,124.02542,0,0,1-13.70392,10.75759c2.26114,1.37039,4.59083,2.80928,6.92049,4.31672,10.07239,6.50936,24.393,8.29086,35.63019,4.52228,6.09824-2.05559,14.115-6.71491,17.8151-16.99285,5.75564-16.17061-2.87783-30.14863-12.05946-37.27466-7.05751-5.413-12.88167-12.74465-18.50029-19.87069C239.59047,259.97949,229.79218,247.71449,213.62155,247.71449ZM200.5343,294.71892a11.28415,11.28415,0,0,0-3.97413.68519,12.572,12.572,0,0,0-7.60568,13.22428c.47965,2.80928,1.91854,5.75566,4.59082,9.1131a48.29684,48.29684,0,0,0,6.64641,6.92046,91.38387,91.38387,0,0,0,13.70392,9.79829,114.67816,114.67816,0,0,0,15.41691-11.85388,40.69378,40.69378,0,0,0,6.64641-7.53716,16.549,16.549,0,0,0,2.74079-8.565,12.02868,12.02868,0,0,0-22.20037-6.37231,3.244,3.244,0,0,1-2.74078,1.50744C213.7586,301.77645,204.64548,294.71892,200.5343,294.71892Z"/></svg>