<?xml version="1.0" encoding="utf-8"?>
<!-- Generator: Adobe Illustrator 23.0.6, SVG Export Plug-In . SVG Version: 6.00 Build 0)  -->
<svg version="1.1" id="Capa_1" xmlns="http://www.w3.org/2000/svg" xmlns:xlink="http://www.w3.org/1999/xlink" x="0px" y="0px"
	 viewBox="0 0 401 401" style="enable-background:new 0 0 401 401;" xml:space="preserve">
<style type="text/css">
	.st0{fill:#272727;}
	.st1{fill:#19456B;}
	.st2{fill:#FFFFFF;}
</style>
<path class="st0" d="M370.1,251.9c-5.5,0-10,4.5-10,10v88.7c0,16.5-13.4,29.9-30,30H49.9c-16.5,0-29.9-13.4-30-30V90.3
	c0-16.5,13.4-29.9,30-30h88.7c5.5,0,10-4.5,10-10c0-5.5-4.5-10-10-10H49.9C22.4,40.4,0,62.7,0,90.3v260.3
	c0,27.6,22.4,49.9,49.9,49.9h280.2c27.6,0,49.9-22.4,49.9-49.9v-88.7C380.1,256.4,375.6,251.9,370.1,251.9z"/>
<path class="st1" d="M376.8,23.3c-12.3-12.3-32.3-12.3-44.6,0l-125,125c-0.9,0.9-1.5,1.9-1.8,3.1l-16.4,59.4c-0.7,2.4,0,5,1.8,6.8
	c1.8,1.8,4.4,2.5,6.8,1.8l59.4-16.4c1.2-0.3,2.2-0.9,3.1-1.8l125-125c12.3-12.3,12.3-32.3,0-44.6L376.8,23.3z M222.5,152.8
	L324.8,50.5l33,33L255.5,185.8L222.5,152.8z M215.9,166.1l26.4,26.4l-36.5,10.1L215.9,166.1z M375.1,66.2l-7.4,7.4l-33-33l7.4-7.4
	c6.8-6.8,17.9-6.8,24.8,0l8.2,8.2C382,48.2,382,59.3,375.1,66.2z"/>
<g>
	<path class="st2" d="M43.2,210.9c0-40.9,0-81.8,0-122.7c40.9,0,81.8,0,122.7,0c0,40.9,0,81.8,0,122.7
		C125.1,210.9,84.2,210.9,43.2,210.9z M104.4,105.2c-12.3,0-22.2,9.9-22.2,22.2c0,12.2,10,22.2,22.2,22.2c12.2,0,22.2-10,22.2-22.3
		C126.7,115.1,116.7,105.1,104.4,105.2z M65.8,194c2.8-18.6,18.4-32.7,37.3-33.3c8.3-0.3,15.9,1.8,22.8,6.4
		c9.6,6.4,15.2,15.5,17.2,26.8c1.8,0,3.6,0,5.3,0c-1-11.1-8.1-25.9-23.3-33.5c-16.2-8.2-32-7-46.8,3.4c-10.3,7.3-16,17.6-17.9,30.2
		C62.4,194,64.1,194,65.8,194z"/>
	<path class="st0" d="M104.4,105.2c12.3,0,22.2,9.9,22.3,22.1c0,12.2-9.9,22.2-22.2,22.3c-12.2,0-22.2-10-22.2-22.2
		C82.3,115.1,92.2,105.2,104.4,105.2z M104.5,110.6c-9.2,0-16.7,7.5-16.8,16.7c0,9.3,7.5,16.9,16.7,16.9c9.2,0,16.8-7.5,16.8-16.8
		C121.3,118.1,113.7,110.6,104.5,110.6z"/>
	<path class="st0" d="M65.8,194c-1.8,0-3.5,0-5.4,0c1.9-12.6,7.6-22.9,17.9-30.2c14.8-10.4,30.7-11.6,46.8-3.4
		c15.2,7.7,22.2,22.5,23.3,33.5c-1.7,0-3.5,0-5.3,0c-1.9-11.3-7.5-20.4-17.2-26.8c-6.9-4.6-14.6-6.7-22.8-6.4
		C84.2,161.4,68.7,175.5,65.8,194z"/>
	<path class="st2" d="M104.5,110.6c9.3,0,16.8,7.5,16.8,16.8c0,9.2-7.6,16.8-16.8,16.8c-9.2,0-16.8-7.6-16.7-16.9
		C87.7,118.1,95.3,110.6,104.5,110.6z"/>
</g>
<rect x="56.5" y="260" class="st0" width="250.5" height="8"/>
<rect x="56.5" y="306" class="st0" width="250.5" height="8"/>
<rect x="56.5" y="283" class="st0" width="250.5" height="8"/>
</svg>
