<svg id="Capa_1" data-name="Capa 1" xmlns="http://www.w3.org/2000/svg" viewBox="0 0 397.39097 385.49747"><defs><style>.cls-1{fill:#272727;}.cls-2{fill:#19456b;}.cls-3{fill:#fff;}</style></defs><title>form_icon2</title><path class="cls-1" d="M370.1,251.9a10.0294,10.0294,0,0,0-10,10v88.7a30.08809,30.08809,0,0,1-30,30H49.9a30.08808,30.08808,0,0,1-30-30V90.3a30.08808,30.08808,0,0,1,30-30h88.7a10,10,0,0,0,0-20H49.9A50.06137,50.06137,0,0,0,0,90.3V350.6a49.91151,49.91151,0,0,0,49.9,49.9H330.1A49.9115,49.9115,0,0,0,380,350.6V261.9A9.88066,9.88066,0,0,0,370.1,251.9Z" transform="translate(0 -15.00249)"/><path class="cls-2" d="M379.16041,23.722a31.56589,31.56589,0,0,0-44.58827,1.02289L212.47184,152.57882a6.52281,6.52281,0,0,0-1.72844,3.14048L195.71,215.47981a6.99753,6.99753,0,0,0,8.795,8.4005l59.00826-17.758a6.52267,6.52267,0,0,0,3.05791-1.87063L388.67148,76.41775a31.56591,31.56591,0,0,0-1.02288-44.58827ZM227.871,156.72674l99.92687-104.6193,33.74816,32.23448L261.6192,188.96122Zm-6.29324,13.44787,26.99852,25.78758-36.25876,10.93446ZM378.44477,66.6497l-7.22833,7.56777L337.46828,41.983l7.22833-7.56777a17.62439,17.62439,0,0,1,24.79346-.56878l8.38592,8.00978A17.44345,17.44345,0,0,1,378.44477,66.6497Z" transform="translate(0 -15.00249)"/><path class="cls-3" d="M42.9,197.9306v-122.7H165.6v122.7Zm61.2-105.7a22.2,22.2,0,1,0,22.2,22.1A22.14991,22.14991,0,0,0,104.1,92.2306Zm-38.6,88.8a39.03751,39.03751,0,0,1,37.3-33.3,37.63779,37.63779,0,0,1,22.8,6.4c9.6,6.4,15.2,15.5,17.2,26.8h5.3a42.874,42.874,0,0,0-23.3-33.5c-16.2-8.2-32-7-46.8,3.4-10.3,7.3-16,17.6-17.9,30.2C62.1,181.03061,63.8,181.03061,65.5,181.03061Z" transform="translate(0 -15.00249)"/><path class="cls-1" d="M104.1,92.2306a22.20011,22.20011,0,1,1-22.1,22.2A22.2787,22.2787,0,0,1,104.1,92.2306Zm.1,5.4a16.80014,16.80014,0,1,0,16.7,16.8A16.68752,16.68752,0,0,0,104.2,97.63061Z" transform="translate(0 -15.00249)"/><path class="cls-1" d="M65.5,181.03061H60.1c1.9-12.6,7.6-22.9,17.9-30.2,14.8-10.4,30.7-11.6,46.8-3.4a43.41,43.41,0,0,1,23.3,33.5h-5.3c-1.9-11.3-7.5-20.4-17.2-26.8a37.82805,37.82805,0,0,0-22.8-6.4A39.3081,39.3081,0,0,0,65.5,181.03061Z" transform="translate(0 -15.00249)"/><path class="cls-3" d="M104.2,97.63061a16.80029,16.80029,0,1,1-16.7,16.7A16.7724,16.7724,0,0,1,104.2,97.63061Z" transform="translate(0 -15.00249)"/><rect class="cls-1" x="49.70001" y="181.11278" width="109.39999" height="6"/><rect class="cls-1" x="49.55002" y="196.86789" width="109.39999" height="6"/><rect class="cls-1" x="49.55002" y="212.623" width="109.39999" height="6"/><path class="cls-1" d="M293.02449,315.63646a26.90788,26.90788,0,0,1,15.77,5.26265,21.53209,21.53209,0,0,1,6.34272,7.20224c.80041,1.51362,1.901,2.83589,2.62043,4.39881,2.19211,4.76229,3.1256,9.6655,1.5855,14.80266a11.18016,11.18016,0,0,1-6.99582,7.83291c-2.65912.967-5.19129.3502-7.62073-.90466-2.54329-1.31366-4.886-2.95808-7.28611-4.49918a11.17254,11.17254,0,0,0-6.00421-1.45564,10.2108,10.2108,0,0,0-5.52739,1.837c-2.24037,1.29221-4.41314,2.69687-6.71648,3.88561-5.9668,3.07939-11.18365.39535-13.72987-4.72739-2.07285-4.17037-1.85617-8.51413-.54614-12.85379a22.5341,22.5341,0,0,1,3.9-7.48833c.6432-.81733,1.0425-1.8219,1.63848-2.68184a24.13147,24.13147,0,0,1,14.6872-9.83421A31.62854,31.62854,0,0,1,293.02449,315.63646Zm-.81717,2.47285a25.84471,25.84471,0,0,0-6.68383.76769c-6.07137,1.55391-10.88606,4.81046-13.98215,10.38037a9.03657,9.03657,0,0,1-.82688,1.29416,19.60716,19.60716,0,0,0-3.74176,7.70827,14.23942,14.23942,0,0,0,.62521,9.74513,7.84323,7.84323,0,0,0,5.30839,4.67285,7.74067,7.74067,0,0,0,5.4227-1.01378c2.26469-1.15323,4.36988-2.58218,6.58273-3.82459a11.78208,11.78208,0,0,1,3.83821-1.75776c3.61575-.54657,7.16925-.50479,10.324,1.76246.29642.213.62258.38445.93261.57887,1.88124,1.17973,3.6961,2.467,5.66415,3.506a7.32435,7.32435,0,0,0,5.051,1.076,8.17722,8.17722,0,0,0,5.96992-5.52335c1.636-4.24778,1.0163-8.43391-.562-12.57318-.82822-2.17209-2.32434-3.94775-3.3847-5.97846a16.37414,16.37414,0,0,0-3.31751-4.26161C304.60341,320.08254,298.7439,318.19852,292.20732,318.10931Z" transform="translate(0 -15.00249)"/><path class="cls-1" d="M293.57794,294.44155c.07792-4.53885,1.23444-8.63112,4.25187-12.02987a10.0374,10.0374,0,0,1,8.53516-3.73508,10.41455,10.41455,0,0,1,7.268,3.95374,16.909,16.909,0,0,1,3.92777,9.61138,18.84439,18.84439,0,0,1-2.5679,12.03218,11.82942,11.82942,0,0,1-5.96624,5.20107c-3.87319,1.42647-7.31737.51048-10.296-2.21316a16.27278,16.27278,0,0,1-4.90916-9.75688A28.88179,28.88179,0,0,1,293.57794,294.44155Zm2.47973-.07108a15.4387,15.4387,0,0,0,3.39277,10.12288,7.721,7.721,0,0,0,6.917,3.1132,8.06,8.06,0,0,0,5.50011-3.17818,16.84911,16.84911,0,0,0,.04036-20.04351,8.00969,8.00969,0,0,0-5.69711-3.23562,7.78517,7.78517,0,0,0-6.81525,3.18843A15.58172,15.58172,0,0,0,296.05767,294.37047Z" transform="translate(0 -15.00249)"/><path class="cls-1" d="M290.43781,294.37c-.07944,4.45768-1.21759,8.55433-4.2309,11.9602a10.00505,10.00505,0,0,1-8.59855,3.74835,10.6193,10.6193,0,0,1-7.84117-4.72479,18.3834,18.3834,0,0,1-3.292-13.2639,16.65337,16.65337,0,0,1,4.15789-9.73731,10.07633,10.07633,0,0,1,8.4162-3.68013,10.3053,10.3053,0,0,1,7.19289,3.79517A17.89435,17.89435,0,0,1,290.43781,294.37Zm-21.6124-.03a16.37907,16.37907,0,0,0,1.436,7.05192,10.56411,10.56411,0,0,0,5.27453,5.65969c3.11372,1.3778,6.636.36548,9.03731-2.55532A16.85311,16.85311,0,0,0,284.578,284.274c-3.3437-4.06247-8.47887-4.2417-12.03145-.37932C269.83939,286.83794,268.88774,290.44,268.82541,294.34Z" transform="translate(0 -15.00249)"/><path class="cls-1" d="M248.03247,315.40967a16.337,16.337,0,0,1,3.77239-10.49291,9.54306,9.54306,0,0,1,14.75724-.05c3.11646,3.631,4.08208,7.916,3.73173,12.56684a16.056,16.056,0,0,1-3.00438,8.36526,9.71062,9.71062,0,0,1-11.16292,3.80927,11.37592,11.37592,0,0,1-6.32144-5.99794A18.00974,18.00974,0,0,1,248.03247,315.40967Zm19.88146.3553a14.65593,14.65593,0,0,0-2.39194-8.24569c-3.13167-4.66686-8.78159-4.89658-12.25111-.48994a13.1844,13.1844,0,0,0-2.67474,7.24225,14.63737,14.63737,0,0,0,2.321,9.77506c3.29376,4.84707,9.34462,4.81949,12.6144-.03092A14.80452,14.80452,0,0,0,267.91393,315.765Z" transform="translate(0 -15.00249)"/><path class="cls-1" d="M337.56157,316.20963a16.11754,16.11754,0,0,1-3.69614,10.30664,9.59658,9.59658,0,0,1-15.5-.64658,16.9852,16.9852,0,0,1-3.06-11.78356,16.23382,16.23382,0,0,1,3.014-8.36146,9.68091,9.68091,0,0,1,11.09959-3.81155,11.2647,11.2647,0,0,1,6.34828,5.96609A18.08443,18.08443,0,0,1,337.56157,316.20963Zm-19.86994-.53781a14.70872,14.70872,0,0,0,2.40776,8.40107c3.12343,4.587,8.70038,4.82687,12.17521.50193a13.08905,13.08905,0,0,0,2.72429-7.29735,14.6726,14.6726,0,0,0-2.27459-9.7162c-3.31037-4.93849-9.38-4.91781-12.6895.01237A14.58306,14.58306,0,0,0,317.69163,315.67182Z" transform="translate(0 -15.00249)"/><rect class="cls-1" x="126.30075" y="286.03261" width="109.39999" height="6"/><rect class="cls-1" x="126.30075" y="301.78773" width="109.39999" height="6"/><rect class="cls-1" x="126.30075" y="317.54284" width="109.39999" height="6"/><rect class="cls-1" x="126.30075" y="333.29795" width="109.39999" height="6"/></svg>