<svg id="Layer_1" data-name="Layer 1" xmlns="http://www.w3.org/2000/svg" viewBox="0 0 1100 1041.51"><defs><style>.cls-1{fill:#47597e;}</style></defs><title>huella2</title><path class="cls-1" d="M206.19,755.65A152.87,152.87,0,0,1,138.48,740c-29.32-14.53-67.07-45.48-80.38-110.41C22.3,454.94,116.25,404,125.48,399.46c74.41-39.76,138,66.65,168.54,117.83,28.28,47.34,36.09,105.78,20.91,156.32-10.17,33.84-29.16,58.93-53.48,70.63C247.07,751.17,227.63,755.65,206.19,755.65ZM158.13,424.76a35.35,35.35,0,0,0-17,4.45c-.3.16-.61.32-.93.46-3.15,1.54-80.34,41-49.15,193.12,10.58,51.65,39.76,75.85,62.37,87.05C187.94,727,226.07,724,246.88,714c15.48-7.46,28.55-25.69,35.87-50,12.52-41.67,5.94-90.05-17.58-129.43C220.57,459.85,186.65,424.76,158.13,424.76Zm-25-10.33h0Z" transform="translate(-50 -79.25)"/><path class="cls-1" d="M420.6,542.34a183.25,183.25,0,0,1-19.27-1h0c-22.69-2.4-71.41-23.41-105.54-69.59-33.49-45.29-44.37-104.2-31.48-170.37C279.87,221.5,339.16,138.59,408.5,99.74c36.27-20.32,69.93-25.65,97.35-15.43,70.48,26.27,79.26,190.4,80.28,240.08,1.53,75.27-21.77,140.65-63.93,179.38C494.53,529.18,459.69,542.34,420.6,542.34ZM476.84,112.9c-15,0-32.87,5.49-51.91,16.15-50.18,28.12-111.53,96-127.64,178.73-11.2,57.48-2.62,105.92,25.51,144,29.05,39.29,70.32,54.9,82.06,56.14h0c37.59,4,69.42-5.74,94.61-28.87,35.06-32.2,54.4-88.31,53.06-153.93-2.65-129.83-32.14-199.5-58.42-209.3A49.35,49.35,0,0,0,476.84,112.9Z" transform="translate(-50 -79.25)"/><path class="cls-1" d="M779.41,542.34c-39.11,0-73.93-13.16-101.61-38.58-42.16-38.72-65.45-104.1-63.92-179.37,1-49.67,9.79-213.81,80.27-240.08,27.41-10.23,61.08-4.9,97.35,15.43C860.84,138.6,920.14,221.5,935.69,301.36c12.9,66.15,2,125.06-31.47,170.36-34.13,46.17-82.85,67.19-105.55,69.59A183.06,183.06,0,0,1,779.41,542.34ZM723.16,112.9a49.17,49.17,0,0,0-17.27,2.89c-26.28,9.8-55.77,79.47-58.42,209.29-1.34,65.63,18,121.73,53.06,153.94,25.19,23.13,57,32.85,94.61,28.87h0c11.75-1.24,53-16.85,82.06-56.14,28.13-38.06,36.71-86.49,25.51-144C886.6,225.1,825.26,157.17,775.08,129.06,756,118.39,738.2,112.9,723.16,112.9Z" transform="translate(-50 -79.25)"/><path class="cls-1" d="M993.81,755.65c-21.44,0-40.88-4.48-55.26-11.41-24.32-11.7-43.31-36.79-53.48-70.63-15.18-50.55-7.37-109,20.91-156.32,30.57-51.18,94.1-157.59,168.54-117.83,9.22,4.53,103.18,55.47,67.38,230.08-13.31,64.93-51.05,95.88-80.37,110.41A152.92,152.92,0,0,1,993.81,755.65Zm48.06-330.89c-28.52,0-62.44,35.09-107,109.76-23.52,39.37-30.09,87.76-17.58,129.42,7.31,24.34,20.39,42.57,35.87,50,20.81,10,58.94,13,93.49-4.13,22.61-11.2,51.79-35.4,62.38-87.05,31.54-153.84-48.35-192.74-49.16-193.12-.31-.14-.63-.3-.93-.46A35.46,35.46,0,0,0,1041.87,424.76Z" transform="translate(-50 -79.25)"/><path class="cls-1" d="M416.36,1120.75a194.12,194.12,0,0,1-19.92-1c-66.5-6.86-147.58-42.25-175.68-121C184.51,897.16,238,810,294.79,766.15c39.29-30.3,70.21-73.87,95-108.89,11.41-16.08,21.26-30,30.2-40.07,34.11-38.58,73.79-76,132.73-88.47,129.6-27.42,196.89,57.34,262,139.31,28.18,35.5,57.32,72.21,90.92,98.12,56.81,43.81,110.28,131,74,232.59-18.5,51.86-59,90.66-113.94,109.27-69.28,23.44-153.83,12.78-215.41-27.17-13.88-9-28.41-17.78-42.46-26.27l-6.34-3.83C551.08,1083.25,486.84,1120.75,416.36,1120.75Zm182.9-563.5a190.54,190.54,0,0,0-39.54,4.34c-46.64,9.87-79.52,38.26-114.52,77.85-7.74,8.76-17.11,22-28,37.26-24.75,34.9-58.66,82.7-101.93,116.06-47.88,36.93-93.09,110.07-62.9,194.69,22.85,64,91.17,93.06,147.48,98.86,58.31,6,113.89-20.67,169.76-55.27-23.28-14.88-43.6-29.33-62.67-46.22a324.15,324.15,0,0,1-38.8-40.61c-17.8-22.41-27.66-42.51-31-63.22-7.06-43.64,19.79-90.12,61.13-105.81,34.29-13,75.2-3.56,101.65,21.37,24.39-23.44,60.88-33.47,93.93-24,40.26,11.47,69.72,50.18,70.05,92,.16,20.77-6.52,42.54-19.31,63-12.06,19.24-27.92,34.91-40.39,46.41-20.73,19.1-44.28,37.62-71.64,56.32,11.95,7.23,24.12,14.68,36,22.39,52.48,34,127.39,43.49,186.36,23.53,31.86-10.78,73.86-34.93,93.07-88.73,30.19-84.61-15-157.76-62.91-194.68C848.27,764.35,817.84,726,788.4,688.92,734.84,621.46,683.87,557.25,599.26,557.25ZM530.93,802.92a58.46,58.46,0,0,0-20.7,3.67c-26.52,10.07-44.41,41-39.88,69,2.39,14.8,10.06,30,24.14,47.69a291.22,291.22,0,0,0,34.78,36.35c20.94,18.55,44,34.23,71.68,51.35,31.53-20.71,57.89-40.94,80.52-61.79,10.93-10.08,24.75-23.68,34.68-39.54,9.39-15,14.3-30.5,14.18-44.86-.2-26.84-19.83-52.63-45.65-60s-56.09,4.22-70.42,26.92a16.79,16.79,0,0,1-14.18,7.83S552.43,802.92,530.93,802.92Z" transform="translate(-50 -79.25)"/></svg>