<svg id="Capa_1" data-name="Capa 1" xmlns="http://www.w3.org/2000/svg" viewBox="0 0 480.45 480.45"><defs><style>.cls-1{fill:#fff;}.cls-2{fill:#7bada4;}.cls-3{fill:#247767;}</style></defs><title>icon1</title><polygon class="cls-1" points="236 57.89 65 265.89 170.91 451.89 297.09 451.89 403 265.89 236 57.89"/><path class="cls-2" d="M236.15,44.33,460.48,312l20-16.74L249.54,19.73a17.81,17.81,0,0,0-13.67-6.42A17.61,17.61,0,0,0,222.32,20L0,295.43,20.28,311.8Z"/><path class="cls-3" d="M232.88,59,64.44,267.73,97.73,457.45H366l49-189.72L240,59A4.41,4.41,0,0,0,232.88,59ZM178.18,205c15-7.85,36.23,3.05,47.33,24.33s7.9,44.89-7.14,52.73-36.23-3-47.33-24.32S163.14,212.83,178.18,205ZM123.09,313.91c-11.09-21.28-7.9-44.89,7.13-52.74s36.24,3.05,47.33,24.33,7.9,44.89-7.12,52.73S134.19,335.19,123.09,313.91Zm227.14-52.74c15,7.85,18.24,31.46,7.14,52.74S325.08,346.08,310,338.23s-18.25-31.46-7.14-52.73S335.19,253.32,350.23,261.17ZM255,229.31C266.05,208,287.25,197.14,302.28,205s18.24,31.46,7.14,52.74-32.3,32.17-47.34,24.32S243.85,250.58,255,229.31ZM292.52,341a43.7,43.7,0,0,1-.76,8c14.64,1.6,20.5,19.42,20.5,34.49A29.24,29.24,0,0,1,283,412.75c-14.46,0-22.76-1.75-40.09-10.8-3.37.84-25.5,10.8-40.11,10.8a29.25,29.25,0,0,1-29.23-29.25c0-15.64,6.74-33.88,22.2-34.67A42.62,42.62,0,0,1,195,341c0-23.84,24.9-48.74,48.74-48.74S292.52,317.19,292.52,341Z"/></svg>