<?xml version="1.0" encoding="utf-8"?>
<!-- Generator: Adobe Illustrator 23.0.6, SVG Export Plug-In . SVG Version: 6.00 Build 0)  -->
<svg version="1.1" id="Capa_1" xmlns="http://www.w3.org/2000/svg" xmlns:xlink="http://www.w3.org/1999/xlink" x="0px" y="0px"
	 viewBox="0 0 48 48" style="enable-background:new 0 0 48 48;" xml:space="preserve">
<style type="text/css">
	.st0{fill:#FFFFFF;}
	.st1{fill:none;}
	.st2{fill:#B91823;}
</style>
<rect x="8" y="14.5" class="st0" width="30.9" height="21.6"/>
<path class="st1" d="M0,0h48v48H0V0z"/>
<path class="st2" d="M38.5,11.5H8.3c-1.7,0-3,1.4-3,3v21.2c0,1.7,1.4,3,3,3h30.3c1.7,0,3-1.4,3-3l0-21.2
	C41.6,12.9,40.2,11.5,38.5,11.5z M38.5,35.8H8.3V14.6h30.3V35.8z M37,16.1H26.4v7.6H37V16.1z M35.5,19.1l-3.8,2.6l-3.8-2.6v-1.5
	l3.8,2.6l3.8-2.6V19.1z M18.9,25.2c2.5,0,4.5-2,4.5-4.5s-2-4.5-4.5-4.5s-4.5,2-4.5,4.5S16.4,25.2,18.9,25.2z M18.9,19.1
	c0.8,0,1.5,0.7,1.5,1.5s-0.7,1.5-1.5,1.5s-1.5-0.7-1.5-1.5S18,19.1,18.9,19.1z M27.9,32.1c0-3.8-6-5.4-9.1-5.4s-9.1,1.6-9.1,5.4v2.1
	h18.2V32.1z M13.5,31.2c1.1-0.8,3.4-1.5,5.3-1.5s4.2,0.7,5.3,1.5H13.5z"/>
<circle class="st2" cx="29" cy="28.1" r="1.3"/>
<circle class="st2" cx="31.3" cy="26.1" r="1.3"/>
<circle class="st2" cx="34.3" cy="26.1" r="1.3"/>
<circle class="st2" cx="36.6" cy="28.1" r="1.3"/>
<path class="st2" d="M35.5,30.8c-0.4-0.5-0.8-0.9-1.2-1.5c-0.2-0.3-0.5-0.5-0.9-0.7c-0.1,0-0.1,0-0.2,0c-0.1,0-0.3,0-0.4,0
	c-0.1,0-0.3,0-0.4,0c-0.1,0-0.1,0-0.2,0c-0.4,0.1-0.6,0.4-0.9,0.7c-0.4,0.5-0.8,0.9-1.2,1.5c-0.7,0.7-1.5,1.4-1.3,2.4
	c0.1,0.5,0.5,1,1.2,1.2c0.4,0.1,1.5-0.2,2.8-0.2h0.1c1.2,0,2.4,0.3,2.8,0.2c0.7-0.1,1-0.7,1.2-1.2C36.9,32.2,36.1,31.4,35.5,30.8z"
	/>
</svg>
