<?xml version="1.0" encoding="utf-8"?>
<!-- Generator: Adobe Illustrator 23.0.6, SVG Export Plug-In . SVG Version: 6.00 Build 0)  -->
<svg version="1.1" id="Layer_1" xmlns="http://www.w3.org/2000/svg" xmlns:xlink="http://www.w3.org/1999/xlink" x="0px" y="0px"
	 viewBox="0 0 512 512" style="enable-background:new 0 0 512 512;" xml:space="preserve">
<style type="text/css">
	.st0{fill:none;}
	.st1{fill:none;stroke:#17AA00;stroke-width:20;}
	.st2{fill:none;stroke:#405C7E;stroke-width:20;}
	.st3{fill:#2B5B7F;}
</style>
<path class="st0" d="M134,222.4c-17.4,0-31.5,14.1-31.5,31.5v250.2h180.8V222.4H134z"/>
<path class="st1" d="M282.6,9c-69.4,0.4-125,57.7-125,127.1V169h38.1v-33.2c0-48.2,38.5-88.3,86.8-88.7c48.7-0.5,88.5,39,88.5,87.6
	v68.1c0,10.3,8,19.1,18.4,19.5c10.8,0.4,19.7-8.3,19.7-19v-68.6C409.1,65.2,352.3,8.6,282.6,9z"/>
<path class="st2" d="M464.2,504.1H102.5V253.9c0-17.4,14.1-31.5,31.5-31.5h298.6c17.4,0,31.5,14.1,31.5,31.5L464.2,504.1
	L464.2,504.1z"/>
<g>
	<g>
		<path class="st3" d="M313.3,348c12.7-9.3,21-24.3,21-41.1c0-28.1-22.8-50.9-50.9-50.9s-50.9,22.8-50.9,50.9
			c0,16.9,8.3,31.9,21,41.1c-31.6,12.1-54.1,42.7-54.1,78.5c0,15.4,12.6,28,28,28h112c15.4,0,28-12.6,28-28
			C367.3,390.7,344.8,360.1,313.3,348z M247.7,306.9c0-19.6,16-35.6,35.6-35.6s35.6,16,35.6,35.6c0,19.6-16,35.6-35.6,35.6
			S247.7,326.5,247.7,306.9z M339.3,439.2h-112c-7,0-12.7-5.7-12.7-12.7c0-37.9,30.8-68.7,68.7-68.7s68.7,30.8,68.7,68.7
			C352,433.5,346.3,439.2,339.3,439.2z"/>
	</g>
</g>
</svg>
