<?xml version="1.0" encoding="utf-8"?>
<!-- Generator: Adobe Illustrator 16.0.3, SVG Export Plug-In . SVG Version: 6.00 Build 0)  -->
<!DOCTYPE svg PUBLIC "-//W3C//DTD SVG 1.1//EN" "http://www.w3.org/Graphics/SVG/1.1/DTD/svg11.dtd">
<svg version="1.1" id="Capa_1" xmlns="http://www.w3.org/2000/svg" xmlns:xlink="http://www.w3.org/1999/xlink" x="0px" y="0px"
	 width="566.93px" height="566.93px" viewBox="0 0 566.93 566.93" enable-background="new 0 0 566.93 566.93" xml:space="preserve">
<g>
	<path fill="#FFFFFF" d="M421.947,144.983c-10.062-10.062-26.38-10.064-36.443-0.001c-10.063,10.064-10.063,26.379,0,36.443
		l76.269,76.271H146.031c-14.231,0-25.77,11.538-25.77,25.77c0,14.231,11.538,25.771,25.77,25.771h315.736L385.504,385.5
		c-10.063,10.064-10.063,26.38,0,36.444c5.031,5.03,11.627,7.547,18.222,7.547c6.597,0,13.191-2.517,18.223-7.547l120.254-120.255
		c10.063-10.063,10.063-26.379,0-36.443L421.947,144.983z"/>
	<path fill="#FFFFFF" d="M266.285,566.93c14.231,0,25.77-11.538,25.77-25.77c0-14.232-11.538-25.771-25.77-25.771H68.719V51.539
		h197.566c14.231,0,25.77-11.538,25.77-25.77c0-14.231-11.538-25.77-25.77-25.77H42.949C28.718,0,17.18,11.538,17.18,25.77v515.39
		c0,14.23,11.538,25.77,25.77,25.77H266.285z"/>
</g>
</svg>
