<svg id="Capa_1" data-name="Capa 1" xmlns="http://www.w3.org/2000/svg" viewBox="0 0 350.1 262.49"><defs><style>.cls-1{fill:#293b5f;}.cls-2{fill:#47597e;}</style></defs><title>mail_icon1</title><g id="icon"><path class="cls-1" d="M291.93,304.35H54.29A56.29,56.29,0,0,1-1.94,248.12v-150A56.29,56.29,0,0,1,54.29,41.86H291.93a56.3,56.3,0,0,1,56.23,56.23v150A56.3,56.3,0,0,1,291.93,304.35ZM54.29,58.3A39.84,39.84,0,0,0,14.5,98.09v150a39.84,39.84,0,0,0,39.79,39.79H291.93a39.84,39.84,0,0,0,39.79-39.79v-150A39.84,39.84,0,0,0,291.93,58.3Z" transform="translate(1.94 -41.86)"/><path class="cls-2" d="M41,98.87q63,61.44,126.08,122.86c7.83,7.63,19.86-4.36,12-12L53,86.86c-7.84-7.63-19.86,4.37-12,12Z" transform="translate(1.94 -41.86)"/><path class="cls-2" d="M179.11,221.73,305.19,98.88c7.85-7.65-4.17-19.65-12-12L167.1,209.72c-7.84,7.64,4.17,19.65,12,12Z" transform="translate(1.94 -41.86)"/><path class="cls-2" d="M304.73,250.72l-83.9-79.56c-7.93-7.52-20,4.47-12,12l83.9,79.56c7.93,7.52,20-4.47,12-12Z" transform="translate(1.94 -41.86)"/><path class="cls-2" d="M54.25,262.73l83.9-79.56c7.95-7.54-4.08-19.54-12-12l-83.9,79.56c-8,7.54,4.07,19.54,12,12Z" transform="translate(1.94 -41.86)"/></g></svg>