<svg id="Capa_1" data-name="Capa 1" xmlns="http://www.w3.org/2000/svg" viewBox="0 0 431.80307 332.95537"><defs><style>.cls-1{fill:#38557b;}.cls-2{fill:#c54854;}</style></defs><title>pets_species-01</title><path class="cls-1" d="M41.54687,310.339c-.03447-3.24088-.34751-6.42515-.22549-9.62365.53335-13.98113,3.15165-27.64635,6.31485-41.21244,8.88618-38.11058,21.41912-75.09846,34.69112-111.851,3.24837-8.99533,6.71832-17.91047,10.03327-26.8821.45822-1.24018.89117-1.49543,2.24371-1.048Q129.69,131.32788,164.8269,142.77907a2.29452,2.29452,0,0,1,1.813,2.32109c1.72355,15.33983,3.55451,30.66757,5.33392,46.00119,1.64317,14.15937,3.24618,28.32341,4.88947,42.48276q2.46488,21.23865,4.972,42.47239c1.3483,11.54847,2.73388,23.09291,4.00609,34.64978.74093,6.7306-3.05862,11.07455-9.85146,11.56a39.60519,39.60519,0,0,1-9.78731-.7988c-6.71926-1.19188-13.37874-.20391-19.9722.99866-13.81339,2.51943-27.57778,5.30859-41.39583,7.801a147.74765,147.74765,0,0,1-29.99241,2.6522,53.93069,53.93069,0,0,1-18.32128-3.26587c-.60947-.23584-1.17313-.55608-1.87189-.21393-6.60583,3.23445-13.3901,2.5778-20.19111.82633-11.14506-2.8702-18.62892-10.1162-23.62379-20.16358A98.88078,98.88078,0,0,1,.14335,260.05067a30.3043,30.3043,0,0,1,3.14308-12.51125c.5685-1.09289,1.13134-2.51157,2.54016-2.47678,1.39741.03449,1.9509,1.466,2.4611,2.57691,2.358,5.1342,3.81844,10.59179,5.61971,15.92629,4.0798,12.08229,8.76037,23.87926,16.1464,34.41011a67.56073,67.56073,0,0,0,9.97646,11.39819C40.442,309.74646,40.77948,310.27345,41.54687,310.339Z" transform="translate(0 0)"/><path class="cls-2" d="M336.4405,331.69615a309.41371,309.41371,0,0,1-42.38612-3.74419c-5.78132-.84831-11.56946-1.65007-17.35418-2.47536-2.58224-.3684-5.10234.19955-7.64163.49272a19.0609,19.0609,0,0,1-9.31485-.89586c-5.00713-1.96316-6.98425-5.66242-5.50879-10.74964.78915-2.72078.65868-5.45353.75669-8.201.67736-18.98978.99382-37.98575.71-56.98545-.20713-13.86639-.6778-27.724-2.705-41.478-.2351-1.595-1.34318-3.52553-.47084-4.69063.76709-1.02455,2.84525-1.03548,4.31711-1.5693,14.76434-5.35507,28.69491-12.50844,42.57456-19.77031.29036-.15192.573-.31855.86252-.47213,1.09992-.58348,2.18717-1.58965,3.30592-1.62655,1.117-.03681,1.44515,1.66886,2.35281,2.38954a5.26426,5.26426,0,0,0,1.09992.80557c11.22158,4.7882,20.67431,12.18087,29.51928,20.36775,19.45609,18.00843,35.65319,38.52241,47.13852,62.54466,4.03168,8.43253,7.13528,17.1928,8.20009,26.55563a2.0131,2.0131,0,0,0,1.49478,1.82183,9.05277,9.05277,0,0,0,6.90185-.36045c9.27319-3.798,16.981-17.78726,15.15584-27.59422a13.82336,13.82336,0,0,0-6.2883-9.3743c-3.02351-1.96869-6.14016-3.811-9.046-5.94078-8.07878-5.92118-11.60989-13.965-10.8312-23.941.91682-11.74529,4.572-22.46833,12.0795-31.66094,4.37964-5.36275,9.82457-9.07015,17.01677-9.5092a17.13291,17.13291,0,0,1,2.55887.04876c5.355.47849,8.22336,4.98821,6.366,10.02732a10.35852,10.35852,0,0,1-4.69325,5.37561,36.81564,36.81564,0,0,0-12.4956,11.51921c-3.779,5.82782-5.30507,12.10271-3.27437,18.94123a19.38449,19.38449,0,0,0,6.71937,9.73145q1.99844,1.59863,4.11987,3.04251c12.65327,8.60271,17.42608,24.3472,11.76511,39.06115-6.28536,16.33681-17.923,27.136-34.34673,32.8901-2.36975.83025-4.90761.85522-7.39,1.08927a2.07934,2.07934,0,0,0-1.73307.69182c-4.11644,5.50626-9.96155,8.02917-16.38456,9.7575C358.582,330.7731,347.36345,331.65577,336.4405,331.69615Z" transform="translate(0 0)"/><path class="cls-1" d="M164.54,128.40358c-10.25929-1.83555-20.05437-4.96134-29.79553-8.2506-12.35095-4.1705-24.52176-8.83243-36.60567-13.7212-.77864-.315-1.4725-.40159-1.157-1.71647,6.39365-26.64533,13.1885-53.17166,23.06388-78.79446a103.71628,103.71628,0,0,1,8.58751-17.86626,25.01769,25.01769,0,0,1,5.09619-6.22434c3.61368-2.98789,6.87193-2.29735,8.89841,1.924,1.8541,3.86222,2.29864,8.05878,2.59622,12.25a68.14884,68.14884,0,0,1,.12461,10.83473c-.12013,1.35787.3203,1.61069,1.60163,1.599a82.25476,82.25476,0,0,1,17.64159,1.41237,13.78177,13.78177,0,0,1,8.70688,5.58645,103.04052,103.04052,0,0,1,9.281,15.963,2.67192,2.67192,0,0,0,2.92284,1.83852c9.40047-.22777,18.797-.15756,28.04913,1.8701,9.04927,1.98319,11.66957,5.16988,11.63046,14.41067a48.09276,48.09276,0,0,1-4.17864,19.489,17.21744,17.21744,0,0,1-7.84229,8.26187c-6.95527,3.793-14.46408,6.12645-22.01553,8.3285-5.09464,1.48563-10.21165,2.9037-15.3533,4.21617a12.94971,12.94971,0,0,0-8.906,7.66643A24.52627,24.52627,0,0,0,164.54,128.40358Z" transform="translate(0 0)"/><path class="cls-2" d="M304.8518,137.07123c-.05271,6.93936-1.819,12.01575-2.764,17.23558a58.69836,58.69836,0,0,0-1.3162,13.29957,2.40229,2.40229,0,0,1-1.4228,2.45566c-12.41209,7.61152-25.714,13.26519-39.434,18.0028-2.60079.89806-5.27108,1.60617-7.83606,2.59241-1.48426.57072-2.12249.35335-2.652-1.21285a35.2668,35.2668,0,0,0-5.77747-10.67018,16.24908,16.24908,0,0,0-8.37078-5.91258,13.40913,13.40913,0,0,1-7.634-6.1856,34.42239,34.42239,0,0,1-5.01995-21.07753,5.226,5.226,0,0,1,2.39782-3.8502,56.4381,56.4381,0,0,0,9.908-9.55343,23.78889,23.78889,0,0,0,4.5313-8.44165c1.01012-3.934,3.52832-6.31253,7.02779-7.93609a37.01294,37.01294,0,0,1,14.86519-3.39562c3.58236-.07648,5.47094-1.1608,6.78594-4.69579a67.7178,67.7178,0,0,1,8.82056-16.1895,21.83718,21.83718,0,0,1,4.10255-4.5c3.04932-2.38257,5.53347-2.12861,7.99936.87782a27.0181,27.0181,0,0,1,4.153,7.98823,68.50761,68.50761,0,0,1,3.208,11.13275c1.27382,6.80216,3.71327,13.22555,6.06512,19.68893C303.885,130.56,304.89062,134.49883,304.8518,137.07123Z" transform="translate(0 0)"/></svg>