<svg id="Capa_1" data-name="Capa 1" xmlns="http://www.w3.org/2000/svg" viewBox="0 0 1454.86 1519.61"><defs><style>.cls-1{fill:#6093e8;}.cls-2{fill:#0e1e39;}.cls-3{fill:#fefefe;}</style></defs><title>pets</title><path d="M522.1,198c-4.08.86-4.85,4.21-6.56,6.71-36.74,53.84-49.22,112.58-44.15,174.16,4.05,49.17,41.06,83.34,100.35,96.38,29.9,6.58,60.3,7.93,90.87,6.63,7.79-.33,11,1.21,12.91,7.84,4,14,14.9,24.33,26.06,34.46,47.09,42.73,101.87,77.16,157.75,110.46q41.59,24.8,81.55,51.59c8.18,5.5,9.77,8-.64,13.36q-76.68,39.48-153,79.49c-142.85,74.66-222,184.68-245.11,326.67-.76,4.66-.81,7.77-8.42,7.88-31.14.42-48.18,11-58.32,37.23-11.19,28.95-16.79,59.21-25.37,88.78-6.4,22-12.25,44.17-18.74,66.16-12.11,41-42.07,65-91,69.43-39.76,3.61-79.7,5.09-119-3.07-35.91-7.45-61.31-30.22-65.59-58.14-3.7-24.16,8-42.89,29-57.86,17.82-12.74,38.84-20.24,60.5-26.25,9.87-2.74,14.8-6.94,15.39-16.38,1.46-23.71,3.93-47.37,6.12-71,3.8-41.23-6-80.23-24.9-117.89-22-43.88-42.38-88.2-53.06-135.5-27.43-121.37-10.57-236.88,59.39-345.56C270,509.5,292.66,475.81,314,441.5c15-24.1,5.58-38.87-25.6-43.81-26.79-4.24-54-.46-80.78-3.61-30-3.53-59.16-9.31-87-19.93-50.23-19.18-76.58-53-82-99.86-1.68-14.51-3.07-29.05-4.77-43.57-1.57-13.43-6.17-25.85-16.64-36.26a128.37,128.37,0,0,1-8.58-9.69c-15.51-18.92-10-36.35,14.69-46.13,18.53-7.32,38.18-7.34,57.61-4.51,33.26,4.85,66.49,9.09,100.33,6.85a410.13,410.13,0,0,0,62.48-8.51C268.21,127,286.14,114.29,299.47,96s28-35.17,47.33-48.94C386.27,18.94,432.33,5.22,482.43,1.33c63.72-4.93,124.23,3,176.89,37.61,39.41,25.89,65.4,60.77,86.43,98.8,24.56,44.43,40.18,91.87,61.32,137.46,7,15.09,14.95,29.85,22.26,44.84a111.24,111.24,0,0,1,9.43,29.31c3.91,21.68-4,39.26-23.41,53.33C790,421.11,759.58,427,727.92,427.83c-44,1.17-87.57-2.7-129.36-15.72-49.11-15.31-83.12-43.05-91.89-89.35-7.16-37.81-3.78-75.1,12-111.23,1.65-3.79,2.84-7.73,4.11-11.64C523,199.38,522.36,198.69,522.1,198ZM355.17,155.91c14.36,7.51,37.48,4,50-7.55,11.16-10.33,12.31-26.06,2.72-37.42C397,98.05,373.78,92.72,357.14,99.29c29.21,6.74,40.3,15.65,38.59,31C394.09,145.11,380,154,355.17,155.91Zm169.31,39-.68-.68-.71.65,1,.69Z"/><path class="cls-1" d="M522.1,198c-4.08.86-4.85,4.21-6.56,6.71-36.74,53.84-49.22,112.58-44.15,174.16,4.05,49.17,41.06,83.34,100.35,96.38,29.9,6.58,60.3,7.93,90.87,6.63,7.79-.33,11,1.21,12.91,7.84,4,14,14.9,24.33,26.06,34.46,47.09,42.73,101.87,77.16,157.75,110.46q41.59,24.8,81.55,51.59c8.18,5.5,9.77,8-.64,13.36q-76.68,39.48-153,79.49c-142.85,74.66-222,184.68-245.11,326.67-.76,4.66-.81,7.77-8.42,7.88-31.14.42-48.18,11-58.32,37.23-11.19,28.95-16.79,59.21-25.37,88.78-6.4,22-12.25,44.17-18.74,66.16-12.11,41-42.07,65-91,69.43-39.76,3.61-79.7,5.09-119-3.07-35.91-7.45-61.31-30.22-65.59-58.14-3.7-24.16,8-42.89,29-57.86,17.82-12.74,38.84-20.24,60.5-26.25,9.87-2.74,14.8-6.94,15.39-16.38,1.46-23.71,3.93-47.37,6.12-71,3.8-41.23-6-80.23-24.9-117.89-22-43.88-42.38-88.2-53.06-135.5-27.43-121.37-10.57-236.88,59.39-345.56C270,509.5,292.66,475.81,314,441.5c15-24.1,5.58-38.87-25.6-43.81-26.79-4.24-54-.46-80.78-3.61-30-3.53-59.16-9.31-87-19.93-50.23-19.18-76.58-53-82-99.86-1.68-14.51-3.07-29.05-4.77-43.57-1.57-13.43-6.17-25.85-16.64-36.26a128.37,128.37,0,0,1-8.58-9.69c-15.51-18.92-10-36.35,14.69-46.13,18.53-7.32,38.18-7.34,57.61-4.51,33.26,4.85,66.49,9.09,100.33,6.85a410.13,410.13,0,0,0,62.48-8.51C268.21,127,286.14,114.29,299.47,96s28-35.17,47.33-48.94C386.27,18.94,432.33,5.22,482.43,1.33c63.72-4.93,124.23,3,176.89,37.61,39.41,25.89,65.4,60.77,86.43,98.8,24.56,44.43,40.18,91.87,61.32,137.46,7,15.09,14.95,29.85,22.26,44.84a111.24,111.24,0,0,1,9.43,29.31c3.91,21.68-4,39.26-23.41,53.33C790,421.11,759.58,427,727.92,427.83c-44,1.17-87.57-2.7-129.36-15.72-49.11-15.31-83.12-43.05-91.89-89.35-7.16-37.81-3.78-75.1,12-111.23,1.65-3.79,2.84-7.73,4.11-11.64C523,199.38,522.36,198.69,522.1,198ZM355.17,155.91c14.36,7.51,37.48,4,50-7.55,11.16-10.33,12.31-26.06,2.72-37.42C397,98.05,373.78,92.72,357.14,99.29c29.21,6.74,40.3,15.65,38.59,31C394.09,145.11,380,154,355.17,155.91Zm169.31,39-.68-.68-.71.65,1,.69Z"/><path class="cls-2" d="M1377.21,1338.22c-9.37,4.66-16.53,8.85-24.29,11.88-8.11,3.17-7.29,6.6-3.43,12.38,13.89,20.79,33.46,37.53,51.22,55.58,3.28,3.33,6.46,6.73,9.52,9.93-.54,1-.81,2-1.12,2-14,.56-18.84,7.48-23.29,18.77-11.56,29.27-36.69,48-69.54,59.5-8.18,2.86-8-1.06-8.93-5.81-11.63-57.86-42.92-105.13-100.5-137.58-40.78-23-86.9-29.22-134.45-30.29-77.16-1.73-153.94,5-230.91,7.56-44.19,1.45-88.43,1.78-131.85-7.51-58.33-12.49-85.57-41.8-90.95-94.06-4.08-39.66-6.21-79.3-4.22-119,4.9-97.87,37.41-186.71,115.76-260.08,45.19-42.33,98.88-74.83,156.76-102.58,30.11-14.43,60.26-28.75,88.87-45.49,48.2-28.21,76.54-66.73,85-116.7a587.27,587.27,0,0,1,44.8-147.16,179.58,179.58,0,0,1,11.76-22.16c10.11-15.81,32.67-19.12,47.43-6.14,6.61,5.81,9.7,3.41,13.43-1,5.79-6.82,10.85-14.11,16.64-20.93,14.7-17.33,38.45-17.38,53,.09,4.3,5.17,7.48,11.13,10.46,17,7,13.84,19.23,21.9,35.9,25.24,9.9,2,19.79,4,29.76,5.73,19.51,3.32,34.52,12.52,45.55,26.51,7.72,9.8,14.78,20,21.73,30.22a99,99,0,0,0,42.57,35.41c19.87,8.9,22.75,15.23,20.14,34.55a194.07,194.07,0,0,1-12.55,48.49c-7,16.9-19.7,27.85-39.54,33.27-23.56,6.44-46.43,14.27-65.76,28.31-15.27,11.09-16,14.09-4,28.43,10.52,12.64,21.65,24.78,27.33,40.07,13.06,35.2,9,70.36,1,105.6-9.69,42.87-29.92,82.7-47.37,123.34-11.49,26.76-20.41,54-23.25,82.74-4.79,48.38,22.48,90.28,73.15,110.62,5.32,2.13,10.62,4.32,16,6.28,22.09,8,32.27,23.25,32.85,43.14.57,19.63-10.06,34.54-29.7,44.26-14.19,7-29.84,10.36-46,10.76-17.58.44-35.2-.3-52.8-.38-7.42,0-14.88-.06-22.25.57-7.91.69-13.27,5-13.9,11.78-.57,6.24,4.73,9.74,11.24,11.42,10.1,2.61,20.17,5.42,30.44,7.46C1319.11,1316.27,1347.66,1326,1377.21,1338.22Zm-634.12-86.08c7.32,13.78,18.49,20.38,34.21,21.1a303.83,303.83,0,0,0,38.63-1c33.52-2.75,67.06-5.27,99.88-7.83ZM1277.34,536c13,9.46,28.44,9.42,39,.69,9-7.49,10.1-18.58,2.59-26.54-8.11-8.6-23.29-10.3-33.88-3.79,18.4,1.8,25.37,7.52,23.29,19.08C1306.63,534.67,1294.77,539,1277.34,536Z"/><path class="cls-3" d="M933.11,689.76l-.36.65-1-.68.72-.65Z"/></svg>