<?xml version="1.0" encoding="utf-8"?>
<!-- Generator: Adobe Illustrator 16.0.3, SVG Export Plug-In . SVG Version: 6.00 Build 0)  -->
<!DOCTYPE svg PUBLIC "-//W3C//DTD SVG 1.1//EN" "http://www.w3.org/Graphics/SVG/1.1/DTD/svg11.dtd">
<svg version="1.1" id="Capa_1" xmlns="http://www.w3.org/2000/svg" xmlns:xlink="http://www.w3.org/1999/xlink" x="0px" y="0px"
	 width="24px" height="24px" viewBox="0 0 24 24" enable-background="new 0 0 24 24" xml:space="preserve">
<path fill="none" d="M0,0h24v24H0V0z"/>
<path fill="#272727" d="M6.54,5C6.6,5.89,6.75,6.76,6.99,7.59l-1.2,1.2C5.38,7.59,5.12,6.32,5.03,5H6.54 M16.4,17.02
	c0.85,0.24,1.72,0.391,2.6,0.45v1.49c-1.32-0.09-2.59-0.351-3.8-0.75L16.4,17.02 M7.5,3H4C3.45,3,3,3.45,3,4c0,9.391,7.61,17,17,17
	c0.55,0,1-0.45,1-1v-3.49c0-0.55-0.45-1-1-1c-1.24,0-2.45-0.199-3.57-0.57c-0.1-0.039-0.209-0.049-0.31-0.049
	c-0.261,0-0.511,0.1-0.71,0.289l-2.2,2.2c-2.83-1.45-5.15-3.76-6.59-6.59l2.2-2.2C9.1,8.31,9.18,7.92,9.07,7.57
	C8.7,6.45,8.5,5.25,8.5,4C8.5,3.45,8.05,3,7.5,3z"/>
<polygon fill="#272727" points="4.438,4.625 6.938,4.625 7.75,7.906 5.813,9.156 "/>
<polygon fill="#272727" points="15.625,16.563 14.781,18.063 17.844,19.469 19.688,19.469 19.688,16.813 "/>
</svg>
