<svg id="Capa_1" data-name="Capa 1" xmlns="http://www.w3.org/2000/svg" viewBox="0 0 980.00001 781.17616"><defs><style>.cls-1{fill:#255697;}.cls-2{fill:#344966;}.cls-3{fill:#777;}.cls-4{fill:#1f77b9;}.cls-5{fill:#211915;stroke:#000;stroke-miterlimit:10;stroke-width:3px;}.cls-6{fill:#34599f;}</style></defs><title>photo_step</title><path class="cls-1" d="M230.22378,443.07783c-.0522-137.19253,111.94133-249.33226,249.02034-249.34544C616.95258,193.71914,728.907,305.42622,728.9383,442.87486c.03131,137.6846-111.96246,249.38614-249.99295,249.34061C342.22812,692.17036,230.27593,580.0309,230.22378,443.07783ZM479.72654,651.61061C595.1933,651.27608,688.55005,557.72609,688.1966,442.709c-.35455-115.38272-93.90894-208.70067-208.98328-208.45519-115.07144.24547-208.60159,94.2018-208.26022,209.20919C271.29444,558.4626,365.05576,651.94288,479.72654,651.61061Z"/><path class="cls-2" d="M0,659.17616q0-214.5,0-429c1.2913-.45285.90989-1.60464,1.00738-2.51622a165.87136,165.87136,0,0,1,4.05372-23.58307C11.932,177.26132,24.6816,154.339,48.89585,139.29913c17.81568-11.06564,37.5601-14.76993,58.23006-14.30185,3.536.08008,4.48729-1.00664,4.44017-4.47065-.20385-14.98507-.16063-29.97387-.15509-44.96131.00383-10.36964,3.09375-13.46472,13.31207-13.46551,48.2953-.00375,96.59074-.05236,144.88559.09636,3.78686.01165,5.92221-1.19879,8.10022-4.19917,9.27771-12.78087,17.67453-26.25074,28.4566-37.88136C316.1359,9.36049,327.73707,1.37012,342.90387.0044A17.149,17.149,0,0,0,344.876.2259Q486.75435.20883,628.63263.16412c2.822-.00089,5.644-.107,8.466-.16412a49.60927,49.60927,0,0,1,24.08166,8.75007,86.78952,86.78952,0,0,1,21.99829,21.58516q32.19105,44.77409,64.05323,89.78382c2.41729,3.41323,4.81579,4.95523,9.25836,4.93632,41.47168-.17656,82.95215-.5161,124.41479.15,32.99213.53,59.89948,13.76959,78.4184,41.92306,9.36645,14.23926,14.52655,30.11011,17.74371,46.73964,1.04981,5.4265.6723,11.10838,2.933,16.30812v430c-1.52039.57465-.93067,1.95215-1.06751,2.99219-1.739,13.22088-4.77856,26.13629-10.11932,38.361-16.81989,38.49921-44.117,65.37793-85.64179,76.06451-6.28174,1.61664-12.77563,2.40882-19.17138,3.58234h-4c-1.12671-1.98651-3.00159-.94873-4.48365-.949q-366.26706-.08342-732.53406-.02924c-1.34159.00018-3.04264-.88361-3.98229.97827h-5c-.55349-1.57294-1.94112-.92334-2.97577-1.04663a107.06457,107.06457,0,0,1-26.63986-6.22375C42.34725,757.39784,17.228,725.93855,5.08953,683.29652,2.84521,675.41237,1.66913,667.22407,0,659.17616Zm490.027,79.74878q182.48185,0,364.96372.03345c23.2171.01367,42.45593-8.72107,57.84912-25.79541,17.76758-19.70813,25.38537-43.26123,25.38684-69.57074q.01117-196.48032.10663-392.96071c.00561-14.381-1.01306-28.63622-5.42408-42.42465-5.803-18.13951-15.82635-32.55291-35.00305-38.61586-8.20385-2.59372-16.68445-3.051-25.18841-3.06044q-60.244-.06714-120.48792.00262c-15.69562.02683-27.84833-6.389-36.88434-19.17184q-30.26394-42.81256-60.69757-85.50521a109.09666,109.09666,0,0,0-12.41662-14.98051,18.53231,18.53231,0,0,0-13.85834-5.53959c-89.82416.12944-179.65054.37525-269.47086-.22849-12.81948-.08617-21.28878,4.19307-27.91735,14.21569-.9173,1.387-1.95539,2.69379-2.92933,4.04366Q296.05982,103.711,264.07618,148.0638c-8.80384,12.22886-20.62514,18.47946-35.729,18.44845-6.49933-.01334-12.99871-.00183-19.49806-.0018-34.66321.00014-69.32694-.11777-103.98947.03494-31.93985.14072-50.98894,15.119-59.05944,45.9816a115.56294,115.56294,0,0,0-3.84366,29.14113Q41.80217,347.40675,41.79,453.14558q-.03468,94.49058-.044,188.98108c-.0187,13.27686,1.70242,26.17908,6.16393,38.7226,13.38216,37.624,42.25907,58.07568,82.153,58.07568Q310.04493,738.92494,490.027,738.92494Zm-244.5711-636.44c-30.91085,0-60.70685.02923-90.50255-.05223-2.54585-.007-3.06235.954-3.00838,3.221.12689,5.32977.17038,10.66914-.01449,15.99551-.09177,2.64395.77088,3.36464,3.3858,3.35423,23.66392-.09428,47.32837-.06508,70.99261-.03484,1.752.00225,3.17316-.21529,4.3068-1.8233C235.30065,116.49975,240.09285,109.92974,245.45585,102.48494Z"/><path class="cls-3" d="M119,781.17616c.93965-1.86188,2.6407-.97809,3.98229-.97827q366.267-.04652,732.53406.02924c1.48206.0003,3.35694-1.03748,4.48365.949Z"/><path class="cls-4" d="M322.52436,439.87694c-.15906-88.13141,71.62787-160.16257,159.90887-160.45288,88.31787-.29044,160.51026,71.72985,160.61481,160.23208.10449,88.43347-71.9278,160.48621-160.39932,160.44489C394.46937,600.05983,322.68381,528.22957,322.52436,439.87694Zm26.173.03686c.12665,74.006,60.29813,134.18179,134.11994,134.12961,73.84094-.05219,134.14843-60.35535,134.1759-134.16617.02759-74.07037-60.68256-134.73386-134.45862-134.35519C408.40934,305.90245,348.57081,365.9889,348.69733,439.9138Z"/><path class="cls-4" d="M815.7157,216.99472c20.73047-.0974,37.20844,16.43928,37.324,37.45708A37.03811,37.03811,0,0,1,816.35322,292.035c-20.7721.2424-38.17481-16.412-38.34339-36.69483A37.7694,37.7694,0,0,1,815.7157,216.99472Z"/><path class="cls-5" d="M938.33328,234.25333"/><path class="cls-5" d="M41.95653,241.66812"/><path class="cls-6" d="M482.61388,436.78179a54.48483,54.48483,0,0,1,32.41366,10.6288,43.41094,43.41094,0,0,1,12.84053,14.741c1.49625,2.87332,3.59559,5.363,4.98038,8.3109,4.067,8.65793,5.97968,17.63287,3.98751,27.13844-1.63769,7.81423-5.54389,14.10468-12.937,17.74176-4.68857,2.30659-9.486,2.0724-14.25965.19621-4.36381-1.71509-8.18546-4.39355-12.10474-6.89454a82.05193,82.05193,0,0,0-9.25083-5.411,6.166,6.166,0,0,0-2.38813-.65653c-2.15575-.08237-4.32112-.02193-6.46828-.19589-4.00519-.3245-7.13369,1.77681-10.35886,3.594-4.52234,2.548-8.86449,5.40089-13.48475,7.79121-12.07382,6.24649-22.55774.76084-27.64878-9.55085-4.08741-8.27888-3.67709-16.91409-1.11634-25.52718a44.8928,44.8928,0,0,1,7.86537-15.173c1.449-1.83375,2.3032-4.088,3.6901-5.99966,8.08082-11.13805,19.10357-17.44059,32.51066-19.83973A65.74809,65.74809,0,0,1,482.61388,436.78179Zm-.9658,4.96912a52.16205,52.16205,0,0,0-18.05681,2.9326c-9.89018,3.56191-17.798,9.56378-23.04879,18.81907a22.52127,22.52127,0,0,1-1.93819,3.11611,39.44115,39.44115,0,0,0-7.52119,15.30523c-1.71506,6.7269-1.82251,13.41911,1.18809,19.84283,2.16819,4.62624,5.50818,8.13273,10.65984,9.37165,3.87986.93307,7.45709-.29725,10.88255-2.0428,4.54473-2.31588,8.77011-5.18334,13.21148-7.67668,2.47024-1.38676,4.88093-3.09938,7.70489-3.52432,7.03722-1.059,13.95758-1.01647,20.143,3.14287.78531.52808,1.57066,1.05606,2.379,1.54821,3.82574,2.32936,7.46075,4.9682,11.43688,7.05355,3.17944,1.66753,6.502,2.95422,10.13928,2.15061,6.10112-1.348,9.82712-5.51818,11.97613-11.0924,3.26723-8.4747,2.03765-16.83389-1.07814-25.10011-1.66285-4.41154-4.69541-8.01813-6.85145-12.13408a32.96952,32.96952,0,0,0-6.662-8.55081C506.52839,445.71077,494.76711,441.93261,481.64808,441.75091Z"/><path class="cls-6" d="M532.65764,394.12777c.018,8.79971-2.252,16.88345-8.0743,23.66638-4.54313,5.29272-10.22449,8.38432-17.40781,7.85191-6.7231-.49827-11.79588-4.034-15.70481-9.27045-6.09843-8.16956-7.85911-17.49405-6.69438-27.4463a33.24866,33.24866,0,0,1,8.08535-18.73774c4.53325-5.08858,10.09217-8.06419,17.09564-7.587,6.089.41493,10.86182,3.43651,14.721,7.96714,5.01117,5.88307,7.378,12.8449,7.96841,20.46812C532.726,392.06331,532.65764,393.09818,532.65764,394.12777Zm-43.27489.2029c.05068.91472.065,2.19442.20117,3.461.73167,6.80523,2.95188,12.9816,7.828,17.97562,6.1759,6.32527,14.74327,6.71238,21.37143.90877,4.82-4.22042,7.31068-9.75549,8.403-15.9413,1.53925-8.7163.40262-17.02114-4.44112-24.57541-2.61471-4.07789-6.10478-7.2125-10.99758-8.26782-6.52916-1.40827-11.61932,1.23584-15.68576,6.12C491.26664,379.77111,489.53337,386.62154,489.38275,394.33067Z"/><path class="cls-6" d="M478.10714,394.07646c-.15263,8.94657-2.42918,17.17186-8.4701,24.01284-4.55193,5.15478-10.19305,8.114-17.247,7.54975-6.77274-.54178-11.82278-4.17106-15.7544-9.45668a35.63421,35.63421,0,0,1-6.86579-21.62464c-.05967-9.18868,2.36918-17.56523,8.57429-24.53811,4.45488-5.00609,9.989-7.86977,16.8734-7.41886,5.9163.3875,10.6258,3.237,14.44565,7.59635C475.63865,377.01653,477.94063,385.17931,478.10714,394.07646Zm-43.374.01808a32.8816,32.8816,0,0,0,2.21365,12.52884c1.92713,4.9532,4.81154,9.21182,9.46038,12.03108,6.55957,3.978,14.61471,2.253,19.957-4.25942,4.89308-5.96483,6.78791-12.95373,6.73923-20.522-.04731-7.35622-1.952-14.14477-6.69517-19.94848-6.73133-8.23635-17.069-8.62233-24.24065-.80552C436.74252,379.03207,434.84659,386.26842,434.7331,394.09454Z"/><path class="cls-6" d="M393.00117,436.13887a32.64646,32.64646,0,0,1,7.5959-20.89526,19.14913,19.14913,0,0,1,29.61737-.03287c6.24777,7.29346,8.16923,15.89736,7.45778,25.23147a32.22,32.22,0,0,1-6.04913,16.78271c-5.411,7.471-14.437,10.55921-22.55993,7.54363-5.83-2.16436-9.72753-6.459-12.46657-11.879C394.0748,447.89954,393.02725,442.54793,393.00117,436.13887ZM432.899,437.03a29.59513,29.59513,0,0,0-4.84624-16.62362c-6.28692-9.25278-17.60266-9.6943-24.51909-.92626-7.22115,9.15438-7.4218,25.2841-.431,34.64609,7.00268,9.37784,18.67035,9.03763,25.15463-.726C431.51139,448.50033,432.773,443.03476,432.899,437.03Z"/><path class="cls-6" d="M572.68914,437.869c-.19038,7.24138-2.14514,14.58617-7.43266,20.7762-8.70742,10.19364-23.18158,9.573-31.11025-1.33088-5.11461-7.03386-6.80494-14.979-6.14279-23.50908a32.5906,32.5906,0,0,1,6.07549-16.92476c5.3357-7.37922,14.13858-10.48769,22.28625-7.626,5.97032,2.09694,9.9486,6.45781,12.73,11.98723A36.24823,36.24823,0,0,1,572.68914,437.869Zm-39.88338-.77876a29.2747,29.2747,0,0,0,4.86535,16.67709c6.24269,9.141,17.43679,9.6305,24.34974,1.04044a26.39834,26.39834,0,0,0,5.52979-14.77488c.57721-6.92966-.61013-13.48779-4.51844-19.371-6.64368-10.00085-18.87384-9.979-25.55023-.00755C534.14426,425.63939,532.89156,431.19271,532.80576,437.09027Z"/></svg>