<?xml version="1.0" encoding="utf-8"?>
<!-- Generator: Adobe Illustrator 16.0.3, SVG Export Plug-In . SVG Version: 6.00 Build 0)  -->
<!DOCTYPE svg PUBLIC "-//W3C//DTD SVG 1.1//EN" "http://www.w3.org/Graphics/SVG/1.1/DTD/svg11.dtd">
<svg version="1.1" id="Capa_1" xmlns="http://www.w3.org/2000/svg" xmlns:xlink="http://www.w3.org/1999/xlink" x="0px" y="0px"
	 width="200px" height="200px" viewBox="0 0 200 200" enable-background="new 0 0 200 200" xml:space="preserve">
<g id="Capa_1_1_">
	<path fill="#FFFFFF" d="M100.046,192.21c-50.966-0.009-92.181-41.207-92.185-92.147C7.858,48.999,49.099,7.824,100.21,7.865
		c50.944,0.041,92.101,41.276,92.074,92.253C192.257,151.051,151.023,192.219,100.046,192.21z M16.259,99.934
		c0.274,3.396,0.229,6.705,0.645,10.014c2.632,20.915,11.854,38.364,27.382,52.558c0.995,0.909,1.513,1.114,2.196-0.35
		c2.491-5.344,5.957-10.004,10.393-13.893c1.208-1.058,0.941-1.408-0.305-2.074c-6.677-3.567-12.707-8-18-13.446
		c-1.965-2.023-3.219-4.142-2.78-7.062c0.229-1.525,0.271-3.08,0.382-4.621c0.885-12.289,4.068-23.938,9.916-34.803
		c0.983-1.827,1.211-3.383,0.59-5.4c-4.627-15.027,1.007-28.477,11.729-36.927c1.49-1.174,2.496-1.213,3.884,0.225
		c4.455,4.615,9.075,9.069,13.57,13.646c0.956,0.972,1.776,1.157,3.103,0.75c14.058-4.316,28.149-4.282,42.21-0.018
		c1.319,0.4,2.145,0.262,3.105-0.723c3.912-4.012,7.904-7.947,11.871-11.906c3.877-3.871,3.918-3.909,7.945,0.015
		c10.18,9.918,13.344,21.702,9.286,35.37c-0.331,1.114-0.833,2.185-0.149,3.398c6.67,11.837,9.885,24.655,11.023,38.119
		c0.37,4.369-0.229,7.92-3.721,11.086c-5.229,4.738-10.693,9.041-16.989,12.229c-1.295,0.655-1.718,1.014-0.333,2.194
		c4.432,3.781,7.805,8.43,10.354,13.649c0.644,1.315,1.052,1.69,2.309,0.543c16.23-14.813,25.646-33.145,27.604-54.989
		c1.639-18.27-2.32-35.433-11.928-51.217c-22.488-36.95-70.629-50.992-108.979-31.068C32.532,40.844,17.564,66.312,16.259,99.934z"
		/>
</g>
<g id="Capa_2">
</g>
<g id="Capa_3">
</g>
</svg>
