<?xml version="1.0" encoding="utf-8"?>
<!-- Generator: Adobe Illustrator 16.0.3, SVG Export Plug-In . SVG Version: 6.00 Build 0)  -->
<!DOCTYPE svg PUBLIC "-//W3C//DTD SVG 1.1//EN" "http://www.w3.org/Graphics/SVG/1.1/DTD/svg11.dtd">
<svg version="1.1" xmlns="http://www.w3.org/2000/svg" xmlns:xlink="http://www.w3.org/1999/xlink" x="0px" y="0px" width="200px"
	 height="200px" viewBox="0 0 200 200" enable-background="new 0 0 200 200" xml:space="preserve">
<g id="Capa_1">
	<path fill-rule="evenodd" clip-rule="evenodd" fill="#316EED" d="M100.046,192.21c-50.966-0.009-92.181-41.207-92.185-92.147
		C7.858,48.999,49.099,7.824,100.21,7.865c50.945,0.041,92.101,41.276,92.074,92.253
		C192.257,151.051,151.024,192.219,100.046,192.21z M16.259,99.934c0.274,3.396,0.229,6.704,0.645,10.014
		c2.632,20.915,11.854,38.365,27.382,52.558c0.995,0.909,1.513,1.114,2.196-0.35c2.491-5.343,5.957-10.004,10.393-13.892
		c1.208-1.057,0.941-1.408-0.305-2.075c-6.677-3.567-12.707-7.999-18-13.446c-1.965-2.023-3.219-4.142-2.78-7.062
		c0.229-1.525,0.271-3.079,0.382-4.62c0.885-12.29,4.068-23.939,9.916-34.802c0.983-1.827,1.211-3.383,0.59-5.4
		c-4.627-15.027,1.007-28.477,11.729-36.927c1.49-1.174,2.496-1.213,3.884,0.225c4.455,4.615,9.075,9.069,13.57,13.646
		c0.956,0.972,1.776,1.157,3.103,0.75c14.058-4.316,28.15-4.282,42.21-0.018c1.319,0.4,2.144,0.262,3.105-0.723
		c3.913-4.012,7.905-7.947,11.871-11.906c3.878-3.871,3.918-3.909,7.946,0.015c10.179,9.918,13.344,21.702,9.287,35.37
		c-0.331,1.114-0.833,2.185-0.15,3.398c6.669,11.837,9.884,24.655,11.024,38.117c0.37,4.371-0.228,7.921-3.721,11.087
		c-5.227,4.739-10.693,9.04-16.989,12.23c-1.295,0.656-1.718,1.014-0.333,2.196c4.43,3.781,7.803,8.428,10.354,13.649
		c0.643,1.315,1.051,1.69,2.308,0.543c16.231-14.813,25.648-33.145,27.605-54.989c1.637-18.27-2.322-35.433-11.929-51.218
		c-22.488-36.95-70.628-50.992-108.978-31.068C32.532,40.844,17.564,66.312,16.259,99.934z"/>
</g>
<g id="Capa_2">
</g>
<g id="Capa_3">
</g>
</svg>
