<?xml version="1.0" encoding="utf-8"?>
<!-- Generator: Adobe Illustrator 16.0.3, SVG Export Plug-In . SVG Version: 6.00 Build 0)  -->
<!DOCTYPE svg PUBLIC "-//W3C//DTD SVG 1.1//EN" "http://www.w3.org/Graphics/SVG/1.1/DTD/svg11.dtd">
<svg version="1.1" id="Capa_1" xmlns="http://www.w3.org/2000/svg" xmlns:xlink="http://www.w3.org/1999/xlink" x="0px" y="0px"
	 width="100px" height="100px" viewBox="0 0 100 100" enable-background="new 0 0 100 100" xml:space="preserve">
<path fill-rule="evenodd" clip-rule="evenodd" fill="#FFFFFF" d="M100.044,50.019c0,10.031-0.034,20.063,0.013,30.097
	c0.025,5.34-1.7,9.98-5.372,13.837c-3.238,3.402-7.237,5.445-11.946,5.857c-4.422,0.384-8.865,0.078-13.298,0.148
	c-1.008,0.017-2.017,0.026-3.023-0.005c-1.406-0.045-2.307-0.956-2.308-2.357c-0.008-12.646-0.008-25.295,0-37.941
	c0.001-1.392,0.929-2.3,2.338-2.306c3.302-0.015,6.604-0.004,9.905-0.005c1.169,0,1.14-0.005,1.245-1.135
	c0.204-2.201,0.445-4.397,0.671-6.596c0.013-0.125,0.04-0.248,0.051-0.373c0.107-1.157,0.06-1.212-1.079-1.213
	c-3.376-0.001-6.754,0.003-10.131-0.005c-0.426-0.001-0.86-0.027-1.275-0.115c-1.016-0.215-1.708-0.994-1.714-2.022
	c-0.021-3.419-0.067-6.84,0.022-10.258c0.076-2.926,2.486-5.079,5.588-5.116c2.696-0.033,5.394-0.027,8.09,0.005
	c0.644,0.007,0.816-0.214,0.809-0.824c-0.026-2.464-0.024-4.928,0-7.393c0.005-0.578-0.165-0.797-0.772-0.794
	c-4.108,0.022-8.217-0.055-12.324,0.038c-3.288,0.076-6.407,0.846-8.95,3.106c-2.693,2.393-3.862,5.534-4.175,9.018
	c-0.35,3.912-0.089,7.839-0.147,11.759c-0.027,1.792-0.849,2.642-2.629,2.645c-2.622,0.004-5.242,0.021-7.863-0.012
	c-0.692-0.009-0.927,0.21-0.918,0.902c0.031,2.488,0.035,4.979-0.001,7.467c-0.012,0.745,0.261,0.939,0.968,0.93
	c2.621-0.033,5.243-0.017,7.864-0.012c1.7,0.003,2.575,0.862,2.575,2.538c0.002,12.521,0.002,25.043,0,37.566
	c0,1.586-0.886,2.506-2.465,2.507c-10.333,0.007-20.667,0.072-31-0.021C9.351,99.852,1.11,92.229,0.125,82.885
	c-0.087-0.828-0.129-1.653-0.129-2.482c0-20.292-0.001-40.583,0.001-60.874c0.001-9.803,6.94-17.853,16.661-19.314
	c0.893-0.134,1.799-0.2,2.71-0.199c20.415,0.007,40.83-0.004,61.244,0.009c9.651,0.006,17.708,6.909,19.23,16.438
	c0.166,1.042,0.208,2.097,0.208,3.156C100.04,29.751,100.044,39.885,100.044,50.019z M50.05,4.579
	c-10.156,0-20.313,0.005-30.47-0.004c-1.548-0.001-3.065,0.147-4.549,0.604C8.635,7.15,4.48,12.872,4.479,19.766
	c-0.006,19.763-0.002,39.526-0.002,59.29c0,0.93,0.025,1.855,0.098,2.785c0.581,7.514,6.846,13.494,14.371,13.544
	c9.325,0.061,18.65,0.011,27.975,0.027c0.651,0.001,0.874-0.193,0.873-0.86c-0.017-10.637-0.017-21.272,0.001-31.909
	c0.001-0.682-0.235-0.849-0.878-0.842c-2.697,0.03-5.394,0.017-8.091,0.012c-1.634-0.005-2.523-0.887-2.526-2.518
	c-0.006-4.375-0.005-8.75,0-13.125c0.001-1.7,0.859-2.566,2.545-2.571c2.646-0.008,5.292,0.001,7.938-0.007
	c0.997-0.003,0.981-0.017,1.002-0.985c0.068-3.24-0.211-6.491,0.164-9.721c0.445-3.83,1.736-7.332,4.344-10.253
	c3.319-3.72,7.623-5.394,12.488-5.538c5.237-0.155,10.483-0.051,15.725-0.053c1.748,0,2.594,0.849,2.596,2.591
	c0.004,4.199,0.002,8.398,0,12.597c0,1.985-0.852,2.825-2.869,2.827c-3.377,0.004-6.755-0.002-10.132,0.004
	c-1.248,0.003-1.502,0.255-1.509,1.51c-0.013,1.961-0.006,3.922-0.005,5.884c0.001,1.01,0.003,1.013,0.988,1.014
	c3.705,0.002,7.41-0.007,11.114,0.004c1.657,0.005,2.621,1.104,2.453,2.717c-0.178,1.724-0.328,3.451-0.502,5.175
	c-0.28,2.771-0.538,5.549-0.865,8.318c-0.176,1.485-0.991,2.127-2.51,2.129c-3.251,0.004-6.503,0.021-9.753-0.015
	c-0.728-0.008-0.94,0.211-0.939,0.937c0.021,10.56,0.021,21.121,0,31.682c-0.001,0.742,0.184,1.01,0.968,1.001
	c3.806-0.037,7.611-0.02,11.417-0.016c0.91,0.001,1.81-0.081,2.702-0.266c7.079-1.479,11.899-7.489,11.901-14.889
	c0.007-20.166,0.004-40.331-0.007-60.496c0-0.901-0.067-1.813-0.21-2.702C94.138,9.531,87.569,4.456,80.369,4.546
	C70.264,4.675,60.157,4.579,50.05,4.579z"/>
</svg>
