<?xml version="1.0" encoding="utf-8"?>
<!-- Generator: Adobe Illustrator 23.0.6, SVG Export Plug-In . SVG Version: 6.00 Build 0)  -->
<svg version="1.1" id="Capa_1" xmlns="http://www.w3.org/2000/svg" xmlns:xlink="http://www.w3.org/1999/xlink" x="0px" y="0px"
	 viewBox="0 0 379 379" style="enable-background:new 0 0 379 379;" xml:space="preserve">
<style type="text/css">
	.st0{fill:#FFFFFF;}
	.st1{fill:#484B9B;}
	.st2{fill:#E60B55;}
</style>
<path class="st0" d="M197.2,159.3c0-18.9,15.4-34.2,34.2-34.2l86.6,0.3v139.5h-86c0,0-19.6-1.9-34.2,15.8L197.2,159.3z"/>
<path class="st0" d="M187.1,281.3c-14.6-17.7-34.2-15.8-34.2-15.8h-86V126l86.6-0.3c18.9,0,34.2,15.4,34.2,34.2L187.1,281.3z"/>
<g>
	<path class="st1" d="M232.1,114.3c-17.1,0-32,9.6-39.6,23.7c-7.6-14.1-22.5-23.7-39.6-23.7H56.1v161.1h96.8
		c18.9,0,34.2,15.4,34.2,34.2v0.4h10.8v-0.4c0-18.9,15.4-34.2,34.2-34.2h96.8V114.3H232.1z M318.1,264.6h-86
		c-13.7,0-26,6.1-34.2,15.8V159.3c0-18.9,15.4-34.2,34.2-34.2h86V264.6z M187.1,280.4c-8.3-9.7-20.5-15.8-34.2-15.8h-86V125.1h86
		c18.9,0,34.2,15.4,34.2,34.2V280.4z"/>
	<rect x="80.2" y="230" class="st1" width="74.1" height="11.4"/>
	<rect x="232.8" y="135.4" class="st1" width="74.1" height="10.8"/>
	<rect x="232.8" y="156.2" class="st1" width="74.1" height="10.8"/>
	<rect x="232.8" y="177.1" class="st1" width="74.1" height="10.8"/>
</g>
<g>
	<g>
		<path class="st2" d="M298.3,208c-2-2-4.6-3.1-7.5-3.1c-0.5,0-1,0-1.5,0.1c0.5-3.3-0.6-6.6-3-9c-2-2-4.6-3.1-7.5-3.1
			s-5.5,1.1-7.5,3.1c-1.9,1.9-3,4.4-3.1,7c-0.1,2.2,0.5,4.3,1.6,6.2l-23.4,23.4c-1.8-1.3-4-2.1-6.3-2.1c-2.8,0-5.5,1.1-7.5,3.1
			c-2,2-3.1,4.6-3.1,7.5s1.1,5.5,3.1,7.5c2,2,4.6,3.1,7.5,3.1c0.5,0,1,0,1.5-0.1c-0.5,3.3,0.6,6.6,3,9c2,2,4.6,3.1,7.5,3.1
			c2.8,0,5.5-1.1,7.5-3.1c2-2,3.1-4.6,3.1-7.4c0-2.3-0.7-4.5-2.1-6.4l23.2-23.2c1.9,1.6,4.3,2.5,6.8,2.5c2.8,0,5.5-1.1,7.5-3.1
			C302.4,218.8,302.4,212.1,298.3,208z M296.3,220.9c-1.5,1.5-3.4,2.3-5.5,2.3c-2.1,0-4-0.8-5.5-2.3c-0.1-0.1-0.2-0.2-0.3-0.3
			c-0.3-0.3-0.6-0.5-1-0.5c-0.4,0-0.8,0.1-1,0.4l-25.1,25.1c-0.5,0.5-0.5,1.4,0,2c2.9,3,2.9,7.9-0.1,10.9c-1.5,1.5-3.4,2.3-5.5,2.3
			c-2.1,0-4-0.8-5.5-2.3c-2.2-2.2-2.9-5.6-1.7-8.5c0.2-0.5,0.1-1.1-0.3-1.5c-0.3-0.3-0.6-0.4-1-0.4c-0.2,0-0.4,0-0.5,0.1
			c-0.9,0.4-2,0.6-3,0.6c-2.1,0-4-0.8-5.5-2.3c-1.5-1.5-2.3-3.4-2.3-5.5c0-2.1,0.8-4,2.3-5.5c1.5-1.5,3.4-2.3,5.5-2.3
			c2,0,3.9,0.8,5.4,2.2c0.5,0.5,1.4,0.5,2,0l25.1-25.1c0.5-0.5,0.5-1.3,0.1-1.9c-2.6-3.1-2.3-7.6,0.5-10.4c1.5-1.5,3.4-2.3,5.5-2.3
			c2.1,0,4,0.8,5.5,2.3c2.2,2.2,2.9,5.6,1.7,8.5c-0.2,0.5-0.1,1.1,0.3,1.5c0.4,0.4,1,0.5,1.5,0.3c0.9-0.4,2-0.6,3-0.6
			c2.1,0,4,0.8,5.5,2.3C299.3,213,299.3,217.9,296.3,220.9z"/>
	</g>
</g>
<g>
	<g>
		<path class="st2" d="M157.1,185.8c-1,0-1.8,0.8-1.8,1.7c0,13.2-11,23.9-24.5,23.9c-13.5,0-24.5-10.7-24.5-23.9v-3.7l9.9-17.9
			c7.1-4.9,10.5-13.6,9.4-24.4c2.5-0.8,4.4-3.1,4.4-5.9c0-3.4-2.8-6.2-6.3-6.2c-3.5,0-6.3,2.8-6.3,6.2c0,2.9,2,5.3,4.7,6
			c1,9.8-2,17.6-8.4,21.7c-5.6,3.6-13,3.6-18.7,0.1c-6.6-4-9.9-12-9-21.8c2.7-0.7,4.7-3.1,4.7-6c0-3.4-2.8-6.2-6.3-6.2
			s-6.3,2.8-6.3,6.2c0,2.7,1.8,5.1,4.4,5.9c-0.9,11.1,2.9,20.2,10.7,24.9l9.6,17.3v3.7c0,7.3,2.9,14.2,8.2,19.4s12.3,8,19.8,8
			c7.5,0,14.5-2.9,19.8-8c5.3-5.2,8.2-12.1,8.2-19.4C158.9,186.6,158.1,185.8,157.1,185.8z M121,135.8c0-1.5,1.2-2.7,2.7-2.7
			c1.5,0,2.7,1.2,2.7,2.7c0,1.5-1.2,2.7-2.7,2.7C122.3,138.5,121,137.3,121,135.8z M81.6,135.8c0-1.5,1.2-2.7,2.7-2.7
			s2.7,1.2,2.7,2.7c0,1.5-1.2,2.7-2.7,2.7S81.6,137.3,81.6,135.8z M98.5,168.9c1.9,0.5,3.9,0.8,5.8,0.8c2.2,0,4.3-0.3,6.4-1
			l-6.2,11.1L98.5,168.9z"/>
	</g>
</g>
<g>
	<g>
		<path class="st2" d="M157.1,181c-1,0-1.8,0.8-1.8,1.7v0c0,1,0.8,1.7,1.8,1.7c1,0,1.8-0.8,1.8-1.7v0
			C158.9,181.8,158.1,181,157.1,181z"/>
	</g>
</g>
<g>
	<g>
		<path class="st2" d="M157.1,149.9c-6.9,0-12.6,5.5-12.6,12.3c0,6.2,4.7,11.4,10.8,12.2v3.5c0,1,0.8,1.7,1.8,1.7
			c1,0,1.8-0.8,1.8-1.7v-3.5c6.1-0.9,10.8-6,10.8-12.2C169.6,155.4,164,149.9,157.1,149.9z M157.1,164.4c-1.2,0-2.2-1-2.2-2.2
			s1-2.2,2.2-2.2s2.2,1,2.2,2.2C159.3,163.4,158.3,164.4,157.1,164.4z M158.9,170.9v-3.3c2.3-0.7,4-2.9,4-5.4c0-3.1-2.6-5.7-5.8-5.7
			s-5.8,2.5-5.8,5.7c0,2.5,1.7,4.6,4,5.4v3.3c-4.1-0.8-7.2-4.4-7.2-8.7c0-4.9,4-8.8,9-8.8s9,4,9,8.8
			C166.1,166.5,163,170.1,158.9,170.9z"/>
	</g>
</g>
<g>
	<g>
		<path class="st2" d="M130.8,187.5c-5.3,0-9.5,4.2-9.5,9.4c0,5.2,4.3,9.4,9.5,9.4c5.3,0,9.5-4.2,9.5-9.4
			C140.4,191.7,136.1,187.5,130.8,187.5z M130.8,202.7c-3.3,0-6-2.6-6-5.9s2.7-5.9,6-5.9c3.3,0,6,2.6,6,5.9
			C136.8,200.1,134.1,202.7,130.8,202.7z"/>
	</g>
</g>
<g>
	<g>
		<path class="st2" d="M142.3,177.8c-3.1,0-5.7,2.6-5.7,5.9c0,3.2,2.6,5.9,5.7,5.9c3.1,0,5.7-2.6,5.7-5.9
			C148,180.5,145.4,177.8,142.3,177.8z M142.3,186.1c-1.2,0-2.1-1.1-2.1-2.4c0-1.3,0.9-2.4,2.1-2.4c1.2,0,2.1,1.1,2.1,2.4
			C144.4,185,143.4,186.1,142.3,186.1z"/>
	</g>
</g>
<g>
	<g>
		<path class="st2" d="M130.9,172.7c-3.1,0-5.7,2.6-5.7,5.9c0,3.2,2.6,5.9,5.7,5.9c3.1,0,5.7-2.6,5.7-5.9
			C136.6,175.3,134.1,172.7,130.9,172.7z M130.9,180.9c-1.2,0-2.1-1.1-2.1-2.4c0-1.3,0.9-2.4,2.1-2.4c1.2,0,2.1,1.1,2.1,2.4
			C133.1,179.8,132.1,180.9,130.9,180.9z"/>
	</g>
</g>
<g>
	<g>
		<path class="st2" d="M119.4,177.8c-3.1,0-5.7,2.6-5.7,5.9c0,3.2,2.6,5.9,5.7,5.9c3.1,0,5.7-2.6,5.7-5.9
			C125.1,180.5,122.5,177.8,119.4,177.8z M119.4,186.1c-1.2,0-2.1-1.1-2.1-2.4s0.9-2.4,2.1-2.4c1.2,0,2.1,1.1,2.1,2.4
			C121.5,185,120.5,186.1,119.4,186.1z"/>
	</g>
</g>
<rect x="80.2" y="246.7" class="st1" width="74.1" height="10.8"/>
<g>
	<g>
		<path class="st2" d="M264.5,224.4c-0.5-0.5-1.4-0.5-2,0l-6.5,6.5c-0.5,0.5-0.5,1.4,0,2c0.3,0.3,0.6,0.4,1,0.4c0.4,0,0.7-0.1,1-0.4
			l6.5-6.5C265,225.8,265,224.9,264.5,224.4z"/>
	</g>
</g>
<g>
	<g>
		<path class="st2" d="M270,219.9c-0.5-0.5-1.4-0.5-2,0l0,0c-0.5,0.5-0.5,1.4,0,2c0.3,0.3,0.6,0.4,1,0.4s0.7-0.1,1-0.4l0,0
			C270.6,221.3,270.6,220.4,270,219.9z"/>
	</g>
</g>
</svg>
