<?xml version="1.0" encoding="utf-8"?>
<!-- Generator: Adobe Illustrator 16.0.3, SVG Export Plug-In . SVG Version: 6.00 Build 0)  -->
<!DOCTYPE svg PUBLIC "-//W3C//DTD SVG 1.1//EN" "http://www.w3.org/Graphics/SVG/1.1/DTD/svg11.dtd">
<svg version="1.1" id="Capa_1" xmlns="http://www.w3.org/2000/svg" xmlns:xlink="http://www.w3.org/1999/xlink" x="0px" y="0px"
	 width="1132.088px" height="347.896px" viewBox="0 0 1132.088 347.896" enable-background="new 0 0 1132.088 347.896"
	 xml:space="preserve">
<g id="Capa_1_1_">
	<path fill="#316EED" d="M0,162.087c1.542-4.965,1.255-10.174,2.04-15.25c4.884-31.574,17.255-59.862,37.685-84.372
		C66.417,30.441,100.452,10.66,141.46,2.785c14.148-2.718,28.419-3.268,42.652-2.417c27.427,1.637,53.001,9.797,76.714,23.74
		c11.699,6.879,22.361,15.127,32.212,24.407c7.009,6.603,13.106,14.015,19.108,21.569c8.166,10.279,14.21,21.728,19.824,33.409
		c4.464,9.283,7.541,19.176,10.042,29.183c2.346,9.387,3.667,18.959,4.443,28.612c0.998,12.434,0.551,24.774-1.253,37.133
		c-0.984,6.748-2.362,13.395-3.754,20.052c-1.105,5.287-3.385,10.198-5.101,15.289c-2.402,7.135-5.248,14.132-8.9,20.697
		c-5.276,9.483-10.745,18.83-17.764,27.269c-5.757,6.923-11.59,13.755-18.171,19.848c-8.434,7.806-17.438,14.944-27.483,20.675
		c-4.788,2.729-9.35,5.871-14.41,8.1c-5.654,2.489-11.299,4.977-17.095,7.168c-6.585,2.491-13.389,4.133-20.111,6.049
		c-4.814,1.372-9.878,1.943-14.864,2.626c-9.103,1.247-18.257,1.906-27.454,1.651c-13.969-0.387-27.724-2.171-41.271-5.75
		c-9.847-2.603-19.386-6.114-28.577-10.305c-8.725-3.979-17.132-8.768-25.01-14.372c-6.363-4.529-12.732-9.071-18.386-14.455
		c-5.482-5.222-10.689-10.72-15.674-16.464c-3.692-4.256-6.986-8.794-10.489-13.171c-2.477-3.095-4.287-6.731-6.306-10.18
		c-3.017-5.148-5.974-10.332-8.389-15.805c-4.97-11.261-9.277-22.736-11.886-34.81c-1.766-8.172-3.239-16.37-3.582-24.743
		c-0.04-0.979,0.036-2.006-0.527-2.902C0,177.287,0,169.687,0,162.087z"/>
	<path fill="#FFFFFF" d="M172.601,9.617c15.037,0.759,29.094,2.905,42.877,6.918c23.438,6.823,44.465,18.15,63.133,33.783
		c15.188,12.718,27.357,28.001,37.122,45.224c10.599,18.697,17.21,38.741,20.649,59.922c2.569,15.828,1.525,31.479-1.71,47.059
		c-3.255,15.665-8.463,30.665-15.856,44.867c-6.365,12.228-14.043,23.565-23.104,33.987c-15.242,17.528-33.585,30.932-54.45,40.895
		c-17.595,8.4-36.153,13.503-55.565,15.728c-18.59,2.131-36.523-0.968-54.26-5.979c-23.492-6.638-44.479-18.102-63.147-33.732
		c-15.188-12.72-27.358-28.001-37.121-45.226c-10.599-18.696-17.21-38.741-20.65-59.921c-2.57-15.828-1.527-31.479,1.709-47.06
		c3.254-15.665,8.462-30.666,15.856-44.867c6.366-12.229,14.045-23.563,23.106-33.986c15.303-17.603,33.728-31.048,54.693-41.013
		c17.605-8.369,36.155-13.583,55.592-15.635C165.429,10.161,169.43,10.452,172.601,9.617z"/>
	<path fill="#316EED" d="M173.508,19.162c14.13,0.862,28.014,2.978,41.628,6.911c23.63,6.828,44.721,18.346,63.669,33.941
		c6.699,5.517,11.88,12.362,16.91,19.296c10.697,14.742,18.869,30.823,24.403,48.187c4.295,13.477,7.09,27.244,7.884,41.42
		c0.908,16.19-2.079,31.816-6.432,47.253c-6.652,23.586-18.267,44.555-33.793,63.436c-5.569,6.773-12.492,12-19.504,17.079
		c-14.679,10.633-30.684,18.751-47.956,24.267c-13.473,4.301-27.24,7.112-41.415,7.899c-16.278,0.903-31.996-2.087-47.516-6.483
		c-23.488-6.655-44.37-18.237-63.189-33.689c-6.779-5.566-12.011-12.485-17.092-19.494c-10.637-14.673-18.763-30.676-24.283-47.946
		c-4.306-13.472-7.12-27.238-7.92-41.411c-0.936-16.563,2.159-32.53,6.695-48.301c6.698-23.279,18.249-43.978,33.612-62.626
		c5.516-6.695,12.366-11.873,19.302-16.901c14.674-10.636,30.667-18.777,47.939-24.297c13.646-4.36,27.579-7.335,41.952-7.939
		C170.111,19.688,171.806,19.366,173.508,19.162z"/>
	<path fill="#FFFFFF" d="M206.272,255.494c-3.89-0.001-7.779-0.025-11.668,0.012c-1.678,0.016-3.194-0.428-3.802-2.038
		c-0.824-2.187-2.46-2.325-4.364-2.322c-6.112,0.015-5.693,0.579-5.699-5.712c-0.002-1.809,0.094-3.623-0.019-5.425
		c-0.282-4.526-0.024-8.767,3.718-12.146c1.583-1.431,1.716-3.727,1.722-5.846c0.011-4.611-0.026-9.227,0.02-13.838
		c0.026-2.634-0.519-4.709-2.881-6.517c-4.323-3.307-4.11-4.398,0.123-7.944c1.35-1.129,2.828-1.911,4.421-2.568
		c3.115-1.285,5.067-4.457,4.772-7.727c-0.14-1.556-0.773-2.908-2.359-3.304c-2.041-0.512-3.686-1.687-4.989-3.128
		c-2.16-2.389-4.739-3.224-7.784-2.905c-2.268,0.237-3.172-0.743-3.601-2.933c-0.72-3.668-3.25-4.34-6.057-1.855
		c-4.911,4.345-8.487,9.39-10.21,15.918c-0.905,3.429-1.996,6.709-1.786,10.289c0.1,1.711-0.738,2.486-2.444,2.446
		c-1.626-0.038-3.259,0.065-4.883-0.007c-11.715-0.524-20.976,4.261-27.619,13.632c-3.099,4.371-5.165,9.526-5.197,15.135
		c-0.049,8.773-0.005,17.548-0.019,26.321c-0.006,3.366-0.198,3.639-3.521,3.531c-7.821-0.252-14.024-3.703-19.543-9.204
		c-5.892-5.874-7.114-13.271-6.021-20.5c1.291-8.532,4.179-16.823,8.885-24.429c6.406-10.352,15.975-17.294,25.032-24.849
		c8.415-7.021,16.811-14.065,25.283-21.015c8.858-7.266,17.814-14.41,26.691-21.652c1.595-1.303,2.438-1.376,4.148,0.318
		c11.233,11.128,21.72,23.029,33.926,33.161c3.34,2.771,5.651,5.882,5.09,10.662c-0.398,3.392-0.267,6.879-0.023,10.299
		c0.243,3.422-0.861,6.266-3.123,8.605c-2.707,2.801-3.583,5.97-3.513,9.829c0.195,10.669,0.054,21.345,0.074,32.018
		c0.01,5.066,0.57,5.63,5.511,5.844c4.084,0.176,7.027,3.929,6.407,7.994c-0.271,1.773-1.439,1.844-2.76,1.847
		C214.232,255.498,210.251,255.494,206.272,255.494z"/>
	<path fill="#FFFFFF" d="M262.236,125.726c0.879,5.482-6.527,12.229-13.38,12.494c-0.091,0.005-0.182,0.008-0.272,0.009
		c-11.641,0.074-8.261-1.113-16.955,7.497c-3.852,3.814-8.247,7.052-11.762,11.211c-1.018,1.206-2.094,1.289-3.262,0.253
		c-0.812-0.719-1.644-1.417-2.41-2.183c-8.701-8.687-17.39-17.387-26.09-26.075c-4.009-4.004-3.893-3.843,0.472-7.391
		c5.106-4.151,9.701-8.976,15.017-12.814c4.63-3.345,6.965-8.166,10.046-12.551c0.909-1.292,2.099-2.271,3.413-3.051
		c2.288-1.357,3.839-0.468,3.924,2.177c0.054,1.716,0.043,3.436,0.029,5.152c-0.016,2.041,1.003,2.963,3.01,2.952
		c3.164-0.018,6.334,0.13,9.491-0.024c3.013-0.147,4.77,1.212,5.702,3.938c0.877,2.563,1.836,5.097,2.65,7.678
		c0.727,2.308,2.353,3.439,4.615,3.526c4.467,0.171,8.574,2.102,13.029,2.447C262.169,121.177,262.348,123.592,262.236,125.726z"/>
</g>
<g id="Capa_2">
	<g>
		<g enable-background="new    ">
			<path fill="none" stroke="#31424D" stroke-width="10" stroke-miterlimit="10" d="M376.847,221.323v-75.647h29.232v7.564H387.4
				v25.216h14.476v7.472H387.4v35.396H376.847z"/>
			<path fill="none" stroke="#31424D" stroke-width="10" stroke-miterlimit="10" d="M420.274,222.07
				c-2.118,0-3.768-0.561-4.95-1.681c-1.183-1.121-2.008-2.521-2.475-4.203c-0.467-1.681-0.701-3.393-0.701-5.137v-43.707h9.993
				v40.719c0,1.931,0.28,3.44,0.84,4.529c0.561,1.09,1.712,1.635,3.456,1.635c1.121,0,2.288-0.327,3.502-0.98
				c1.214-0.654,2.381-1.448,3.502-2.382v-43.521h9.993v53.98h-9.993v-5.323c-1.744,1.681-3.721,3.114-5.93,4.296
				C425.301,221.477,422.889,222.07,420.274,222.07z"/>
			<path fill="none" stroke="#31424D" stroke-width="10" stroke-miterlimit="10" d="M453.613,221.323v-53.98h9.993v5.323
				c1.805-1.682,3.797-3.113,5.977-4.296c2.179-1.183,4.576-1.774,7.191-1.774c2.179,0,3.844,0.56,4.997,1.681
				c1.151,1.121,1.961,2.521,2.428,4.202c0.467,1.682,0.7,3.395,0.7,5.137v43.708h-9.993V180.51c0-1.929-0.28-3.424-0.841-4.482
				c-0.56-1.059-1.713-1.588-3.456-1.588c-1.121,0-2.288,0.326-3.502,0.98c-1.214,0.653-2.382,1.447-3.502,2.382v43.521H453.613z"/>
			<path fill="none" stroke="#31424D" stroke-width="10" stroke-miterlimit="10" d="M507.127,222.07
				c-4.545,0-7.938-1.665-10.18-4.996c-2.241-3.33-3.362-8.98-3.362-16.951v-10.46c0-4.109,0.341-7.922,1.027-11.44
				c0.685-3.517,1.976-6.335,3.876-8.452c1.898-2.116,4.684-3.175,8.359-3.175c1.805,0,3.455,0.405,4.95,1.214
				c1.494,0.81,2.833,1.807,4.016,2.988v-25.122h9.993v75.647h-9.993v-3.455c-1.183,1.246-2.475,2.257-3.875,3.035
				C510.536,221.68,508.932,222.07,507.127,222.07z M509.649,214.225c0.934,0,1.929-0.171,2.988-0.514
				c1.058-0.342,2.116-0.855,3.175-1.541v-35.396c-0.873-0.622-1.837-1.168-2.895-1.635c-1.06-0.467-2.211-0.7-3.456-0.7
				c-2.304,0-3.861,1.105-4.669,3.315c-0.81,2.211-1.214,4.872-1.214,7.984v15.224c0,2.491,0.14,4.748,0.42,6.771
				c0.28,2.024,0.855,3.612,1.728,4.764C506.598,213.65,507.905,214.225,509.649,214.225z"/>
			<path fill="none" stroke="#31424D" stroke-width="10" stroke-miterlimit="10" d="M545.604,222.07
				c-2.117,0-3.985-0.607-5.604-1.821c-1.62-1.214-2.895-2.77-3.829-4.669c-0.934-1.899-1.401-3.907-1.401-6.024
				c0-3.362,0.561-6.194,1.681-8.499c1.121-2.303,2.662-4.249,4.623-5.837c1.961-1.587,4.233-2.973,6.817-4.155
				c2.583-1.183,5.308-2.335,8.172-3.456v-3.829c0-2.179-0.125-3.983-0.374-5.417c-0.25-1.431-0.763-2.505-1.541-3.222
				c-0.779-0.715-1.946-1.074-3.502-1.074c-1.37,0-2.475,0.313-3.315,0.935c-0.841,0.623-1.448,1.51-1.821,2.661
				c-0.374,1.153-0.561,2.507-0.561,4.063v2.709l-9.899-0.374c0.124-5.978,1.494-10.381,4.109-13.215
				c2.615-2.833,6.662-4.249,12.141-4.249c5.354,0,9.152,1.463,11.394,4.389c2.242,2.928,3.362,7.161,3.362,12.702v24.655
				c0,1.681,0.047,3.301,0.14,4.856c0.093,1.557,0.217,3.005,0.374,4.343c0.155,1.34,0.295,2.601,0.421,3.782h-9.153
				c-0.187-0.995-0.42-2.256-0.7-3.782c-0.28-1.525-0.483-2.91-0.607-4.156c-0.623,2.117-1.821,4.095-3.596,5.931
				C551.161,221.152,548.716,222.07,545.604,222.07z M549.526,213.478c0.995,0,1.929-0.28,2.802-0.841
				c0.871-0.561,1.649-1.198,2.334-1.914c0.685-0.716,1.151-1.292,1.401-1.729v-15.316c-1.557,0.873-3.021,1.744-4.389,2.615
				c-1.371,0.873-2.568,1.791-3.596,2.755c-1.027,0.967-1.837,2.055-2.428,3.269c-0.592,1.215-0.887,2.601-0.887,4.156
				c0,2.181,0.404,3.892,1.214,5.137C546.786,212.856,547.969,213.478,549.526,213.478z"/>
			<path fill="none" stroke="#31424D" stroke-width="10" stroke-miterlimit="10" d="M590.432,222.07
				c-4.422,0-7.768-0.887-10.04-2.661c-2.273-1.775-3.799-4.28-4.576-7.519c-0.779-3.236-1.167-7.005-1.167-11.301v-12.421
				c0-4.544,0.403-8.42,1.214-11.627c0.809-3.206,2.35-5.665,4.623-7.379c2.271-1.711,5.588-2.567,9.946-2.567
				c3.923,0,6.958,0.639,9.105,1.914c2.148,1.277,3.626,3.176,4.437,5.697c0.809,2.521,1.214,5.65,1.214,9.386v3.175h-9.06v-3.269
				c0-2.365-0.156-4.233-0.467-5.604c-0.313-1.368-0.872-2.365-1.681-2.988c-0.81-0.622-1.962-0.934-3.456-0.934
				c-1.619,0-2.863,0.373-3.735,1.12s-1.447,2.008-1.728,3.782s-0.42,4.188-0.42,7.238v16.997c0,4.608,0.435,7.69,1.307,9.246
				c0.871,1.558,2.429,2.335,4.67,2.335c1.682,0,2.91-0.388,3.689-1.167c0.777-0.778,1.275-1.883,1.494-3.315
				c0.217-1.432,0.326-3.05,0.326-4.856v-4.39h9.06v3.735c0,3.612-0.421,6.725-1.261,9.34c-0.84,2.614-2.335,4.607-4.482,5.977
				C597.296,221.384,594.292,222.07,590.432,222.07z"/>
			<path fill="none" stroke="#31424D" stroke-width="10" stroke-miterlimit="10" d="M614.713,159.31v-10.46h9.993v10.46H614.713z
				 M614.713,221.323v-53.98h9.993v53.98H614.713z"/>
			<path fill="none" stroke="#31424D" stroke-width="10" stroke-miterlimit="10" d="M650.294,222.07
				c-3.984,0-7.129-0.809-9.432-2.428c-2.305-1.619-3.939-3.923-4.904-6.911c-0.965-2.989-1.447-6.506-1.447-10.554v-15.689
				c0-4.047,0.482-7.565,1.447-10.554s2.6-5.291,4.904-6.911c2.303-1.618,5.447-2.428,9.432-2.428s7.113,0.81,9.387,2.428
				c2.271,1.62,3.891,3.923,4.855,6.911s1.448,6.507,1.448,10.554v15.689c0,4.048-0.483,7.564-1.448,10.554
				c-0.965,2.988-2.584,5.292-4.855,6.911C657.407,221.261,654.278,222.07,650.294,222.07z M650.294,214.692
				c1.93,0,3.283-0.561,4.063-1.681c0.778-1.121,1.245-2.6,1.401-4.437c0.155-1.836,0.233-3.75,0.233-5.744v-16.903
				c0-2.055-0.078-3.984-0.233-5.791c-0.156-1.805-0.623-3.283-1.401-4.436c-0.779-1.151-2.133-1.728-4.063-1.728
				s-3.301,0.576-4.109,1.728c-0.809,1.152-1.293,2.631-1.447,4.436c-0.156,1.807-0.233,3.736-0.233,5.791v16.903
				c0,1.994,0.077,3.908,0.233,5.744c0.154,1.837,0.639,3.315,1.447,4.437C646.993,214.131,648.364,214.692,650.294,214.692z
				 M647.68,162.859l5.51-18.491h9.993l-10.46,18.491H647.68z"/>
			<path fill="none" stroke="#31424D" stroke-width="10" stroke-miterlimit="10" d="M675.136,221.323v-53.98h9.994v5.323
				c1.805-1.682,3.797-3.113,5.977-4.296c2.178-1.183,4.576-1.774,7.191-1.774c2.178,0,3.844,0.56,4.996,1.681
				c1.15,1.121,1.961,2.521,2.428,4.202c0.467,1.682,0.701,3.395,0.701,5.137v43.708h-9.994V180.51c0-1.929-0.279-3.424-0.84-4.482
				s-1.713-1.588-3.455-1.588c-1.121,0-2.289,0.326-3.502,0.98c-1.215,0.653-2.383,1.447-3.502,2.382v43.521H675.136z"/>
			<path fill="none" stroke="#31424D" stroke-width="10" stroke-miterlimit="10" d="M716.694,182.565v-10.646h10.086v10.646H716.694
				z M716.694,212.357V201.71h10.086v10.646H716.694z"/>
			<path fill="none" stroke="#31424D" stroke-width="10" stroke-miterlimit="10" d="M756.759,221.323v-75.647h10.553v68.083h19.332
				v7.564H756.759z"/>
			<path fill="none" stroke="#31424D" stroke-width="10" stroke-miterlimit="10" d="M802.706,222.07
				c-2.117,0-3.984-0.607-5.604-1.821s-2.895-2.77-3.828-4.669s-1.4-3.907-1.4-6.024c0-3.362,0.559-6.194,1.68-8.499
				c1.121-2.303,2.662-4.249,4.623-5.837c1.961-1.587,4.234-2.973,6.818-4.155c2.582-1.183,5.307-2.335,8.172-3.456v-3.829
				c0-2.179-0.125-3.983-0.373-5.417c-0.25-1.431-0.764-2.505-1.541-3.222c-0.779-0.715-1.947-1.074-3.504-1.074
				c-1.369,0-2.475,0.313-3.314,0.935c-0.84,0.623-1.447,1.51-1.82,2.661c-0.375,1.153-0.561,2.507-0.561,4.063v2.709l-9.9-0.374
				c0.125-5.978,1.494-10.381,4.109-13.215c2.615-2.833,6.662-4.249,12.141-4.249c5.354,0,9.152,1.463,11.395,4.389
				c2.24,2.928,3.361,7.161,3.361,12.702v24.655c0,1.681,0.047,3.301,0.141,4.856c0.094,1.557,0.217,3.005,0.373,4.343
				c0.154,1.34,0.295,2.601,0.42,3.782h-9.152c-0.186-0.995-0.42-2.256-0.699-3.782c-0.281-1.525-0.484-2.91-0.607-4.156
				c-0.623,2.117-1.822,4.095-3.596,5.931C808.263,221.152,805.819,222.07,802.706,222.07z M806.63,213.478
				c0.994,0,1.928-0.28,2.801-0.841c0.871-0.561,1.648-1.198,2.336-1.914c0.684-0.716,1.15-1.292,1.4-1.729v-15.316
				c-1.557,0.873-3.021,1.744-4.391,2.615c-1.369,0.873-2.568,1.791-3.596,2.755c-1.027,0.967-1.836,2.055-2.428,3.269
				c-0.592,1.215-0.887,2.601-0.887,4.156c0,2.181,0.404,3.892,1.215,5.137C803.89,212.856,805.071,213.478,806.63,213.478z"/>
			<path fill="none" stroke="#31424D" stroke-width="10" stroke-miterlimit="10" d="M854.163,221.323v-53.98h9.246v5.136
				c1.805-2.054,3.797-3.579,5.979-4.576c2.178-0.995,4.42-1.494,6.723-1.494c1.992,0,3.783,0.499,5.371,1.494
				c1.588,0.997,2.723,2.771,3.408,5.324c1.93-2.366,4.031-4.094,6.305-5.184c2.271-1.089,4.652-1.635,7.145-1.635
				c1.742,0,3.33,0.421,4.762,1.261c1.432,0.841,2.584,2.181,3.457,4.017c0.871,1.837,1.307,4.249,1.307,7.237v42.4h-9.152v-41.746
				c0-2.615-0.42-4.374-1.26-5.277c-0.842-0.901-1.979-1.354-3.41-1.354c-1.369,0-2.801,0.39-4.295,1.167
				c-1.494,0.779-2.865,1.854-4.109,3.222c0,0.25,0,0.499,0,0.747c0,0.25,0,0.53,0,0.841v42.4h-9.152v-41.746
				c0-2.615-0.422-4.374-1.262-5.277c-0.84-0.901-1.977-1.354-3.408-1.354c-1.371,0-2.787,0.39-4.25,1.167
				c-1.463,0.779-2.848,1.854-4.156,3.222v43.988H854.163z"/>
			<path fill="none" stroke="#31424D" stroke-width="10" stroke-miterlimit="10" d="M927.384,222.07
				c-2.117,0-3.986-0.607-5.604-1.821c-1.621-1.214-2.896-2.77-3.83-4.669s-1.4-3.907-1.4-6.024c0-3.362,0.561-6.194,1.682-8.499
				c1.121-2.303,2.662-4.249,4.623-5.837c1.961-1.587,4.232-2.973,6.816-4.155s5.309-2.335,8.172-3.456v-3.829
				c0-2.179-0.125-3.983-0.373-5.417c-0.25-1.431-0.764-2.505-1.541-3.222c-0.779-0.715-1.947-1.074-3.502-1.074
				c-1.371,0-2.475,0.313-3.316,0.935c-0.84,0.623-1.447,1.51-1.82,2.661c-0.373,1.153-0.561,2.507-0.561,4.063v2.709l-9.898-0.374
				c0.123-5.978,1.494-10.381,4.107-13.215c2.615-2.833,6.662-4.249,12.143-4.249c5.354,0,9.152,1.463,11.393,4.389
				c2.242,2.928,3.363,7.161,3.363,12.702v24.655c0,1.681,0.047,3.301,0.139,4.856c0.094,1.557,0.219,3.005,0.375,4.343
				c0.154,1.34,0.295,2.601,0.42,3.782h-9.152c-0.188-0.995-0.42-2.256-0.701-3.782c-0.279-1.525-0.482-2.91-0.607-4.156
				c-0.623,2.117-1.82,4.095-3.596,5.931C932.94,221.152,930.495,222.07,927.384,222.07z M931.306,213.478
				c0.996,0,1.93-0.28,2.803-0.841c0.871-0.561,1.648-1.198,2.334-1.914c0.684-0.716,1.152-1.292,1.4-1.729v-15.316
				c-1.557,0.873-3.02,1.744-4.389,2.615c-1.371,0.873-2.568,1.791-3.596,2.755c-1.027,0.967-1.838,2.055-2.428,3.269
				c-0.594,1.215-0.889,2.601-0.889,4.156c0,2.181,0.404,3.892,1.215,5.137C928.565,212.856,929.749,213.478,931.306,213.478z"/>
			<path fill="none" stroke="#31424D" stroke-width="10" stroke-miterlimit="10" d="M957.454,221.323v-53.98h9.994v5.323
				c1.805-1.682,3.797-3.113,5.977-4.296s4.576-1.774,7.191-1.774c2.178,0,3.844,0.56,4.996,1.681s1.961,2.521,2.428,4.202
				c0.469,1.682,0.701,3.395,0.701,5.137v43.708h-9.992V180.51c0-1.929-0.281-3.424-0.842-4.482s-1.713-1.588-3.455-1.588
				c-1.121,0-2.287,0.326-3.502,0.98c-1.215,0.653-2.381,1.447-3.502,2.382v43.521H957.454z"/>
			<path fill="none" stroke="#31424D" stroke-width="10" stroke-miterlimit="10" d="M1008.167,222.07
				c-2.117,0-3.986-0.607-5.604-1.821c-1.621-1.214-2.896-2.77-3.83-4.669s-1.4-3.907-1.4-6.024c0-3.362,0.561-6.194,1.682-8.499
				c1.121-2.303,2.662-4.249,4.623-5.837c1.961-1.587,4.232-2.973,6.816-4.155s5.309-2.335,8.172-3.456v-3.829
				c0-2.179-0.125-3.983-0.373-5.417c-0.25-1.431-0.764-2.505-1.541-3.222c-0.779-0.715-1.947-1.074-3.502-1.074
				c-1.371,0-2.475,0.313-3.316,0.935c-0.84,0.623-1.447,1.51-1.82,2.661c-0.373,1.153-0.561,2.507-0.561,4.063v2.709l-9.898-0.374
				c0.123-5.978,1.494-10.381,4.107-13.215c2.615-2.833,6.662-4.249,12.143-4.249c5.354,0,9.152,1.463,11.393,4.389
				c2.242,2.928,3.363,7.161,3.363,12.702v24.655c0,1.681,0.047,3.301,0.139,4.856c0.094,1.557,0.219,3.005,0.375,4.343
				c0.154,1.34,0.295,2.601,0.42,3.782h-9.152c-0.188-0.995-0.42-2.256-0.701-3.782c-0.279-1.525-0.482-2.91-0.607-4.156
				c-0.623,2.117-1.82,4.095-3.596,5.931C1013.724,221.152,1011.278,222.07,1008.167,222.07z M1012.089,213.478
				c0.996,0,1.93-0.28,2.803-0.841c0.871-0.561,1.648-1.198,2.334-1.914c0.684-0.716,1.152-1.292,1.4-1.729v-15.316
				c-1.557,0.873-3.02,1.744-4.389,2.615c-1.371,0.873-2.568,1.791-3.596,2.755c-1.027,0.967-1.838,2.055-2.428,3.269
				c-0.594,1.215-0.889,2.601-0.889,4.156c0,2.181,0.404,3.892,1.215,5.137C1009.349,212.856,1010.532,213.478,1012.089,213.478z"/>
			<path fill="none" stroke="#31424D" stroke-width="10" stroke-miterlimit="10" d="M1050.753,222.07
				c-4.545,0-7.938-1.665-10.18-4.996c-2.24-3.33-3.361-8.98-3.361-16.951v-10.46c0-4.109,0.342-7.922,1.027-11.44
				c0.684-3.517,1.975-6.335,3.875-8.452c1.898-2.116,4.686-3.175,8.359-3.175c1.805,0,3.455,0.405,4.949,1.214
				c1.494,0.81,2.832,1.807,4.016,2.988v-25.122h9.994v75.647h-9.994v-3.455c-1.184,1.246-2.475,2.257-3.875,3.035
				C1054.163,221.68,1052.56,222.07,1050.753,222.07z M1053.274,214.225c0.936,0,1.93-0.171,2.99-0.514
				c1.057-0.342,2.115-0.855,3.174-1.541v-35.396c-0.871-0.622-1.836-1.168-2.895-1.635s-2.211-0.7-3.455-0.7
				c-2.305,0-3.861,1.105-4.67,3.315c-0.811,2.211-1.215,4.872-1.215,7.984v15.224c0,2.491,0.141,4.748,0.42,6.771
				c0.281,2.024,0.855,3.612,1.729,4.764C1050.224,213.65,1051.532,214.225,1053.274,214.225z"/>
			<path fill="none" stroke="#31424D" stroke-width="10" stroke-miterlimit="10" d="M1089.229,222.07
				c-2.117,0-3.984-0.607-5.604-1.821s-2.895-2.77-3.828-4.669s-1.4-3.907-1.4-6.024c0-3.362,0.559-6.194,1.68-8.499
				c1.121-2.303,2.662-4.249,4.623-5.837c1.961-1.587,4.234-2.973,6.818-4.155c2.582-1.183,5.307-2.335,8.172-3.456v-3.829
				c0-2.179-0.125-3.983-0.373-5.417c-0.25-1.431-0.764-2.505-1.541-3.222c-0.779-0.715-1.947-1.074-3.504-1.074
				c-1.369,0-2.475,0.313-3.314,0.935c-0.84,0.623-1.447,1.51-1.82,2.661c-0.375,1.153-0.561,2.507-0.561,4.063v2.709l-9.9-0.374
				c0.125-5.978,1.494-10.381,4.109-13.215c2.615-2.833,6.662-4.249,12.141-4.249c5.354,0,9.152,1.463,11.395,4.389
				c2.24,2.928,3.361,7.161,3.361,12.702v24.655c0,1.681,0.047,3.301,0.141,4.856c0.094,1.557,0.217,3.005,0.373,4.343
				c0.154,1.34,0.295,2.601,0.42,3.782h-9.152c-0.186-0.995-0.42-2.256-0.699-3.782c-0.281-1.525-0.484-2.91-0.607-4.156
				c-0.623,2.117-1.822,4.095-3.596,5.931C1094.786,221.152,1092.343,222.07,1089.229,222.07z M1093.153,213.478
				c0.994,0,1.928-0.28,2.801-0.841c0.871-0.561,1.648-1.198,2.336-1.914c0.684-0.716,1.15-1.292,1.4-1.729v-15.316
				c-1.557,0.873-3.021,1.744-4.391,2.615c-1.369,0.873-2.568,1.791-3.596,2.755c-1.027,0.967-1.836,2.055-2.428,3.269
				c-0.592,1.215-0.887,2.601-0.887,4.156c0,2.181,0.404,3.892,1.215,5.137C1090.413,212.856,1091.595,213.478,1093.153,213.478z"/>
		</g>
	</g>
	<g enable-background="new    ">
		<path fill="#316EED" d="M374.847,219.323v-75.647h29.232v7.564H385.4v25.216h14.476v7.472H385.4v35.396H374.847z"/>
		<path fill="#316EED" d="M418.274,220.07c-2.118,0-3.768-0.561-4.95-1.681c-1.183-1.121-2.008-2.521-2.475-4.203
			c-0.467-1.681-0.701-3.393-0.701-5.137v-43.707h9.993v40.719c0,1.931,0.28,3.44,0.84,4.529c0.561,1.09,1.712,1.635,3.456,1.635
			c1.121,0,2.288-0.327,3.502-0.98c1.214-0.654,2.381-1.448,3.502-2.382v-43.521h9.993v53.98h-9.993v-5.323
			c-1.744,1.681-3.721,3.114-5.93,4.296C423.301,219.477,420.889,220.07,418.274,220.07z"/>
		<path fill="#316EED" d="M451.613,219.323v-53.98h9.993v5.323c1.805-1.682,3.797-3.113,5.977-4.296
			c2.179-1.183,4.576-1.774,7.191-1.774c2.179,0,3.844,0.56,4.997,1.681c1.151,1.121,1.961,2.521,2.428,4.202
			c0.467,1.682,0.7,3.395,0.7,5.137v43.708h-9.993V178.51c0-1.929-0.28-3.424-0.841-4.482c-0.56-1.059-1.713-1.588-3.456-1.588
			c-1.121,0-2.288,0.326-3.502,0.98c-1.214,0.653-2.382,1.447-3.502,2.382v43.521H451.613z"/>
		<path fill="#316EED" d="M505.127,220.07c-4.545,0-7.938-1.665-10.18-4.996c-2.241-3.33-3.362-8.98-3.362-16.951v-10.46
			c0-4.109,0.341-7.922,1.027-11.44c0.685-3.517,1.976-6.335,3.876-8.452c1.898-2.116,4.684-3.175,8.359-3.175
			c1.805,0,3.455,0.405,4.95,1.214c1.494,0.81,2.833,1.807,4.016,2.988v-25.122h9.993v75.647h-9.993v-3.455
			c-1.183,1.246-2.475,2.257-3.875,3.035C508.536,219.68,506.932,220.07,505.127,220.07z M507.649,212.225
			c0.934,0,1.929-0.171,2.988-0.514c1.058-0.342,2.116-0.855,3.175-1.541v-35.396c-0.873-0.622-1.837-1.168-2.895-1.635
			c-1.06-0.467-2.211-0.7-3.456-0.7c-2.304,0-3.861,1.105-4.669,3.315c-0.81,2.211-1.214,4.872-1.214,7.984v15.224
			c0,2.491,0.14,4.748,0.42,6.771c0.28,2.024,0.855,3.612,1.728,4.764C504.598,211.65,505.905,212.225,507.649,212.225z"/>
		<path fill="#316EED" d="M543.604,220.07c-2.117,0-3.985-0.607-5.604-1.821c-1.62-1.214-2.895-2.77-3.829-4.669
			c-0.934-1.899-1.401-3.907-1.401-6.024c0-3.362,0.561-6.194,1.681-8.499c1.121-2.303,2.662-4.249,4.623-5.837
			c1.961-1.587,4.233-2.973,6.817-4.155c2.583-1.183,5.308-2.335,8.172-3.456v-3.829c0-2.179-0.125-3.983-0.374-5.417
			c-0.25-1.431-0.763-2.505-1.541-3.222c-0.779-0.715-1.946-1.074-3.502-1.074c-1.37,0-2.475,0.313-3.315,0.935
			c-0.841,0.623-1.448,1.51-1.821,2.661c-0.374,1.153-0.561,2.507-0.561,4.063v2.709l-9.899-0.374
			c0.124-5.978,1.494-10.381,4.109-13.215c2.615-2.833,6.662-4.249,12.141-4.249c5.354,0,9.152,1.463,11.394,4.389
			c2.242,2.928,3.362,7.161,3.362,12.702v24.655c0,1.681,0.047,3.301,0.14,4.856c0.093,1.557,0.217,3.005,0.374,4.343
			c0.155,1.34,0.295,2.601,0.42,3.782h-9.153c-0.187-0.995-0.42-2.256-0.7-3.782c-0.28-1.525-0.483-2.91-0.607-4.156
			c-0.623,2.117-1.821,4.095-3.596,5.931C549.161,219.152,546.716,220.07,543.604,220.07z M547.526,211.478
			c0.995,0,1.929-0.28,2.802-0.841c0.871-0.561,1.649-1.198,2.334-1.914c0.685-0.716,1.151-1.292,1.401-1.729v-15.316
			c-1.557,0.873-3.021,1.744-4.389,2.615c-1.371,0.873-2.568,1.791-3.596,2.755c-1.027,0.967-1.837,2.055-2.428,3.269
			c-0.592,1.215-0.887,2.601-0.887,4.156c0,2.181,0.404,3.892,1.214,5.137C544.786,210.856,545.969,211.478,547.526,211.478z"/>
		<path fill="#316EED" d="M588.432,220.07c-4.422,0-7.768-0.887-10.04-2.661c-2.273-1.775-3.799-4.28-4.576-7.519
			c-0.779-3.236-1.167-7.005-1.167-11.301v-12.421c0-4.544,0.403-8.42,1.214-11.627c0.809-3.206,2.35-5.665,4.623-7.379
			c2.271-1.711,5.588-2.567,9.946-2.567c3.923,0,6.958,0.639,9.105,1.914c2.148,1.277,3.626,3.176,4.437,5.697
			c0.809,2.521,1.214,5.65,1.214,9.386v3.175h-9.06v-3.269c0-2.365-0.156-4.233-0.467-5.604c-0.313-1.368-0.872-2.365-1.681-2.988
			c-0.81-0.622-1.962-0.934-3.456-0.934c-1.619,0-2.863,0.373-3.735,1.12s-1.447,2.008-1.728,3.782s-0.42,4.188-0.42,7.238v16.997
			c0,4.608,0.435,7.69,1.307,9.246c0.871,1.558,2.429,2.335,4.67,2.335c1.682,0,2.91-0.388,3.689-1.167
			c0.777-0.778,1.275-1.883,1.494-3.315c0.217-1.432,0.326-3.05,0.326-4.856v-4.39h9.06v3.735c0,3.612-0.421,6.725-1.261,9.34
			c-0.84,2.614-2.335,4.607-4.482,5.977C595.296,219.384,592.292,220.07,588.432,220.07z"/>
		<path fill="#316EED" d="M612.713,157.31v-10.46h9.993v10.46H612.713z M612.713,219.323v-53.98h9.993v53.98H612.713z"/>
		<path fill="#316EED" d="M648.294,220.07c-3.984,0-7.129-0.809-9.432-2.428c-2.305-1.619-3.939-3.923-4.904-6.911
			c-0.965-2.989-1.447-6.506-1.447-10.554v-15.689c0-4.047,0.482-7.565,1.447-10.554s2.6-5.291,4.904-6.911
			c2.303-1.618,5.447-2.428,9.432-2.428s7.113,0.81,9.387,2.428c2.271,1.62,3.891,3.923,4.855,6.911s1.448,6.507,1.448,10.554
			v15.689c0,4.048-0.483,7.564-1.448,10.554c-0.965,2.988-2.584,5.292-4.855,6.911C655.407,219.261,652.278,220.07,648.294,220.07z
			 M648.294,212.692c1.93,0,3.283-0.561,4.063-1.681c0.778-1.121,1.245-2.6,1.401-4.437c0.155-1.836,0.233-3.75,0.233-5.744v-16.903
			c0-2.055-0.078-3.984-0.233-5.791c-0.156-1.805-0.623-3.283-1.401-4.436c-0.779-1.151-2.133-1.728-4.063-1.728
			s-3.301,0.576-4.109,1.728c-0.809,1.152-1.293,2.631-1.447,4.436c-0.156,1.807-0.233,3.736-0.233,5.791v16.903
			c0,1.994,0.077,3.908,0.233,5.744c0.154,1.837,0.639,3.315,1.447,4.437C644.993,212.131,646.364,212.692,648.294,212.692z
			 M645.68,160.859l5.51-18.491h9.993l-10.46,18.491H645.68z"/>
		<path fill="#316EED" d="M673.136,219.323v-53.98h9.994v5.323c1.805-1.682,3.797-3.113,5.977-4.296
			c2.178-1.183,4.576-1.774,7.191-1.774c2.178,0,3.844,0.56,4.996,1.681c1.15,1.121,1.961,2.521,2.428,4.202
			c0.467,1.682,0.701,3.395,0.701,5.137v43.708h-9.994V178.51c0-1.929-0.279-3.424-0.84-4.482s-1.713-1.588-3.455-1.588
			c-1.121,0-2.289,0.326-3.502,0.98c-1.215,0.653-2.383,1.447-3.502,2.382v43.521H673.136z"/>
		<path fill="#316EED" d="M714.694,180.565v-10.646h10.086v10.646H714.694z M714.694,210.357V199.71h10.086v10.646H714.694z"/>
		<path fill="#316EED" d="M754.759,219.323v-75.647h10.553v68.083h19.332v7.564H754.759z"/>
		<path fill="#316EED" d="M800.706,220.07c-2.117,0-3.984-0.607-5.604-1.821s-2.895-2.77-3.828-4.669s-1.4-3.907-1.4-6.024
			c0-3.362,0.559-6.194,1.68-8.499c1.121-2.303,2.662-4.249,4.623-5.837c1.961-1.587,4.234-2.973,6.818-4.155
			c2.582-1.183,5.307-2.335,8.172-3.456v-3.829c0-2.179-0.125-3.983-0.373-5.417c-0.25-1.431-0.764-2.505-1.541-3.222
			c-0.779-0.715-1.947-1.074-3.504-1.074c-1.369,0-2.475,0.313-3.314,0.935c-0.84,0.623-1.447,1.51-1.82,2.661
			c-0.375,1.153-0.561,2.507-0.561,4.063v2.709l-9.9-0.374c0.125-5.978,1.494-10.381,4.109-13.215
			c2.615-2.833,6.662-4.249,12.141-4.249c5.354,0,9.152,1.463,11.395,4.389c2.24,2.928,3.361,7.161,3.361,12.702v24.655
			c0,1.681,0.047,3.301,0.141,4.856c0.094,1.557,0.217,3.005,0.373,4.343c0.154,1.34,0.295,2.601,0.42,3.782h-9.152
			c-0.186-0.995-0.42-2.256-0.699-3.782c-0.281-1.525-0.484-2.91-0.607-4.156c-0.623,2.117-1.822,4.095-3.596,5.931
			C806.263,219.152,803.819,220.07,800.706,220.07z M804.63,211.478c0.994,0,1.928-0.28,2.801-0.841
			c0.871-0.561,1.648-1.198,2.336-1.914c0.684-0.716,1.15-1.292,1.4-1.729v-15.316c-1.557,0.873-3.021,1.744-4.391,2.615
			c-1.369,0.873-2.568,1.791-3.596,2.755c-1.027,0.967-1.836,2.055-2.428,3.269c-0.592,1.215-0.887,2.601-0.887,4.156
			c0,2.181,0.404,3.892,1.215,5.137C801.89,210.856,803.071,211.478,804.63,211.478z"/>
		<path fill="#316EED" d="M852.163,219.323v-53.98h9.246v5.136c1.805-2.054,3.797-3.579,5.979-4.576
			c2.178-0.995,4.42-1.494,6.723-1.494c1.992,0,3.783,0.499,5.371,1.494c1.588,0.997,2.723,2.771,3.408,5.324
			c1.93-2.366,4.031-4.094,6.305-5.184c2.271-1.089,4.652-1.635,7.145-1.635c1.742,0,3.33,0.421,4.762,1.261
			c1.432,0.841,2.584,2.181,3.457,4.017c0.871,1.837,1.307,4.249,1.307,7.237v42.4h-9.152v-41.746c0-2.615-0.42-4.374-1.26-5.277
			c-0.842-0.901-1.979-1.354-3.41-1.354c-1.369,0-2.801,0.39-4.295,1.167c-1.494,0.779-2.865,1.854-4.109,3.222
			c0,0.25,0,0.499,0,0.747c0,0.25,0,0.53,0,0.841v42.4h-9.152v-41.746c0-2.615-0.422-4.374-1.262-5.277
			c-0.84-0.901-1.977-1.354-3.408-1.354c-1.371,0-2.787,0.39-4.25,1.167c-1.463,0.779-2.848,1.854-4.156,3.222v43.988H852.163z"/>
		<path fill="#316EED" d="M925.384,220.07c-2.117,0-3.986-0.607-5.604-1.821c-1.621-1.214-2.896-2.77-3.83-4.669
			s-1.4-3.907-1.4-6.024c0-3.362,0.561-6.194,1.682-8.499c1.121-2.303,2.662-4.249,4.623-5.837c1.961-1.587,4.232-2.973,6.816-4.155
			s5.309-2.335,8.172-3.456v-3.829c0-2.179-0.125-3.983-0.373-5.417c-0.25-1.431-0.764-2.505-1.541-3.222
			c-0.779-0.715-1.947-1.074-3.502-1.074c-1.371,0-2.475,0.313-3.316,0.935c-0.84,0.623-1.447,1.51-1.82,2.661
			c-0.373,1.153-0.561,2.507-0.561,4.063v2.709l-9.898-0.374c0.123-5.978,1.494-10.381,4.107-13.215
			c2.615-2.833,6.662-4.249,12.143-4.249c5.354,0,9.152,1.463,11.393,4.389c2.242,2.928,3.363,7.161,3.363,12.702v24.655
			c0,1.681,0.047,3.301,0.139,4.856c0.094,1.557,0.219,3.005,0.375,4.343c0.154,1.34,0.295,2.601,0.42,3.782h-9.152
			c-0.188-0.995-0.42-2.256-0.701-3.782c-0.279-1.525-0.482-2.91-0.607-4.156c-0.623,2.117-1.82,4.095-3.596,5.931
			C930.94,219.152,928.495,220.07,925.384,220.07z M929.306,211.478c0.996,0,1.93-0.28,2.803-0.841
			c0.871-0.561,1.648-1.198,2.334-1.914c0.684-0.716,1.152-1.292,1.4-1.729v-15.316c-1.557,0.873-3.02,1.744-4.389,2.615
			c-1.371,0.873-2.568,1.791-3.596,2.755c-1.027,0.967-1.838,2.055-2.428,3.269c-0.594,1.215-0.889,2.601-0.889,4.156
			c0,2.181,0.404,3.892,1.215,5.137C926.565,210.856,927.749,211.478,929.306,211.478z"/>
		<path fill="#316EED" d="M955.454,219.323v-53.98h9.994v5.323c1.805-1.682,3.797-3.113,5.977-4.296s4.576-1.774,7.191-1.774
			c2.178,0,3.844,0.56,4.996,1.681s1.961,2.521,2.428,4.202c0.469,1.682,0.701,3.395,0.701,5.137v43.708h-9.992V178.51
			c0-1.929-0.281-3.424-0.842-4.482s-1.713-1.588-3.455-1.588c-1.121,0-2.287,0.326-3.502,0.98
			c-1.215,0.653-2.381,1.447-3.502,2.382v43.521H955.454z"/>
		<path fill="#316EED" d="M1006.167,220.07c-2.117,0-3.986-0.607-5.604-1.821c-1.621-1.214-2.896-2.77-3.83-4.669
			s-1.4-3.907-1.4-6.024c0-3.362,0.561-6.194,1.682-8.499c1.121-2.303,2.662-4.249,4.623-5.837c1.961-1.587,4.232-2.973,6.816-4.155
			s5.309-2.335,8.172-3.456v-3.829c0-2.179-0.125-3.983-0.373-5.417c-0.25-1.431-0.764-2.505-1.541-3.222
			c-0.779-0.715-1.947-1.074-3.502-1.074c-1.371,0-2.475,0.313-3.316,0.935c-0.84,0.623-1.447,1.51-1.82,2.661
			c-0.373,1.153-0.561,2.507-0.561,4.063v2.709l-9.898-0.374c0.123-5.978,1.494-10.381,4.107-13.215
			c2.615-2.833,6.662-4.249,12.143-4.249c5.354,0,9.152,1.463,11.393,4.389c2.242,2.928,3.363,7.161,3.363,12.702v24.655
			c0,1.681,0.047,3.301,0.139,4.856c0.094,1.557,0.219,3.005,0.375,4.343c0.154,1.34,0.295,2.601,0.42,3.782h-9.152
			c-0.188-0.995-0.42-2.256-0.701-3.782c-0.279-1.525-0.482-2.91-0.607-4.156c-0.623,2.117-1.82,4.095-3.596,5.931
			C1011.724,219.152,1009.278,220.07,1006.167,220.07z M1010.089,211.478c0.996,0,1.93-0.28,2.803-0.841
			c0.871-0.561,1.648-1.198,2.334-1.914c0.684-0.716,1.152-1.292,1.4-1.729v-15.316c-1.557,0.873-3.02,1.744-4.389,2.615
			c-1.371,0.873-2.568,1.791-3.596,2.755c-1.027,0.967-1.838,2.055-2.428,3.269c-0.594,1.215-0.889,2.601-0.889,4.156
			c0,2.181,0.404,3.892,1.215,5.137C1007.349,210.856,1008.532,211.478,1010.089,211.478z"/>
		<path fill="#316EED" d="M1048.753,220.07c-4.545,0-7.938-1.665-10.18-4.996c-2.24-3.33-3.361-8.98-3.361-16.951v-10.46
			c0-4.109,0.342-7.922,1.027-11.44c0.684-3.517,1.975-6.335,3.875-8.452c1.898-2.116,4.686-3.175,8.359-3.175
			c1.805,0,3.455,0.405,4.949,1.214c1.494,0.81,2.832,1.807,4.016,2.988v-25.122h9.994v75.647h-9.994v-3.455
			c-1.184,1.246-2.475,2.257-3.875,3.035C1052.163,219.68,1050.56,220.07,1048.753,220.07z M1051.274,212.225
			c0.936,0,1.93-0.171,2.99-0.514c1.057-0.342,2.115-0.855,3.174-1.541v-35.396c-0.871-0.622-1.836-1.168-2.895-1.635
			s-2.211-0.7-3.455-0.7c-2.305,0-3.861,1.105-4.67,3.315c-0.811,2.211-1.215,4.872-1.215,7.984v15.224
			c0,2.491,0.141,4.748,0.42,6.771c0.281,2.024,0.855,3.612,1.729,4.764C1048.224,211.65,1049.532,212.225,1051.274,212.225z"/>
		<path fill="#316EED" d="M1087.229,220.07c-2.117,0-3.984-0.607-5.604-1.821s-2.895-2.77-3.828-4.669s-1.4-3.907-1.4-6.024
			c0-3.362,0.559-6.194,1.68-8.499c1.121-2.303,2.662-4.249,4.623-5.837c1.961-1.587,4.234-2.973,6.818-4.155
			c2.582-1.183,5.307-2.335,8.172-3.456v-3.829c0-2.179-0.125-3.983-0.373-5.417c-0.25-1.431-0.764-2.505-1.541-3.222
			c-0.779-0.715-1.947-1.074-3.504-1.074c-1.369,0-2.475,0.313-3.314,0.935c-0.84,0.623-1.447,1.51-1.82,2.661
			c-0.375,1.153-0.561,2.507-0.561,4.063v2.709l-9.9-0.374c0.125-5.978,1.494-10.381,4.109-13.215
			c2.615-2.833,6.662-4.249,12.141-4.249c5.354,0,9.152,1.463,11.395,4.389c2.24,2.928,3.361,7.161,3.361,12.702v24.655
			c0,1.681,0.047,3.301,0.141,4.856c0.094,1.557,0.217,3.005,0.373,4.343c0.154,1.34,0.295,2.601,0.42,3.782h-9.152
			c-0.186-0.995-0.42-2.256-0.699-3.782c-0.281-1.525-0.484-2.91-0.607-4.156c-0.623,2.117-1.822,4.095-3.596,5.931
			C1092.786,219.152,1090.343,220.07,1087.229,220.07z M1091.153,211.478c0.994,0,1.928-0.28,2.801-0.841
			c0.871-0.561,1.648-1.198,2.336-1.914c0.684-0.716,1.15-1.292,1.4-1.729v-15.316c-1.557,0.873-3.021,1.744-4.391,2.615
			c-1.369,0.873-2.568,1.791-3.596,2.755c-1.027,0.967-1.836,2.055-2.428,3.269c-0.592,1.215-0.887,2.601-0.887,4.156
			c0,2.181,0.404,3.892,1.215,5.137C1088.413,210.856,1089.595,211.478,1091.153,211.478z"/>
	</g>
</g>
<line fill="none" stroke="#31424D" stroke-width="5" stroke-miterlimit="10" x1="1116.544" y1="241.323" x2="370.963" y2="241.323"/>
</svg>
