<?xml version="1.0" encoding="utf-8"?>
<!-- Generator: Adobe Illustrator 16.0.3, SVG Export Plug-In . SVG Version: 6.00 Build 0)  -->
<!DOCTYPE svg PUBLIC "-//W3C//DTD SVG 1.1//EN" "http://www.w3.org/Graphics/SVG/1.1/DTD/svg11.dtd">
<svg version="1.1" id="Capa_1" xmlns="http://www.w3.org/2000/svg" xmlns:xlink="http://www.w3.org/1999/xlink" x="0px" y="0px"
	 width="1132.088px" height="347.896px" viewBox="0 0 1132.088 347.896" enable-background="new 0 0 1132.088 347.896"
	 xml:space="preserve">
<g id="Capa_1_1_">
	<path fill="#316EED" d="M0,162.087c1.542-4.965,1.255-10.174,2.04-15.25c4.884-31.572,17.255-59.86,37.685-84.372
		C66.417,30.441,100.452,10.66,141.46,2.785c14.148-2.718,28.419-3.268,42.652-2.417c27.427,1.637,53.001,9.797,76.714,23.74
		c11.699,6.879,22.361,15.127,32.212,24.407c7.009,6.603,13.104,14.015,19.108,21.567c8.166,10.279,14.209,21.729,19.822,33.409
		c4.464,9.283,7.541,19.176,10.042,29.183c2.348,9.389,3.667,18.959,4.443,28.612c0.998,12.436,0.551,24.774-1.253,37.133
		c-0.984,6.748-2.362,13.396-3.754,20.054c-1.105,5.285-3.387,10.196-5.103,15.287c-2.4,7.137-5.248,14.134-8.898,20.697
		c-5.276,9.483-10.745,18.83-17.766,27.271c-5.757,6.923-11.59,13.755-18.169,19.848c-8.434,7.806-17.438,14.944-27.483,20.675
		c-4.788,2.729-9.35,5.871-14.41,8.102c-5.654,2.487-11.299,4.977-17.095,7.168c-6.585,2.489-13.389,4.133-20.111,6.049
		c-4.814,1.372-9.878,1.941-14.864,2.626c-9.103,1.247-18.257,1.906-27.454,1.649c-13.969-0.387-27.724-2.171-41.271-5.75
		c-9.847-2.603-19.386-6.112-28.577-10.305c-8.725-3.979-17.132-8.768-25.01-14.372c-6.363-4.527-12.732-9.069-18.386-14.455
		c-5.482-5.222-10.689-10.72-15.674-16.464c-3.692-4.256-6.986-8.794-10.489-13.171c-2.477-3.095-4.287-6.729-6.306-10.18
		c-3.017-5.148-5.974-10.332-8.389-15.807c-4.97-11.261-9.277-22.734-11.886-34.81c-1.766-8.172-3.239-16.37-3.582-24.743
		c-0.04-0.979,0.036-2.006-0.527-2.9C0,177.287,0,169.687,0,162.087z"/>
	<path fill="#FFFFFF" d="M172.601,9.617c15.037,0.759,29.094,2.905,42.877,6.918c23.438,6.823,44.465,18.15,63.133,33.783
		c15.188,12.718,27.357,28.001,37.124,45.224c10.599,18.697,17.21,38.741,20.647,59.922c2.569,15.828,1.525,31.479-1.71,47.061
		c-3.255,15.665-8.463,30.665-15.854,44.867c-6.365,12.228-14.043,23.563-23.104,33.985c-15.242,17.528-33.585,30.934-54.45,40.896
		c-17.595,8.398-36.153,13.503-55.565,15.728c-18.59,2.131-36.523-0.968-54.26-5.979c-23.492-6.64-44.479-18.104-63.147-33.732
		c-15.188-12.72-27.358-28.001-37.121-45.226c-10.599-18.696-17.21-38.741-20.65-59.921c-2.57-15.828-1.527-31.479,1.709-47.062
		c3.254-15.665,8.462-30.666,15.856-44.867C34.45,88.986,42.129,77.652,51.19,67.229c15.303-17.604,33.728-31.048,54.693-41.015
		c17.605-8.367,36.155-13.583,55.592-15.635C165.429,10.161,169.43,10.452,172.601,9.617z"/>
	<path fill="#316EED" d="M173.508,19.162c14.13,0.862,28.014,2.979,41.628,6.911c23.63,6.828,44.721,18.346,63.669,33.941
		c6.699,5.517,11.88,12.36,16.91,19.296c10.697,14.74,18.869,30.821,24.403,48.187c4.295,13.479,7.09,27.244,7.884,41.42
		c0.908,16.19-2.079,31.816-6.432,47.253c-6.652,23.586-18.269,44.557-33.793,63.438c-5.569,6.771-12.492,12-19.504,17.079
		c-14.679,10.633-30.684,18.751-47.956,24.267c-13.473,4.301-27.24,7.112-41.415,7.899c-16.278,0.901-31.996-2.087-47.516-6.483
		c-23.488-6.655-44.37-18.237-63.189-33.688c-6.779-5.565-12.011-12.484-17.092-19.493c-10.637-14.674-18.763-30.678-24.283-47.946
		c-4.306-13.472-7.12-27.238-7.92-41.411c-0.936-16.563,2.159-32.53,6.695-48.301c6.698-23.279,18.249-43.979,33.612-62.626
		C64.725,62.206,71.575,57.028,78.511,52c14.674-10.636,30.667-18.775,47.939-24.297c13.646-4.36,27.579-7.335,41.952-7.938
		C170.111,19.688,171.806,19.366,173.508,19.162z"/>
	<path fill="#FFFFFF" d="M206.272,255.494c-3.89-0.001-7.779-0.025-11.668,0.012c-1.678,0.018-3.194-0.428-3.802-2.038
		c-0.824-2.187-2.46-2.323-4.364-2.32c-6.112,0.015-5.693,0.579-5.699-5.712c-0.002-1.811,0.094-3.623-0.019-5.427
		c-0.282-4.524-0.024-8.767,3.718-12.146c1.583-1.431,1.716-3.729,1.722-5.846c0.011-4.611-0.026-9.229,0.02-13.838
		c0.026-2.636-0.519-4.711-2.881-6.519c-4.323-3.307-4.11-4.396,0.123-7.944c1.35-1.129,2.828-1.909,4.421-2.566
		c3.115-1.285,5.067-4.457,4.772-7.729c-0.14-1.556-0.773-2.906-2.359-3.304c-2.041-0.512-3.686-1.687-4.989-3.128
		c-2.16-2.389-4.739-3.224-7.784-2.905c-2.268,0.237-3.172-0.743-3.601-2.933c-0.72-3.668-3.25-4.34-6.057-1.855
		c-4.911,4.347-8.487,9.392-10.21,15.918c-0.905,3.431-1.996,6.709-1.786,10.289c0.1,1.711-0.738,2.486-2.444,2.446
		c-1.626-0.038-3.259,0.065-4.883-0.007c-11.715-0.524-20.976,4.261-27.619,13.632c-3.099,4.371-5.165,9.526-5.197,15.135
		c-0.049,8.773-0.005,17.548-0.019,26.321c-0.006,3.366-0.198,3.639-3.521,3.531c-7.821-0.252-14.024-3.703-19.543-9.204
		c-5.892-5.874-7.114-13.271-6.021-20.5c1.291-8.532,4.179-16.823,8.885-24.429c6.406-10.354,15.975-17.296,25.032-24.851
		c8.415-7.021,16.811-14.063,25.283-21.015c8.858-7.268,17.814-14.41,26.691-21.652c1.595-1.303,2.438-1.376,4.148,0.318
		c11.233,11.128,21.72,23.027,33.926,33.161c3.34,2.771,5.651,5.882,5.09,10.661c-0.398,3.393-0.267,6.88-0.023,10.3
		c0.243,3.422-0.861,6.266-3.123,8.604c-2.707,2.801-3.583,5.97-3.513,9.829c0.195,10.669,0.054,21.345,0.074,32.02
		c0.01,5.064,0.57,5.63,5.511,5.844c4.084,0.176,7.027,3.929,6.407,7.994c-0.271,1.771-1.439,1.844-2.76,1.847
		C214.232,255.498,210.251,255.494,206.272,255.494z"/>
	<path fill="#FFFFFF" d="M262.236,125.726c0.879,5.48-6.527,12.229-13.38,12.492c-0.091,0.007-0.182,0.01-0.272,0.011
		c-11.641,0.072-8.261-1.113-16.955,7.497c-3.852,3.813-8.247,7.052-11.762,11.211c-1.018,1.206-2.094,1.289-3.262,0.253
		c-0.812-0.719-1.644-1.417-2.41-2.185c-8.701-8.687-17.39-17.387-26.09-26.073c-4.009-4.006-3.893-3.845,0.472-7.393
		c5.106-4.149,9.701-8.976,15.017-12.813c4.63-3.347,6.965-8.166,10.046-12.553c0.909-1.292,2.099-2.271,3.413-3.051
		c2.288-1.355,3.839-0.468,3.924,2.177c0.054,1.718,0.043,3.438,0.029,5.152c-0.016,2.041,1.003,2.963,3.01,2.952
		c3.164-0.019,6.334,0.13,9.491-0.024c3.013-0.146,4.77,1.212,5.702,3.938c0.877,2.563,1.836,5.097,2.65,7.678
		c0.727,2.31,2.353,3.439,4.615,3.526c4.467,0.171,8.574,2.102,13.029,2.446C262.169,121.177,262.348,123.592,262.236,125.726z"/>
</g>
<g id="Capa_2">
	<g display="none">
		<g display="inline" enable-background="new    ">
			<path fill="none" stroke="#31424D" stroke-width="10" stroke-miterlimit="10" d="M376.847,221.323v-75.647h29.232v7.564H387.4
				v25.216h14.476v7.472H387.4v35.396L376.847,221.323L376.847,221.323z"/>
			<path fill="none" stroke="#31424D" stroke-width="10" stroke-miterlimit="10" d="M420.274,222.07c-2.118,0-3.77-0.563-4.95-1.681
				c-1.185-1.121-2.008-2.521-2.477-4.203c-0.467-1.683-0.699-3.395-0.699-5.139v-43.707h9.991v40.721
				c0,1.931,0.28,3.438,0.841,4.527c0.562,1.092,1.713,1.637,3.456,1.637c1.12,0,2.287-0.327,3.503-0.98
				c1.214-0.654,2.381-1.448,3.502-2.382v-43.521h9.991v53.98h-9.991v-5.323c-1.744,1.683-3.723,3.114-5.932,4.296
				C425.301,221.477,422.889,222.07,420.274,222.07z"/>
			<path fill="none" stroke="#31424D" stroke-width="10" stroke-miterlimit="10" d="M453.613,221.323v-53.98h9.993v5.323
				c1.805-1.682,3.797-3.113,5.977-4.296c2.179-1.183,4.576-1.772,7.191-1.772c2.179,0,3.844,0.56,4.997,1.681
				c1.149,1.121,1.961,2.521,2.428,4.202c0.467,1.681,0.7,3.395,0.7,5.137v43.708h-9.993V180.51c0-1.929-0.28-3.424-0.841-4.48
				c-0.562-1.061-1.714-1.588-3.456-1.588c-1.121,0-2.288,0.326-3.502,0.979c-1.216,0.653-2.384,1.447-3.502,2.382v43.521H453.613z"
				/>
			<path fill="none" stroke="#31424D" stroke-width="10" stroke-miterlimit="10" d="M507.127,222.07
				c-4.545,0-7.938-1.665-10.18-4.996c-2.241-3.33-3.362-8.98-3.362-16.951v-10.46c0-4.107,0.341-7.922,1.027-11.438
				c0.685-3.519,1.976-6.335,3.876-8.452c1.896-2.116,4.684-3.175,8.357-3.175c1.807,0,3.455,0.403,4.95,1.214
				c1.494,0.81,2.833,1.807,4.018,2.986v-25.122h9.991v75.647h-9.991v-3.455c-1.185,1.246-2.477,2.257-3.875,3.035
				C510.536,221.68,508.932,222.07,507.127,222.07z M509.649,214.225c0.934,0,1.929-0.171,2.986-0.516
				c1.06-0.342,2.116-0.854,3.175-1.541v-35.396c-0.871-0.622-1.837-1.168-2.895-1.635c-1.061-0.469-2.211-0.7-3.456-0.7
				c-2.304,0-3.861,1.104-4.669,3.313c-0.811,2.211-1.214,4.872-1.214,7.984v15.224c0,2.491,0.14,4.748,0.42,6.771
				c0.28,2.022,0.854,3.61,1.728,4.764C506.598,213.65,507.905,214.225,509.649,214.225z"/>
			<path fill="none" stroke="#31424D" stroke-width="10" stroke-miterlimit="10" d="M545.604,222.07
				c-2.115,0-3.983-0.607-5.604-1.821s-2.895-2.77-3.829-4.669c-0.934-1.897-1.401-3.907-1.401-6.022
				c0-3.362,0.563-6.194,1.683-8.499c1.121-2.305,2.662-4.249,4.623-5.838c1.961-1.588,4.231-2.974,6.815-4.154
				c2.583-1.185,5.31-2.335,8.174-3.456v-3.829c0-2.179-0.125-3.983-0.375-5.417c-0.25-1.431-0.764-2.505-1.541-3.222
				c-0.778-0.717-1.945-1.074-3.502-1.074c-1.369,0-2.476,0.313-3.314,0.935c-0.841,0.623-1.448,1.511-1.821,2.661
				c-0.374,1.153-0.561,2.507-0.561,4.063v2.709l-9.899-0.374c0.124-5.979,1.494-10.381,4.109-13.215
				c2.615-2.833,6.662-4.249,12.141-4.249c5.354,0,9.152,1.463,11.396,4.389c2.241,2.928,3.36,7.161,3.36,12.702v24.653
				c0,1.683,0.049,3.303,0.142,4.856c0.093,1.557,0.217,3.005,0.374,4.343c0.153,1.34,0.295,2.603,0.421,3.782h-9.153
				c-0.187-0.995-0.42-2.256-0.7-3.782c-0.278-1.523-0.481-2.91-0.605-4.156c-0.623,2.117-1.821,4.097-3.597,5.933
				C551.161,221.152,548.716,222.07,545.604,222.07z M549.526,213.478c0.995,0,1.929-0.28,2.802-0.843
				c0.871-0.561,1.647-1.196,2.334-1.912c0.685-0.718,1.15-1.292,1.4-1.729v-15.316c-1.558,0.873-3.021,1.744-4.39,2.615
				c-1.371,0.873-2.566,1.791-3.596,2.755c-1.027,0.969-1.837,2.057-2.428,3.271c-0.594,1.215-0.889,2.601-0.889,4.156
				c0,2.181,0.404,3.892,1.214,5.137C546.786,212.856,547.969,213.478,549.526,213.478z"/>
			<path fill="none" stroke="#31424D" stroke-width="10" stroke-miterlimit="10" d="M590.432,222.07
				c-4.422,0-7.768-0.887-10.04-2.661c-2.271-1.775-3.799-4.28-4.574-7.519c-0.779-3.236-1.167-7.007-1.167-11.303v-12.421
				c0-4.544,0.401-8.42,1.214-11.627c0.809-3.206,2.35-5.665,4.623-7.379c2.271-1.711,5.588-2.565,9.944-2.565
				c3.925,0,6.958,0.639,9.105,1.912c2.146,1.277,3.626,3.178,4.437,5.697c0.811,2.521,1.214,5.65,1.214,9.386v3.177h-9.06v-3.271
				c0-2.365-0.156-4.231-0.467-5.604c-0.313-1.368-0.872-2.365-1.681-2.988c-0.812-0.622-1.964-0.934-3.456-0.934
				c-1.619,0-2.863,0.372-3.735,1.118c-0.872,0.747-1.447,2.01-1.729,3.782c-0.279,1.774-0.42,4.188-0.42,7.238v16.997
				c0,4.606,0.437,7.688,1.309,9.246c0.871,1.558,2.429,2.335,4.67,2.335c1.682,0,2.91-0.39,3.688-1.167
				c0.777-0.778,1.275-1.883,1.494-3.315c0.217-1.432,0.326-3.05,0.326-4.854v-4.392h9.061v3.735c0,3.612-0.422,6.725-1.262,9.34
				c-0.84,2.614-2.335,4.607-4.48,5.979C597.296,221.384,594.292,222.07,590.432,222.07z"/>
			<path fill="none" stroke="#31424D" stroke-width="10" stroke-miterlimit="10" d="M614.713,159.31v-10.46h9.993v10.46H614.713z
				 M614.713,221.323v-53.98h9.993v53.98H614.713z"/>
			<path fill="none" stroke="#31424D" stroke-width="10" stroke-miterlimit="10" d="M650.294,222.07
				c-3.984,0-7.129-0.811-9.432-2.428c-2.307-1.619-3.939-3.925-4.904-6.911c-0.965-2.989-1.447-6.506-1.447-10.556v-15.688
				c0-4.047,0.482-7.565,1.447-10.554c0.965-2.989,2.6-5.291,4.904-6.911c2.303-1.618,5.445-2.428,9.432-2.428
				s7.113,0.81,9.387,2.428c2.271,1.62,3.893,3.923,4.855,6.911c0.964,2.986,1.448,6.507,1.448,10.554v15.688
				c0,4.05-0.483,7.564-1.448,10.556c-0.965,2.986-2.584,5.292-4.855,6.911C657.407,221.26,654.278,222.07,650.294,222.07z
				 M650.294,214.692c1.93,0,3.283-0.563,4.063-1.683c0.776-1.119,1.243-2.6,1.399-4.437c0.155-1.836,0.233-3.75,0.233-5.744
				v-16.903c0-2.055-0.078-3.982-0.233-5.791c-0.156-1.805-0.623-3.281-1.399-4.436c-0.779-1.151-2.135-1.728-4.063-1.728
				s-3.301,0.574-4.109,1.728c-0.808,1.153-1.293,2.631-1.445,4.436c-0.156,1.809-0.233,3.736-0.233,5.791v16.903
				c0,1.994,0.077,3.908,0.233,5.744c0.152,1.837,0.639,3.315,1.445,4.437C646.993,214.131,648.364,214.692,650.294,214.692z
				 M647.68,162.859l5.512-18.491h9.991l-10.46,18.491H647.68z"/>
			<path fill="none" stroke="#31424D" stroke-width="10" stroke-miterlimit="10" d="M675.136,221.323v-53.98h9.994v5.323
				c1.805-1.682,3.797-3.113,5.979-4.296c2.178-1.183,4.574-1.772,7.189-1.772c2.178,0,3.844,0.56,4.996,1.681
				c1.15,1.121,1.961,2.521,2.428,4.202c0.468,1.681,0.701,3.395,0.701,5.137v43.708h-9.994V180.51c0-1.929-0.277-3.424-0.84-4.48
				c-0.562-1.06-1.713-1.588-3.455-1.588c-1.121,0-2.289,0.326-3.502,0.979c-1.215,0.653-2.383,1.447-3.502,2.382v43.521H675.136z"
				/>
			<path fill="none" stroke="#31424D" stroke-width="10" stroke-miterlimit="10" d="M716.694,182.565v-10.646h10.086v10.646H716.694
				z M716.694,212.357V201.71h10.086v10.646L716.694,212.357L716.694,212.357z"/>
			<path fill="none" stroke="#31424D" stroke-width="10" stroke-miterlimit="10" d="M756.759,221.323v-75.647h10.553v68.083h19.332
				v7.564H756.759z"/>
			<path fill="none" stroke="#31424D" stroke-width="10" stroke-miterlimit="10" d="M802.706,222.07
				c-2.117,0-3.984-0.607-5.604-1.821c-1.618-1.214-2.895-2.77-3.826-4.669c-0.935-1.897-1.4-3.907-1.4-6.022
				c0-3.362,0.559-6.194,1.68-8.499s2.662-4.249,4.623-5.838c1.961-1.588,4.234-2.974,6.818-4.154
				c2.582-1.185,5.307-2.335,8.172-3.456v-3.829c0-2.179-0.125-3.983-0.373-5.417c-0.25-1.431-0.764-2.505-1.541-3.222
				c-0.779-0.717-1.947-1.074-3.504-1.074c-1.369,0-2.477,0.313-3.314,0.935c-0.84,0.623-1.445,1.511-1.818,2.661
				c-0.375,1.153-0.563,2.507-0.563,4.063v2.709l-9.898-0.374c0.125-5.979,1.492-10.381,4.107-13.215
				c2.615-2.833,6.662-4.249,12.143-4.249c5.354,0,9.15,1.463,11.395,4.389c2.24,2.928,3.361,7.161,3.361,12.702v24.653
				c0,1.683,0.047,3.303,0.141,4.856c0.094,1.557,0.217,3.005,0.373,4.343c0.154,1.34,0.295,2.603,0.42,3.782h-9.151
				c-0.187-0.995-0.421-2.256-0.698-3.782c-0.281-1.523-0.484-2.91-0.607-4.156c-0.623,2.117-1.822,4.097-3.596,5.933
				C808.263,221.152,805.819,222.07,802.706,222.07z M806.63,213.478c0.994,0,1.928-0.28,2.801-0.843
				c0.871-0.561,1.648-1.196,2.336-1.912c0.686-0.718,1.15-1.292,1.4-1.729v-15.316c-1.557,0.873-3.021,1.744-4.391,2.615
				c-1.369,0.873-2.568,1.791-3.598,2.755c-1.025,0.969-1.836,2.057-2.428,3.271c-0.592,1.215-0.887,2.601-0.887,4.156
				c0,2.181,0.403,3.892,1.215,5.137C803.89,212.856,805.071,213.478,806.63,213.478z"/>
			<path fill="none" stroke="#31424D" stroke-width="10" stroke-miterlimit="10" d="M854.163,221.323v-53.98h9.246v5.138
				c1.805-2.056,3.797-3.579,5.979-4.576c2.18-0.995,4.42-1.494,6.725-1.494c1.991,0,3.782,0.499,5.37,1.494
				c1.589,0.997,2.724,2.771,3.407,5.324c1.932-2.366,4.031-4.096,6.307-5.186c2.271-1.089,4.65-1.635,7.145-1.635
				c1.742,0,3.33,0.421,4.763,1.261c1.433,0.841,2.584,2.183,3.457,4.019c0.87,1.837,1.308,4.249,1.308,7.235v42.4h-9.152v-41.746
				c0-2.615-0.42-4.374-1.26-5.277c-0.842-0.899-1.979-1.354-3.41-1.354c-1.369,0-2.801,0.39-4.295,1.167
				c-1.494,0.779-2.865,1.854-4.108,3.222c0,0.25,0,0.499,0,0.747c0,0.25,0,0.53,0,0.841v42.4h-9.151v-41.746
				c0-2.615-0.422-4.374-1.263-5.277c-0.841-0.899-1.978-1.354-3.407-1.354c-1.371,0-2.787,0.39-4.25,1.167
				c-1.463,0.779-2.85,1.854-4.156,3.222v43.988H854.163z"/>
			<path fill="none" stroke="#31424D" stroke-width="10" stroke-miterlimit="10" d="M927.384,222.07
				c-2.117,0-3.985-0.607-5.604-1.821c-1.621-1.214-2.896-2.77-3.83-4.669c-0.936-1.897-1.4-3.907-1.4-6.022
				c0-3.362,0.563-6.194,1.683-8.499s2.661-4.249,4.623-5.838c1.961-1.588,4.231-2.974,6.815-4.154
				c2.584-1.184,5.31-2.335,8.172-3.456v-3.829c0-2.179-0.125-3.983-0.373-5.417c-0.25-1.431-0.764-2.505-1.541-3.222
				c-0.778-0.717-1.946-1.074-3.502-1.074c-1.371,0-2.475,0.313-3.315,0.935c-0.841,0.623-1.446,1.511-1.819,2.661
				c-0.373,1.153-0.562,2.507-0.562,4.063v2.709l-9.897-0.374c0.123-5.979,1.494-10.381,4.106-13.215
				c2.614-2.833,6.661-4.249,12.144-4.249c5.354,0,9.151,1.463,11.393,4.389c2.242,2.928,3.363,7.161,3.363,12.702v24.653
				c0,1.683,0.047,3.303,0.139,4.856c0.095,1.557,0.22,3.005,0.375,4.343c0.154,1.34,0.295,2.603,0.42,3.782h-9.15
				c-0.188-0.995-0.42-2.256-0.701-3.782c-0.279-1.523-0.482-2.91-0.607-4.156c-0.622,2.117-1.818,4.097-3.596,5.933
				C932.939,221.152,930.495,222.07,927.384,222.07z M931.306,213.478c0.996,0,1.932-0.28,2.805-0.843
				c0.87-0.561,1.646-1.196,2.334-1.912c0.684-0.718,1.15-1.292,1.398-1.729v-15.316c-1.557,0.873-3.02,1.744-4.389,2.615
				c-1.371,0.873-2.568,1.791-3.596,2.755c-1.027,0.969-1.839,2.057-2.43,3.271c-0.594,1.215-0.889,2.601-0.889,4.156
				c0,2.181,0.404,3.892,1.215,5.137C928.564,212.856,929.749,213.478,931.306,213.478z"/>
			<path fill="none" stroke="#31424D" stroke-width="10" stroke-miterlimit="10" d="M957.454,221.323v-53.98h9.994v5.323
				c1.805-1.682,3.797-3.113,5.977-4.296c2.181-1.183,4.576-1.772,7.191-1.772c2.178,0,3.844,0.56,4.996,1.681
				c1.15,1.121,1.961,2.521,2.428,4.202c0.469,1.682,0.701,3.395,0.701,5.137v43.708h-9.992V180.51c0-1.929-0.281-3.424-0.842-4.48
				c-0.563-1.06-1.714-1.588-3.455-1.588c-1.121,0-2.287,0.326-3.502,0.979c-1.216,0.653-2.382,1.447-3.502,2.382v43.521H957.454z"
				/>
			<path fill="none" stroke="#31424D" stroke-width="10" stroke-miterlimit="10" d="M1008.167,222.07
				c-2.117,0-3.986-0.607-5.604-1.821c-1.619-1.214-2.896-2.77-3.83-4.669c-0.934-1.897-1.398-3.907-1.398-6.022
				c0-3.362,0.561-6.194,1.682-8.499s2.662-4.249,4.623-5.838c1.961-1.588,4.232-2.974,6.816-4.154
				c2.584-1.184,5.309-2.335,8.172-3.456v-3.829c0-2.179-0.125-3.983-0.373-5.417c-0.25-1.431-0.764-2.505-1.541-3.222
				c-0.779-0.717-1.947-1.074-3.502-1.074c-1.371,0-2.477,0.313-3.316,0.935c-0.84,0.623-1.445,1.511-1.818,2.661
				c-0.373,1.153-0.563,2.507-0.563,4.063v2.709l-9.896-0.374c0.123-5.979,1.494-10.381,4.105-13.215
				c2.615-2.833,6.662-4.249,12.145-4.249c5.354,0,9.15,1.463,11.393,4.389c2.242,2.928,3.363,7.161,3.363,12.702v24.653
				c0,1.683,0.047,3.303,0.139,4.856c0.095,1.557,0.22,3.005,0.375,4.343c0.154,1.34,0.295,2.603,0.42,3.782h-9.15
				c-0.188-0.995-0.42-2.256-0.701-3.782c-0.279-1.523-0.482-2.91-0.607-4.156c-0.621,2.117-1.818,4.097-3.596,5.933
				C1013.724,221.152,1011.278,222.07,1008.167,222.07z M1012.089,213.478c0.996,0,1.931-0.28,2.803-0.843
				c0.871-0.561,1.648-1.196,2.334-1.912c0.686-0.718,1.152-1.292,1.4-1.729v-15.316c-1.557,0.873-3.021,1.744-4.389,2.615
				c-1.371,0.873-2.568,1.791-3.598,2.755c-1.025,0.969-1.838,2.057-2.428,3.271c-0.594,1.215-0.889,2.601-0.889,4.156
				c0,2.181,0.403,3.892,1.215,5.137C1009.349,212.856,1010.532,213.478,1012.089,213.478z"/>
			<path fill="none" stroke="#31424D" stroke-width="10" stroke-miterlimit="10" d="M1050.753,222.07
				c-4.545,0-7.938-1.665-10.18-4.996c-2.24-3.33-3.361-8.98-3.361-16.951v-10.46c0-4.107,0.342-7.922,1.027-11.438
				c0.684-3.519,1.975-6.335,3.875-8.452c1.896-2.116,4.686-3.175,8.357-3.175c1.807,0,3.455,0.403,4.949,1.214
				c1.494,0.81,2.832,1.807,4.017,2.986v-25.122h9.993v75.647h-9.993v-3.455c-1.185,1.246-2.476,2.257-3.875,3.035
				C1054.163,221.68,1052.561,222.07,1050.753,222.07z M1053.274,214.225c0.936,0,1.93-0.171,2.988-0.516
				c1.059-0.342,2.115-0.854,3.175-1.541v-35.396c-0.87-0.622-1.837-1.168-2.896-1.635c-1.059-0.469-2.211-0.7-3.455-0.7
				c-2.305,0-3.86,1.104-4.67,3.313c-0.812,2.211-1.215,4.872-1.215,7.984v15.224c0,2.491,0.141,4.748,0.42,6.771
				c0.281,2.022,0.854,3.61,1.729,4.764C1050.224,213.65,1051.532,214.225,1053.274,214.225z"/>
			<path fill="none" stroke="#31424D" stroke-width="10" stroke-miterlimit="10" d="M1089.229,222.07
				c-2.115,0-3.982-0.607-5.604-1.821s-2.895-2.77-3.828-4.669c-0.933-1.897-1.4-3.907-1.4-6.022c0-3.362,0.561-6.194,1.682-8.499
				s2.662-4.249,4.623-5.838c1.961-1.588,4.232-2.974,6.816-4.154c2.582-1.185,5.309-2.335,8.174-3.456v-3.829
				c0-2.179-0.125-3.983-0.373-5.417c-0.25-1.431-0.766-2.505-1.541-3.222c-0.779-0.717-1.947-1.074-3.506-1.074
				c-1.367,0-2.475,0.313-3.313,0.935c-0.84,0.623-1.447,1.511-1.82,2.661c-0.375,1.153-0.561,2.507-0.561,4.063v2.709l-9.9-0.374
				c0.125-5.979,1.494-10.381,4.109-13.215c2.615-2.833,6.662-4.249,12.141-4.249c5.354,0,9.152,1.463,11.396,4.389
				c2.24,2.928,3.359,7.161,3.359,12.702v24.653c0,1.683,0.049,3.303,0.143,4.856c0.094,1.557,0.217,3.005,0.373,4.343
				c0.154,1.34,0.295,2.603,0.42,3.782h-9.152c-0.186-0.995-0.42-2.256-0.699-3.782c-0.279-1.523-0.482-2.91-0.605-4.156
				c-0.623,2.117-1.822,4.097-3.596,5.933C1094.786,221.152,1092.343,222.07,1089.229,222.07z M1093.153,213.478
				c0.993,0,1.928-0.28,2.801-0.843c0.871-0.561,1.646-1.196,2.336-1.912c0.684-0.718,1.15-1.292,1.4-1.729v-15.316
				c-1.559,0.873-3.021,1.744-4.393,2.615c-1.369,0.873-2.566,1.791-3.596,2.755c-1.027,0.969-1.836,2.057-2.428,3.271
				c-0.593,1.215-0.888,2.601-0.888,4.156c0,2.181,0.403,3.892,1.216,5.137C1090.413,212.856,1091.595,213.478,1093.153,213.478z"/>
		</g>
	</g>
	<g display="none" enable-background="new    ">
		<path display="inline" fill="#316EED" d="M374.847,219.323v-75.647h29.232v7.564H385.4v25.216h14.476v7.472H385.4v35.396
			L374.847,219.323L374.847,219.323z"/>
		<path display="inline" fill="#316EED" d="M418.274,220.07c-2.118,0-3.77-0.563-4.95-1.681c-1.185-1.121-2.008-2.521-2.477-4.203
			c-0.467-1.683-0.699-3.395-0.699-5.139v-43.707h9.991v40.721c0,1.931,0.28,3.438,0.841,4.527c0.562,1.092,1.713,1.637,3.456,1.637
			c1.12,0,2.287-0.327,3.503-0.98c1.214-0.654,2.381-1.448,3.502-2.382v-43.521h9.991v53.98h-9.991v-5.323
			c-1.744,1.683-3.723,3.114-5.932,4.296C423.301,219.477,420.889,220.07,418.274,220.07z"/>
		<path display="inline" fill="#316EED" d="M451.613,219.323v-53.98h9.993v5.323c1.805-1.682,3.797-3.113,5.977-4.296
			c2.179-1.183,4.576-1.772,7.191-1.772c2.179,0,3.844,0.56,4.997,1.681c1.149,1.121,1.961,2.521,2.428,4.202
			c0.467,1.681,0.7,3.395,0.7,5.137v43.708h-9.993V178.51c0-1.929-0.28-3.424-0.841-4.48c-0.562-1.061-1.714-1.588-3.456-1.588
			c-1.121,0-2.288,0.326-3.502,0.979c-1.216,0.653-2.384,1.447-3.502,2.382v43.521H451.613z"/>
		<path display="inline" fill="#316EED" d="M505.127,220.07c-4.545,0-7.938-1.665-10.18-4.996c-2.241-3.33-3.362-8.98-3.362-16.951
			v-10.46c0-4.107,0.341-7.922,1.027-11.438c0.685-3.519,1.976-6.335,3.876-8.452c1.896-2.116,4.684-3.175,8.357-3.175
			c1.807,0,3.455,0.403,4.95,1.214c1.494,0.81,2.833,1.807,4.018,2.986v-25.122h9.991v75.647h-9.991v-3.455
			c-1.185,1.246-2.477,2.257-3.875,3.035C508.536,219.68,506.932,220.07,505.127,220.07z M507.649,212.225
			c0.934,0,1.929-0.171,2.986-0.516c1.06-0.342,2.116-0.854,3.177-1.541v-35.396c-0.873-0.622-1.839-1.168-2.896-1.635
			c-1.06-0.469-2.211-0.7-3.456-0.7c-2.304,0-3.861,1.104-4.669,3.313c-0.81,2.211-1.214,4.872-1.214,7.984v15.224
			c0,2.491,0.14,4.748,0.42,6.771c0.28,2.022,0.854,3.61,1.729,4.764C504.598,211.65,505.905,212.225,507.649,212.225z"/>
		<path display="inline" fill="#316EED" d="M543.604,220.07c-2.115,0-3.983-0.607-5.604-1.821s-2.895-2.77-3.829-4.669
			c-0.934-1.897-1.401-3.907-1.401-6.022c0-3.362,0.563-6.194,1.683-8.499c1.121-2.305,2.662-4.249,4.623-5.838
			c1.961-1.588,4.231-2.974,6.815-4.154c2.583-1.185,5.31-2.335,8.174-3.456v-3.829c0-2.179-0.125-3.983-0.375-5.417
			c-0.25-1.431-0.764-2.505-1.541-3.222c-0.778-0.717-1.945-1.074-3.502-1.074c-1.369,0-2.476,0.313-3.314,0.935
			c-0.841,0.623-1.448,1.511-1.821,2.661c-0.374,1.153-0.561,2.507-0.561,4.063v2.709l-9.899-0.374
			c0.124-5.979,1.494-10.381,4.109-13.215c2.615-2.833,6.662-4.249,12.141-4.249c5.354,0,9.152,1.463,11.396,4.389
			c2.241,2.928,3.36,7.161,3.36,12.702v24.653c0,1.683,0.049,3.303,0.142,4.856c0.093,1.557,0.217,3.005,0.374,4.343
			c0.153,1.34,0.295,2.603,0.42,3.782h-9.153c-0.187-0.995-0.42-2.256-0.7-3.782c-0.278-1.523-0.481-2.91-0.605-4.156
			c-0.623,2.117-1.821,4.097-3.598,5.933C549.161,219.152,546.716,220.07,543.604,220.07z M547.526,211.478
			c0.995,0,1.929-0.28,2.802-0.843c0.871-0.561,1.647-1.196,2.334-1.912c0.685-0.718,1.15-1.292,1.4-1.729v-15.316
			c-1.558,0.873-3.021,1.744-4.39,2.615c-1.371,0.873-2.566,1.791-3.596,2.755c-1.027,0.969-1.837,2.057-2.428,3.271
			c-0.594,1.215-0.889,2.601-0.889,4.156c0,2.181,0.404,3.892,1.214,5.137C544.786,210.856,545.969,211.478,547.526,211.478z"/>
		<path display="inline" fill="#316EED" d="M588.432,220.07c-4.422,0-7.768-0.887-10.04-2.661c-2.271-1.775-3.799-4.28-4.574-7.519
			c-0.779-3.236-1.167-7.007-1.167-11.303v-12.421c0-4.544,0.401-8.42,1.214-11.627c0.809-3.206,2.35-5.665,4.623-7.379
			c2.271-1.711,5.588-2.565,9.944-2.565c3.925,0,6.958,0.639,9.105,1.912c2.146,1.277,3.626,3.178,4.437,5.697
			c0.811,2.521,1.214,5.65,1.214,9.386v3.177h-9.06v-3.271c0-2.365-0.156-4.231-0.467-5.604c-0.313-1.368-0.872-2.365-1.681-2.988
			c-0.812-0.622-1.964-0.934-3.456-0.934c-1.619,0-2.863,0.372-3.735,1.118c-0.872,0.747-1.447,2.01-1.729,3.782
			c-0.279,1.774-0.42,4.188-0.42,7.238v16.997c0,4.606,0.437,7.688,1.309,9.246c0.871,1.558,2.429,2.335,4.67,2.335
			c1.682,0,2.91-0.39,3.688-1.167c0.777-0.778,1.275-1.883,1.494-3.315c0.217-1.432,0.326-3.05,0.326-4.854v-4.392h9.061v3.735
			c0,3.612-0.422,6.725-1.262,9.34c-0.84,2.614-2.335,4.607-4.48,5.979C595.296,219.384,592.292,220.07,588.432,220.07z"/>
		<path display="inline" fill="#316EED" d="M612.713,157.31v-10.46h9.993v10.46H612.713z M612.713,219.323v-53.98h9.993v53.98
			H612.713z"/>
		<path display="inline" fill="#316EED" d="M648.294,220.07c-3.984,0-7.129-0.811-9.432-2.428c-2.307-1.619-3.939-3.925-4.904-6.911
			c-0.965-2.989-1.447-6.506-1.447-10.556v-15.688c0-4.047,0.482-7.565,1.447-10.554c0.965-2.989,2.6-5.291,4.904-6.911
			c2.303-1.618,5.445-2.428,9.432-2.428s7.113,0.81,9.387,2.428c2.271,1.62,3.893,3.923,4.855,6.911
			c0.964,2.986,1.448,6.507,1.448,10.554v15.688c0,4.05-0.483,7.564-1.448,10.556c-0.965,2.986-2.584,5.292-4.855,6.911
			C655.407,219.26,652.278,220.07,648.294,220.07z M648.294,212.692c1.93,0,3.283-0.563,4.063-1.683
			c0.776-1.119,1.243-2.6,1.399-4.437c0.155-1.836,0.233-3.75,0.233-5.744v-16.903c0-2.055-0.078-3.982-0.233-5.791
			c-0.156-1.805-0.623-3.281-1.399-4.436c-0.779-1.151-2.135-1.728-4.063-1.728s-3.301,0.574-4.109,1.728
			c-0.808,1.153-1.293,2.631-1.445,4.436c-0.156,1.809-0.233,3.736-0.233,5.791v16.903c0,1.994,0.077,3.908,0.233,5.744
			c0.152,1.837,0.639,3.315,1.445,4.437C644.993,212.131,646.364,212.692,648.294,212.692z M645.68,160.859l5.512-18.491h9.991
			l-10.46,18.491H645.68z"/>
		<path display="inline" fill="#316EED" d="M673.136,219.323v-53.98h9.994v5.323c1.805-1.682,3.797-3.113,5.979-4.296
			c2.178-1.183,4.574-1.772,7.189-1.772c2.178,0,3.844,0.56,4.996,1.681c1.15,1.121,1.961,2.521,2.428,4.202
			c0.468,1.681,0.701,3.395,0.701,5.137v43.708h-9.994V178.51c0-1.929-0.277-3.424-0.84-4.48c-0.562-1.06-1.713-1.588-3.455-1.588
			c-1.121,0-2.289,0.326-3.502,0.979c-1.215,0.653-2.383,1.447-3.502,2.382v43.521H673.136z"/>
		<path display="inline" fill="#316EED" d="M714.694,180.565v-10.646h10.086v10.646H714.694z M714.694,210.357V199.71h10.086v10.646
			L714.694,210.357L714.694,210.357z"/>
		<path display="inline" fill="#316EED" d="M754.759,219.323v-75.647h10.553v68.083h19.332v7.564H754.759z"/>
		<path display="inline" fill="#316EED" d="M800.706,220.07c-2.117,0-3.984-0.607-5.604-1.821c-1.618-1.214-2.895-2.77-3.826-4.669
			c-0.935-1.897-1.4-3.907-1.4-6.022c0-3.362,0.559-6.194,1.68-8.499s2.662-4.249,4.623-5.838c1.961-1.588,4.234-2.974,6.818-4.154
			c2.582-1.185,5.307-2.335,8.172-3.456v-3.829c0-2.179-0.125-3.983-0.373-5.417c-0.25-1.431-0.764-2.505-1.541-3.222
			c-0.779-0.717-1.947-1.074-3.504-1.074c-1.369,0-2.477,0.313-3.314,0.935c-0.84,0.623-1.445,1.511-1.818,2.661
			c-0.375,1.153-0.563,2.507-0.563,4.063v2.709l-9.898-0.374c0.125-5.979,1.492-10.381,4.107-13.215
			c2.615-2.833,6.662-4.249,12.143-4.249c5.354,0,9.15,1.463,11.395,4.389c2.24,2.928,3.361,7.161,3.361,12.702v24.653
			c0,1.683,0.047,3.303,0.141,4.856c0.094,1.557,0.217,3.005,0.373,4.343c0.154,1.34,0.295,2.603,0.42,3.782h-9.151
			c-0.187-0.995-0.421-2.256-0.698-3.782c-0.281-1.523-0.484-2.91-0.607-4.156c-0.623,2.117-1.822,4.097-3.596,5.933
			C806.263,219.152,803.819,220.07,800.706,220.07z M804.63,211.478c0.994,0,1.928-0.28,2.801-0.843
			c0.871-0.561,1.648-1.196,2.336-1.912c0.686-0.718,1.15-1.292,1.4-1.729v-15.316c-1.557,0.873-3.021,1.744-4.391,2.615
			c-1.369,0.873-2.568,1.791-3.598,2.755c-1.025,0.969-1.836,2.057-2.428,3.271c-0.592,1.215-0.887,2.601-0.887,4.156
			c0,2.181,0.403,3.892,1.215,5.137C801.89,210.856,803.071,211.478,804.63,211.478z"/>
		<path display="inline" fill="#316EED" d="M852.163,219.323v-53.98h9.246v5.138c1.805-2.056,3.797-3.579,5.979-4.576
			c2.18-0.995,4.42-1.494,6.725-1.494c1.991,0,3.782,0.499,5.37,1.494c1.589,0.997,2.724,2.771,3.407,5.324
			c1.932-2.366,4.031-4.096,6.307-5.186c2.271-1.089,4.65-1.635,7.145-1.635c1.742,0,3.33,0.421,4.763,1.261
			c1.433,0.841,2.584,2.183,3.457,4.019c0.87,1.837,1.308,4.249,1.308,7.235v42.4h-9.152v-41.746c0-2.615-0.42-4.374-1.26-5.277
			c-0.842-0.899-1.979-1.354-3.41-1.354c-1.369,0-2.801,0.39-4.295,1.167c-1.494,0.779-2.865,1.854-4.108,3.222
			c0,0.25,0,0.499,0,0.747c0,0.25,0,0.53,0,0.841v42.4h-9.151v-41.746c0-2.615-0.422-4.374-1.263-5.277
			c-0.841-0.899-1.978-1.354-3.407-1.354c-1.371,0-2.787,0.39-4.25,1.167c-1.463,0.779-2.85,1.854-4.156,3.222v43.988H852.163z"/>
		<path display="inline" fill="#316EED" d="M925.384,220.07c-2.117,0-3.985-0.607-5.604-1.821c-1.621-1.214-2.896-2.77-3.83-4.669
			c-0.936-1.897-1.4-3.907-1.4-6.022c0-3.362,0.563-6.194,1.683-8.499s2.661-4.249,4.623-5.838c1.961-1.588,4.231-2.974,6.815-4.154
			c2.584-1.184,5.31-2.335,8.172-3.456v-3.829c0-2.179-0.125-3.983-0.373-5.417c-0.25-1.431-0.764-2.505-1.541-3.222
			c-0.778-0.717-1.946-1.074-3.502-1.074c-1.371,0-2.475,0.313-3.315,0.935c-0.841,0.623-1.446,1.511-1.819,2.661
			c-0.373,1.153-0.562,2.507-0.562,4.063v2.709l-9.897-0.374c0.123-5.979,1.494-10.381,4.106-13.215
			c2.614-2.833,6.661-4.249,12.144-4.249c5.354,0,9.151,1.463,11.393,4.389c2.242,2.928,3.363,7.161,3.363,12.702v24.653
			c0,1.683,0.047,3.303,0.139,4.856c0.095,1.557,0.22,3.005,0.375,4.343c0.154,1.34,0.295,2.603,0.42,3.782h-9.15
			c-0.188-0.995-0.42-2.256-0.701-3.782c-0.279-1.523-0.482-2.91-0.607-4.156c-0.622,2.117-1.818,4.097-3.596,5.933
			C930.939,219.152,928.495,220.07,925.384,220.07z M929.306,211.478c0.996,0,1.932-0.28,2.805-0.843
			c0.87-0.561,1.646-1.196,2.334-1.912c0.684-0.718,1.15-1.292,1.398-1.729v-15.316c-1.557,0.873-3.02,1.744-4.389,2.615
			c-1.371,0.873-2.568,1.791-3.596,2.755c-1.027,0.969-1.839,2.057-2.43,3.271c-0.594,1.215-0.889,2.601-0.889,4.156
			c0,2.181,0.404,3.892,1.215,5.137C926.564,210.856,927.749,211.478,929.306,211.478z"/>
		<path display="inline" fill="#316EED" d="M955.454,219.323v-53.98h9.994v5.323c1.805-1.682,3.797-3.113,5.977-4.296
			c2.181-1.183,4.576-1.772,7.191-1.772c2.178,0,3.844,0.56,4.996,1.681c1.15,1.121,1.961,2.521,2.428,4.202
			c0.469,1.682,0.701,3.395,0.701,5.137v43.708h-9.992V178.51c0-1.929-0.281-3.424-0.842-4.48c-0.563-1.06-1.714-1.588-3.455-1.588
			c-1.121,0-2.287,0.326-3.502,0.979c-1.216,0.653-2.382,1.447-3.502,2.382v43.521H955.454z"/>
		<path display="inline" fill="#316EED" d="M1006.167,220.07c-2.117,0-3.986-0.607-5.604-1.821c-1.619-1.214-2.896-2.77-3.83-4.669
			c-0.934-1.897-1.398-3.907-1.398-6.022c0-3.362,0.561-6.194,1.682-8.499s2.662-4.249,4.623-5.838
			c1.961-1.588,4.232-2.974,6.816-4.154c2.584-1.184,5.309-2.335,8.172-3.456v-3.829c0-2.179-0.125-3.983-0.373-5.417
			c-0.25-1.431-0.764-2.505-1.541-3.222c-0.779-0.717-1.947-1.074-3.502-1.074c-1.371,0-2.477,0.313-3.316,0.935
			c-0.84,0.623-1.445,1.511-1.818,2.661c-0.373,1.153-0.563,2.507-0.563,4.063v2.709l-9.896-0.374
			c0.123-5.979,1.494-10.381,4.105-13.215c2.615-2.833,6.662-4.249,12.145-4.249c5.354,0,9.15,1.463,11.393,4.389
			c2.242,2.928,3.363,7.161,3.363,12.702v24.653c0,1.683,0.047,3.303,0.139,4.856c0.095,1.557,0.22,3.005,0.375,4.343
			c0.154,1.34,0.295,2.603,0.42,3.782h-9.15c-0.188-0.995-0.42-2.256-0.701-3.782c-0.279-1.523-0.482-2.91-0.607-4.156
			c-0.621,2.117-1.818,4.097-3.596,5.933C1011.724,219.152,1009.278,220.07,1006.167,220.07z M1010.089,211.478
			c0.996,0,1.931-0.28,2.803-0.843c0.871-0.561,1.648-1.196,2.334-1.912c0.686-0.718,1.152-1.292,1.4-1.729v-15.316
			c-1.557,0.873-3.021,1.744-4.389,2.615c-1.371,0.873-2.568,1.791-3.598,2.755c-1.025,0.969-1.838,2.057-2.428,3.271
			c-0.594,1.215-0.889,2.601-0.889,4.156c0,2.181,0.403,3.892,1.215,5.137C1007.349,210.856,1008.532,211.478,1010.089,211.478z"/>
		<path display="inline" fill="#316EED" d="M1048.753,220.07c-4.545,0-7.938-1.665-10.18-4.996c-2.24-3.33-3.361-8.98-3.361-16.951
			v-10.46c0-4.107,0.342-7.922,1.027-11.438c0.684-3.519,1.975-6.335,3.875-8.452c1.896-2.116,4.686-3.175,8.357-3.175
			c1.807,0,3.455,0.403,4.949,1.214c1.494,0.81,2.832,1.807,4.017,2.986v-25.122h9.993v75.647h-9.993v-3.455
			c-1.185,1.246-2.476,2.257-3.875,3.035C1052.163,219.68,1050.561,220.07,1048.753,220.07z M1051.274,212.225
			c0.936,0,1.93-0.171,2.988-0.516c1.059-0.342,2.115-0.854,3.175-1.541v-35.396c-0.87-0.622-1.837-1.168-2.896-1.635
			c-1.059-0.469-2.211-0.7-3.455-0.7c-2.305,0-3.86,1.104-4.67,3.313c-0.812,2.211-1.215,4.872-1.215,7.984v15.224
			c0,2.491,0.141,4.748,0.42,6.771c0.281,2.022,0.854,3.61,1.729,4.764C1048.224,211.65,1049.532,212.225,1051.274,212.225z"/>
		<path display="inline" fill="#316EED" d="M1087.229,220.07c-2.115,0-3.982-0.607-5.604-1.821s-2.895-2.77-3.828-4.669
			c-0.933-1.897-1.4-3.907-1.4-6.022c0-3.362,0.561-6.194,1.682-8.499s2.662-4.249,4.623-5.838c1.961-1.588,4.232-2.974,6.816-4.154
			c2.582-1.185,5.309-2.335,8.174-3.456v-3.829c0-2.179-0.125-3.983-0.373-5.417c-0.25-1.431-0.766-2.505-1.541-3.222
			c-0.779-0.717-1.947-1.074-3.506-1.074c-1.367,0-2.475,0.313-3.313,0.935c-0.84,0.623-1.447,1.511-1.82,2.661
			c-0.375,1.153-0.561,2.507-0.561,4.063v2.709l-9.9-0.374c0.125-5.979,1.494-10.381,4.109-13.215
			c2.615-2.833,6.662-4.249,12.141-4.249c5.354,0,9.152,1.463,11.396,4.389c2.24,2.928,3.359,7.161,3.359,12.702v24.653
			c0,1.683,0.049,3.303,0.143,4.856c0.094,1.557,0.217,3.005,0.373,4.343c0.154,1.34,0.295,2.603,0.42,3.782h-9.152
			c-0.186-0.995-0.42-2.256-0.699-3.782c-0.279-1.523-0.482-2.91-0.605-4.156c-0.623,2.117-1.822,4.097-3.596,5.933
			C1092.786,219.152,1090.343,220.07,1087.229,220.07z M1091.153,211.478c0.993,0,1.928-0.28,2.801-0.843
			c0.871-0.561,1.646-1.196,2.336-1.912c0.684-0.718,1.15-1.292,1.4-1.729v-15.316c-1.559,0.873-3.021,1.744-4.393,2.615
			c-1.369,0.873-2.566,1.791-3.596,2.755c-1.027,0.969-1.836,2.057-2.428,3.271c-0.593,1.215-0.888,2.601-0.888,4.156
			c0,2.181,0.403,3.892,1.216,5.137C1088.413,210.856,1089.595,211.478,1091.153,211.478z"/>
	</g>
</g>
<g id="Capa_2_1_">
	<g>
		<path fill="#31424D" d="M411.805,226.323h-39.878v-85.63h20.551v68.067h19.328V226.323z M381.926,216.323h0.551v-65.63h-0.551
			V216.323z"/>
		<path fill="#31424D" d="M422.863,227.07c-3.213,0-6.107-0.949-8.603-2.822c-2.244-1.681-4.034-3.855-5.314-6.462
			c-1.27-2.58-1.914-5.349-1.914-8.228c0-4.108,0.735-7.703,2.184-10.684c1.44-2.958,3.45-5.493,5.973-7.535
			c0.887-0.719,1.832-1.403,2.831-2.052l-10.809-0.409l0.102-4.914c0.149-7.203,1.978-12.754,5.433-16.499
			c3.588-3.887,8.908-5.858,15.813-5.858c6.965,0,12.133,2.135,15.36,6.347c2.915,3.808,4.393,9.103,4.393,15.74v24.649
			c0,1.577,0.044,3.109,0.131,4.557c0.088,1.464,0.206,2.831,0.349,4.063c0.157,1.359,0.299,2.636,0.426,3.831l0.587,5.528h-18.859
			l-0.217-1.155C428.495,226.431,425.863,227.07,422.863,227.07z M417.082,208.037c-0.033,0.488-0.049,0.995-0.049,1.521
			c0,1.354,0.29,2.602,0.887,3.815c0.587,1.194,1.352,2.134,2.339,2.873c0.379,0.284,0.777,0.491,1.212,0.627
			c-0.941-0.658-1.76-1.511-2.428-2.541C417.931,212.625,417.272,210.511,417.082,208.037z M428.321,203.15
			c-0.375,0.422-0.677,0.871-0.915,1.36c-0.255,0.522-0.383,1.183-0.383,1.967c0,0.813,0.077,1.374,0.165,1.751
			c0.415-0.292,0.784-0.608,1.121-0.96c0.004-0.005,0.008-0.009,0.013-0.014V203.15z M427.568,179.095
			c-0.012,0.031-0.027,0.071-0.042,0.12c-0.207,0.639-0.316,1.51-0.316,2.519v2.971c0.368-0.156,0.739-0.311,1.111-0.465v-0.452
			c0-1.877-0.101-3.411-0.3-4.563c-0.009-0.053-0.019-0.102-0.028-0.146C427.835,179.075,427.666,179.084,427.568,179.095z"/>
		<polygon fill="#31424D" points="500.079,226.323 499.159,226.323 493.115,226.323 488.764,207.511 488.477,226.323 
			469.869,226.323 471.455,140.693 479.786,140.693 481.513,140.698 483.574,140.693 490.755,140.693 500.096,183.606 
			509.501,140.693 516.719,140.693 518.747,140.682 520.465,140.693 528.703,140.693 530.289,226.323 511.775,226.323 
			511.482,207.236 507.035,226.323 500.971,226.323 		"/>
		<path fill="#31424D" d="M545.643,227.07c-3.212,0-6.107-0.949-8.603-2.821c-2.245-1.683-4.034-3.857-5.315-6.463
			c-1.27-2.58-1.914-5.349-1.914-8.228c0-4.108,0.735-7.703,2.184-10.684c1.44-2.957,3.449-5.491,5.972-7.534
			c0.888-0.719,1.833-1.404,2.832-2.053l-10.809-0.409l0.102-4.914c0.149-7.203,1.977-12.754,5.432-16.499
			c3.588-3.887,8.909-5.858,15.813-5.858c6.966,0,12.134,2.136,15.36,6.348c2.914,3.806,4.392,9.102,4.392,15.739v24.649
			c0,1.574,0.044,3.106,0.132,4.555c0.087,1.465,0.204,2.83,0.348,4.063c0.158,1.36,0.3,2.638,0.427,3.835l0.584,5.526h-18.852
			l-0.218-1.157C551.276,226.431,548.643,227.07,545.643,227.07z M539.86,208.037c-0.033,0.488-0.049,0.995-0.049,1.521
			c0,1.354,0.29,2.602,0.887,3.815c0.587,1.194,1.352,2.134,2.339,2.873c0.379,0.284,0.777,0.491,1.212,0.627
			c-0.941-0.658-1.76-1.51-2.428-2.54C540.709,212.625,540.051,210.511,539.86,208.037z M551.1,203.15
			c-0.375,0.422-0.678,0.871-0.916,1.36c-0.254,0.521-0.382,1.182-0.382,1.967c0,0.812,0.077,1.374,0.165,1.751
			c0.414-0.292,0.79-0.613,1.12-0.959c0.004-0.005,0.009-0.01,0.014-0.015V203.15z M550.347,179.095
			c-0.012,0.031-0.026,0.07-0.042,0.118c-0.208,0.641-0.317,1.511-0.317,2.521v2.971c0.368-0.156,0.739-0.311,1.111-0.465v-0.452
			c0-1.875-0.101-3.409-0.301-4.563c-0.009-0.053-0.019-0.102-0.028-0.146C550.608,179.073,550.444,179.084,550.347,179.095z"/>
		<path fill="#31424D" d="M611.986,226.323h-19.991V180.52c0-0.338-0.012-0.629-0.03-0.877c-0.126,0.054-0.259,0.117-0.396,0.19
			c-0.293,0.158-0.584,0.328-0.872,0.51v45.979h-19.99v-63.968h19.99v0.939c2.53-1.12,5.27-1.687,8.165-1.687
			c3.514,0,6.367,1.041,8.48,3.095c1.793,1.747,3.057,3.915,3.761,6.45c0.586,2.108,0.883,4.287,0.883,6.473V226.323z
			 M598.949,171.609c0.787,0.714,1.302,1.48,1.624,2.089c0.882,1.669,1.345,3.692,1.413,6.17v-2.242
			c0-1.282-0.174-2.561-0.518-3.797c-0.228-0.819-0.587-1.459-1.1-1.958C600.305,171.807,599.897,171.619,598.949,171.609z"/>
		<path fill="#31424D" d="M626.406,227.07c-3.213,0-6.107-0.949-8.603-2.821c-2.246-1.683-4.035-3.857-5.315-6.463
			c-1.27-2.58-1.913-5.35-1.913-8.228c0-4.111,0.735-7.706,2.185-10.685c1.438-2.955,3.447-5.49,5.971-7.533
			c0.888-0.719,1.833-1.404,2.832-2.053l-10.809-0.409l0.102-4.914c0.149-7.203,1.978-12.754,5.433-16.499
			c3.589-3.887,8.908-5.858,15.813-5.858c6.966,0,12.134,2.136,15.36,6.348c2.914,3.806,4.392,9.102,4.392,15.739v24.649
			c0,1.574,0.044,3.106,0.132,4.555c0.087,1.465,0.204,2.83,0.348,4.063c0.158,1.36,0.3,2.638,0.427,3.835l0.584,5.526h-18.852
			l-0.219-1.157C632.04,226.431,629.407,227.07,626.406,227.07z M620.624,208.04c-0.032,0.487-0.049,0.993-0.049,1.519
			c0,1.354,0.29,2.602,0.887,3.816c0.587,1.193,1.353,2.133,2.34,2.872c0.378,0.284,0.777,0.491,1.211,0.627
			c-0.94-0.658-1.76-1.51-2.428-2.54C621.474,212.626,620.815,210.512,620.624,208.04z M631.863,203.15
			c-0.375,0.422-0.678,0.871-0.915,1.36c-0.255,0.521-0.383,1.182-0.383,1.967c0,0.812,0.077,1.374,0.165,1.751
			c0.413-0.292,0.789-0.613,1.119-0.959c0.005-0.005,0.009-0.01,0.014-0.015V203.15z M631.111,179.095
			c-0.013,0.031-0.027,0.07-0.042,0.118c-0.208,0.641-0.317,1.511-0.317,2.521v2.971c0.368-0.156,0.738-0.311,1.111-0.465v-0.452
			c0-1.875-0.102-3.409-0.301-4.563c-0.009-0.053-0.019-0.102-0.028-0.146C631.375,179.073,631.208,179.084,631.111,179.095z"/>
		<path fill="#31424D" d="M668.982,227.07c-6.2,0-11.154-2.491-14.326-7.203c-2.835-4.214-4.213-10.67-4.213-19.739v-10.457
			c0-4.412,0.377-8.582,1.12-12.394c0.856-4.4,2.559-8.045,5.061-10.833c2.878-3.208,6.941-4.835,12.078-4.835
			c1.37,0,2.695,0.165,3.964,0.494v-21.409h19.99v85.63h-18.838C672.31,226.82,670.691,227.07,668.982,227.07z M671.408,209.225
			c0.3,0.008,0.773-0.047,1.258-0.183V179.69c-0.386-0.156-0.816-0.234-1.31-0.238c-0.004,0.01-0.008,0.021-0.012,0.031
			c-0.604,1.647-0.91,3.754-0.91,6.266v15.22c0,2.253,0.125,4.299,0.373,6.083C670.97,208.222,671.224,208.881,671.408,209.225z"/>
		<path fill="#31424D" d="M707.45,227.07c-3.213,0-6.107-0.949-8.603-2.821c-2.246-1.683-4.035-3.857-5.315-6.463
			c-1.27-2.581-1.913-5.35-1.913-8.228c0-4.111,0.735-7.706,2.185-10.685c1.438-2.955,3.447-5.49,5.971-7.533
			c0.888-0.719,1.833-1.404,2.832-2.053l-10.809-0.409l0.102-4.914c0.149-7.203,1.978-12.754,5.433-16.499
			c3.589-3.887,8.908-5.858,15.813-5.858c6.966,0,12.134,2.136,15.36,6.348c2.914,3.806,4.392,9.102,4.392,15.739v24.649
			c0,1.573,0.044,3.105,0.132,4.555c0.087,1.465,0.204,2.83,0.348,4.063c0.158,1.36,0.3,2.638,0.427,3.835l0.584,5.526h-18.852
			l-0.219-1.157C713.084,226.431,710.451,227.07,707.45,227.07z M701.668,208.04c-0.032,0.487-0.049,0.993-0.049,1.519
			c0,1.354,0.29,2.602,0.887,3.816c0.587,1.193,1.353,2.133,2.34,2.872c0.378,0.284,0.777,0.491,1.211,0.627
			c-0.94-0.658-1.759-1.51-2.428-2.54C702.518,212.626,701.859,210.512,701.668,208.04z M712.907,203.15
			c-0.375,0.422-0.678,0.871-0.915,1.36c-0.255,0.521-0.383,1.182-0.383,1.967c0,0.812,0.077,1.374,0.165,1.751
			c0.413-0.292,0.789-0.613,1.119-0.959c0.005-0.005,0.009-0.01,0.014-0.015V203.15z M712.155,179.095
			c-0.013,0.031-0.027,0.07-0.042,0.118c-0.208,0.64-0.317,1.511-0.317,2.521v2.971c0.368-0.156,0.739-0.311,1.111-0.465v-0.452
			c0-1.875-0.102-3.409-0.301-4.563c-0.009-0.053-0.019-0.102-0.028-0.146C712.418,179.073,712.252,179.084,712.155,179.095z"/>
		<path fill="#31424D" d="M775.286,226.323h-20.552v-85.63h39.226v17.563h-18.674v15.21h14.472v17.469h-14.472V226.323z
			 M764.734,216.323h0.552v-65.63h-0.552V216.323z"/>
		<path fill="#31424D" d="M810.247,227.07c-5.017,0-9.157-1.123-12.307-3.338c-3.2-2.249-5.483-5.434-6.784-9.464
			c-1.12-3.466-1.688-7.533-1.688-12.086v-15.687c0-4.553,0.568-8.62,1.689-12.088c1.299-4.026,3.581-7.21,6.783-9.462
			c3.152-2.215,7.292-3.337,12.307-3.337c5.023,0,9.156,1.128,12.283,3.354c3.157,2.25,5.415,5.428,6.714,9.445
			c1.121,3.478,1.689,7.543,1.689,12.089v15.687c0,4.546-0.568,8.611-1.688,12.086c-1.301,4.022-3.559,7.199-6.713,9.446
			C819.405,225.941,815.272,227.07,810.247,227.07z M809.985,209.686c0.124,0.008,0.308,0.011,0.444,0.004
			c0.115-0.32,0.236-0.81,0.297-1.533c0.144-1.691,0.216-3.481,0.216-5.321v-16.9c0-1.897-0.072-3.7-0.215-5.359
			c-0.054-0.628-0.166-1.172-0.324-1.589c-0.123-0.003-0.283-0.003-0.391,0.004c-0.168,0.403-0.284,0.941-0.34,1.585
			c-0.143,1.649-0.215,3.451-0.215,5.359v16.9c0,1.851,0.072,3.64,0.216,5.318C809.736,208.894,809.865,209.38,809.985,209.686z"/>
		<path fill="#31424D" d="M842.833,227.07c-3.431,0-6.253-1.026-8.389-3.052c-1.844-1.746-3.141-3.932-3.852-6.493
			c-0.586-2.108-0.883-4.286-0.883-6.473v-48.697h19.99v45.709c0,0.378,0.014,0.698,0.036,0.969c0.125-0.054,0.256-0.116,0.39-0.188
			c0.293-0.158,0.584-0.328,0.872-0.51v-45.979h19.99v63.968h-19.99v-0.926C848.453,226.509,845.715,227.07,842.833,227.07z
			 M839.71,208.753v2.3c0,1.282,0.174,2.56,0.518,3.797c0.225,0.809,0.572,1.415,1.095,1.91c0.148,0.141,0.614,0.303,1.448,0.311
			c-0.82-0.746-1.349-1.553-1.677-2.19C840.235,213.211,839.78,211.201,839.71,208.753z"/>
		<path fill="#31424D" d="M912.443,226.323h-19.991V180.52c0-0.338-0.012-0.629-0.03-0.877c-0.126,0.054-0.259,0.117-0.396,0.19
			c-0.293,0.158-0.584,0.328-0.872,0.51v45.979h-19.99v-63.968h19.99v0.939c2.53-1.12,5.27-1.687,8.165-1.687
			c3.514,0,6.367,1.041,8.48,3.095c1.793,1.747,3.057,3.915,3.761,6.45c0.586,2.108,0.883,4.287,0.883,6.473V226.323z
			 M899.406,171.609c0.787,0.714,1.302,1.48,1.624,2.089c0.882,1.669,1.345,3.692,1.413,6.17v-2.242
			c0-1.282-0.174-2.561-0.518-3.797c-0.228-0.819-0.587-1.459-1.1-1.958C900.762,171.807,900.354,171.619,899.406,171.609z"/>
		<path fill="#31424D" d="M929.665,227.07c-6.2,0-11.154-2.491-14.326-7.203c-2.835-4.214-4.213-10.67-4.213-19.739v-10.457
			c0-4.412,0.377-8.582,1.12-12.394c0.856-4.4,2.559-8.045,5.061-10.833c2.878-3.208,6.941-4.835,12.078-4.835
			c1.37,0,2.695,0.165,3.964,0.494v-21.409h19.99v85.63h-18.838C932.992,226.82,931.374,227.07,929.665,227.07z M932.091,209.225
			c0.298,0.008,0.773-0.047,1.258-0.183V179.69c-0.386-0.156-0.816-0.234-1.31-0.238c-0.004,0.01-0.008,0.021-0.012,0.031
			c-0.604,1.647-0.91,3.754-0.91,6.266v15.22c0,2.253,0.125,4.299,0.373,6.083C931.652,208.222,931.906,208.881,932.091,209.225z"/>
		<path fill="#31424D" d="M968.133,227.07c-3.213,0-6.107-0.949-8.603-2.821c-2.246-1.683-4.035-3.857-5.315-6.463
			c-1.27-2.58-1.913-5.35-1.913-8.228c0-4.111,0.735-7.706,2.185-10.685c1.438-2.955,3.447-5.49,5.971-7.533
			c0.888-0.719,1.833-1.404,2.832-2.053l-10.809-0.409l0.102-4.914c0.149-7.203,1.978-12.754,5.433-16.499
			c3.589-3.887,8.908-5.858,15.813-5.858c6.966,0,12.134,2.136,15.36,6.348c2.914,3.806,4.392,9.102,4.392,15.739v24.649
			c0,1.574,0.044,3.106,0.132,4.555c0.087,1.465,0.204,2.83,0.348,4.063c0.158,1.36,0.3,2.638,0.427,3.835l0.584,5.526h-18.852
			L976,225.166C973.767,226.431,971.134,227.07,968.133,227.07z M962.351,208.04c-0.032,0.487-0.049,0.993-0.049,1.519
			c0,1.354,0.29,2.602,0.887,3.816c0.587,1.193,1.353,2.133,2.34,2.872c0.378,0.284,0.777,0.491,1.211,0.627
			c-0.94-0.658-1.76-1.51-2.428-2.54C963.2,212.626,962.542,210.512,962.351,208.04z M973.59,203.15
			c-0.375,0.422-0.678,0.871-0.915,1.36c-0.255,0.521-0.383,1.182-0.383,1.967c0,0.812,0.077,1.374,0.165,1.751
			c0.413-0.292,0.789-0.613,1.119-0.959c0.005-0.005,0.009-0.01,0.014-0.015V203.15z M972.838,179.095
			c-0.013,0.031-0.027,0.07-0.042,0.118c-0.208,0.641-0.317,1.511-0.317,2.521v2.971c0.368-0.156,0.738-0.311,1.111-0.465v-0.452
			c0-1.875-0.102-3.409-0.301-4.563c-0.009-0.053-0.019-0.102-0.028-0.146C973.102,179.073,972.935,179.084,972.838,179.095z"/>
		<path fill="#31424D" d="M1011.829,227.07c-3.729,0-6.892-0.785-9.397-2.333c-2.632-1.627-4.564-3.938-5.744-6.869
			c-1.015-2.509-1.529-5.432-1.529-8.683v-30.2h-5.696v-16.63h5.696v-15.78h19.99v15.78h8.684v16.63h-8.684v29.546
			c0,0.353,0.013,0.645,0.032,0.883c0.322-0.004,0.715-0.027,1.167-0.071c0.652-0.061,1.278-0.122,1.892-0.184l5.499-0.552v17.21
			l-4.26,0.638c-1.353,0.202-2.616,0.355-3.758,0.455C1014.524,227.016,1013.214,227.07,1011.829,227.07z M1005.158,209.204
			c0.002,1.953,0.271,3.609,0.803,4.924c0.211,0.522,0.473,0.961,0.802,1.331C1005.764,213.858,1005.235,211.798,1005.158,209.204z"
			/>
		<rect x="1021.861" y="143.868" fill="#31424D" width="19.991" height="82.455"/>
		<path fill="#31424D" d="M1062.435,227.07c-5.017,0-9.157-1.123-12.307-3.338c-3.2-2.249-5.483-5.434-6.784-9.464
			c-1.12-3.466-1.688-7.533-1.688-12.086v-15.687c0-4.553,0.568-8.62,1.689-12.088c1.299-4.026,3.581-7.21,6.783-9.462
			c3.152-2.215,7.292-3.337,12.307-3.337c5.023,0,9.156,1.128,12.283,3.354c3.157,2.25,5.415,5.428,6.714,9.445
			c1.121,3.478,1.689,7.543,1.689,12.089v15.687c0,4.546-0.568,8.611-1.688,12.086c-1.301,4.022-3.559,7.199-6.713,9.446
			C1071.593,225.941,1067.46,227.07,1062.435,227.07z M1062.173,209.686c0.124,0.008,0.309,0.011,0.444,0.004
			c0.115-0.32,0.236-0.81,0.297-1.533c0.144-1.691,0.216-3.481,0.216-5.321v-16.9c0-1.897-0.072-3.7-0.215-5.359
			c-0.054-0.628-0.166-1.172-0.324-1.589c-0.124-0.003-0.282-0.003-0.391,0.004c-0.168,0.403-0.284,0.941-0.34,1.585
			c-0.143,1.649-0.215,3.451-0.215,5.359v16.9c0,1.851,0.072,3.64,0.216,5.318C1061.924,208.894,1062.053,209.38,1062.173,209.686z"
			/>
		<path fill="#31424D" d="M1123.549,226.323h-19.991V180.52c0-0.338-0.012-0.629-0.03-0.877c-0.126,0.054-0.259,0.117-0.396,0.19
			c-0.293,0.158-0.584,0.328-0.872,0.51v45.979h-19.99v-63.968h19.99v0.939c2.53-1.12,5.27-1.687,8.165-1.687
			c3.514,0,6.367,1.041,8.48,3.095c1.793,1.747,3.057,3.915,3.761,6.45c0.586,2.108,0.883,4.287,0.883,6.473V226.323z
			 M1110.512,171.609c0.787,0.714,1.302,1.48,1.624,2.089c0.882,1.669,1.345,3.692,1.413,6.17v-2.242
			c0-1.282-0.174-2.561-0.518-3.797c-0.228-0.819-0.587-1.459-1.1-1.958C1111.867,171.807,1111.46,171.619,1110.512,171.609z"/>
	</g>
	<g>
		<path fill="#316EED" d="M374.926,219.323v-75.63h10.551v68.067h19.328v7.563H374.926z"/>
		<path fill="#316EED" d="M420.863,220.07c-2.117,0-3.984-0.607-5.602-1.821c-1.62-1.213-2.895-2.769-3.828-4.668
			c-0.934-1.898-1.401-3.905-1.401-6.022c0-3.361,0.561-6.193,1.681-8.497c1.121-2.302,2.661-4.248,4.622-5.835
			c1.96-1.588,4.232-2.972,6.816-4.155c2.582-1.182,5.306-2.334,8.17-3.455v-3.828c0-2.178-0.125-3.982-0.374-5.415
			c-0.25-1.431-0.763-2.505-1.541-3.221c-0.779-0.715-1.946-1.074-3.501-1.074c-1.37,0-2.474,0.312-3.314,0.934
			c-0.84,0.623-1.447,1.51-1.821,2.661c-0.374,1.152-0.561,2.506-0.561,4.062v2.708l-9.897-0.374
			c0.124-5.976,1.494-10.378,4.108-13.211c2.614-2.832,6.66-4.249,12.138-4.249c5.353,0,9.15,1.463,11.391,4.388
			c2.241,2.927,3.361,7.159,3.361,12.699v24.649c0,1.681,0.046,3.3,0.14,4.855c0.094,1.557,0.218,3.004,0.374,4.342
			c0.155,1.339,0.295,2.6,0.42,3.781h-9.15c-0.187-0.995-0.42-2.256-0.7-3.781c-0.28-1.524-0.483-2.909-0.607-4.155
			c-0.623,2.117-1.821,4.094-3.595,5.929C426.419,219.152,423.975,220.07,420.863,220.07z M424.785,211.48
			c0.995,0,1.929-0.28,2.801-0.841c0.871-0.56,1.648-1.197,2.334-1.914c0.684-0.715,1.151-1.291,1.4-1.728v-15.313
			c-1.557,0.873-3.02,1.743-4.389,2.614c-1.37,0.873-2.567,1.79-3.595,2.755c-1.027,0.966-1.836,2.054-2.427,3.268
			c-0.592,1.214-0.887,2.6-0.887,4.155c0,2.18,0.404,3.891,1.214,5.135C422.045,210.858,423.228,211.48,424.785,211.48z"/>
		<path fill="#316EED" d="M472.962,219.323l1.4-75.63h10.364l13.352,61.345l13.445-61.345h10.271l1.4,75.63h-8.497l-0.84-54.901
			l-12.792,54.901h-5.976l-12.698-54.901l-0.84,54.901H472.962z"/>
		<path fill="#316EED" d="M543.643,220.07c-2.117,0-3.984-0.607-5.603-1.821c-1.619-1.213-2.895-2.769-3.828-4.668
			c-0.934-1.898-1.401-3.905-1.401-6.022c0-3.361,0.561-6.193,1.681-8.497c1.121-2.302,2.662-4.248,4.622-5.835
			c1.961-1.588,4.232-2.972,6.816-4.155c2.582-1.182,5.306-2.334,8.17-3.455v-3.828c0-2.178-0.126-3.982-0.374-5.415
			c-0.249-1.431-0.763-2.505-1.54-3.221c-0.779-0.715-1.946-1.074-3.501-1.074c-1.37,0-2.475,0.312-3.315,0.934
			c-0.84,0.623-1.447,1.51-1.82,2.661c-0.374,1.152-0.561,2.506-0.561,4.062v2.708l-9.897-0.374
			c0.124-5.976,1.494-10.378,4.108-13.211c2.614-2.832,6.66-4.249,12.139-4.249c5.353,0,9.15,1.463,11.391,4.388
			c2.241,2.927,3.361,7.159,3.361,12.699v24.649c0,1.681,0.047,3.3,0.141,4.855c0.093,1.557,0.217,3.004,0.373,4.342
			c0.155,1.339,0.295,2.6,0.42,3.781h-9.149c-0.188-0.995-0.421-2.256-0.701-3.781c-0.279-1.524-0.482-2.909-0.606-4.155
			c-0.623,2.117-1.82,4.094-3.595,5.929C549.197,219.152,546.754,220.07,543.643,220.07z M547.563,211.48
			c0.995,0,1.929-0.28,2.802-0.841c0.87-0.56,1.648-1.197,2.334-1.914c0.684-0.715,1.15-1.291,1.4-1.728v-15.313
			c-1.557,0.873-3.02,1.743-4.389,2.614c-1.37,0.873-2.567,1.79-3.595,2.755c-1.027,0.966-1.837,2.054-2.428,3.268
			c-0.592,1.214-0.887,2.6-0.887,4.155c0,2.18,0.404,3.891,1.214,5.135C544.824,210.858,546.007,211.48,547.563,211.48z"/>
		<path fill="#316EED" d="M573.707,219.323v-53.968h9.99v5.322c1.805-1.681,3.797-3.112,5.976-4.295
			c2.179-1.182,4.575-1.774,7.189-1.774c2.179,0,3.843,0.56,4.996,1.681c1.15,1.121,1.961,2.521,2.428,4.202s0.7,3.394,0.7,5.135
			v43.697h-9.991V178.52c0-1.929-0.28-3.422-0.84-4.482c-0.561-1.058-1.713-1.587-3.455-1.587c-1.12,0-2.287,0.327-3.501,0.98
			c-1.214,0.654-2.381,1.447-3.502,2.382v43.51H573.707z"/>
		<path fill="#316EED" d="M624.406,220.07c-2.117,0-3.984-0.607-5.603-1.821c-1.619-1.213-2.895-2.769-3.828-4.668
			c-0.934-1.898-1.4-3.905-1.4-6.022c0-3.361,0.56-6.193,1.681-8.497c1.12-2.302,2.661-4.248,4.621-5.835
			c1.961-1.588,4.232-2.972,6.816-4.155c2.582-1.182,5.306-2.334,8.17-3.455v-3.828c0-2.178-0.126-3.982-0.374-5.415
			c-0.249-1.431-0.763-2.505-1.54-3.221c-0.779-0.715-1.946-1.074-3.501-1.074c-1.37,0-2.475,0.312-3.315,0.934
			c-0.84,0.623-1.447,1.51-1.82,2.661c-0.374,1.152-0.561,2.506-0.561,4.062v2.708l-9.897-0.374
			c0.124-5.976,1.494-10.378,4.108-13.211c2.614-2.832,6.66-4.249,12.139-4.249c5.353,0,9.15,1.463,11.391,4.388
			c2.241,2.927,3.361,7.159,3.361,12.699v24.649c0,1.681,0.047,3.3,0.141,4.855c0.093,1.557,0.217,3.004,0.373,4.342
			c0.155,1.339,0.295,2.6,0.42,3.781h-9.149c-0.188-0.995-0.421-2.256-0.701-3.781c-0.279-1.524-0.482-2.909-0.606-4.155
			c-0.623,2.117-1.82,4.094-3.595,5.929C629.961,219.152,627.518,220.07,624.406,220.07z M628.327,211.48
			c0.995,0,1.929-0.28,2.802-0.841c0.87-0.56,1.648-1.197,2.334-1.914c0.684-0.715,1.15-1.291,1.4-1.728v-15.313
			c-1.557,0.873-3.02,1.743-4.389,2.614c-1.37,0.873-2.567,1.79-3.595,2.755c-1.027,0.966-1.837,2.054-2.428,3.268
			c-0.592,1.214-0.887,2.6-0.887,4.155c0,2.18,0.404,3.891,1.214,5.135C625.588,210.858,626.771,211.48,628.327,211.48z"/>
		<path fill="#316EED" d="M666.982,220.07c-4.545,0-7.937-1.665-10.178-4.995c-2.24-3.329-3.361-8.979-3.361-16.947v-10.457
			c0-4.108,0.342-7.92,1.027-11.438c0.685-3.517,1.976-6.333,3.875-8.45c1.897-2.116,4.683-3.175,8.356-3.175
			c1.805,0,3.455,0.406,4.948,1.214c1.494,0.81,2.832,1.806,4.016,2.988v-25.117h9.99v75.63h-9.99v-3.455
			c-1.184,1.246-2.475,2.257-3.875,3.035C670.391,219.68,668.787,220.07,666.982,220.07z M669.503,212.227
			c0.934,0,1.929-0.171,2.988-0.514c1.058-0.342,2.115-0.855,3.175-1.541v-35.387c-0.873-0.622-1.837-1.167-2.895-1.634
			c-1.06-0.467-2.211-0.7-3.455-0.7c-2.304,0-3.86,1.105-4.668,3.315c-0.811,2.21-1.214,4.871-1.214,7.982v15.22
			c0,2.49,0.14,4.747,0.42,6.77c0.28,2.023,0.854,3.61,1.728,4.762C666.453,211.652,667.76,212.227,669.503,212.227z"/>
		<path fill="#316EED" d="M705.45,220.07c-2.117,0-3.984-0.607-5.603-1.821c-1.619-1.213-2.895-2.769-3.828-4.668
			c-0.934-1.898-1.4-3.905-1.4-6.022c0-3.361,0.56-6.193,1.681-8.497c1.12-2.302,2.661-4.248,4.621-5.835
			c1.961-1.588,4.232-2.972,6.816-4.155c2.582-1.182,5.306-2.334,8.17-3.455v-3.828c0-2.178-0.126-3.982-0.374-5.415
			c-0.249-1.431-0.763-2.505-1.54-3.221c-0.779-0.715-1.946-1.074-3.501-1.074c-1.37,0-2.475,0.312-3.315,0.934
			c-0.84,0.623-1.447,1.51-1.82,2.661c-0.374,1.152-0.561,2.506-0.561,4.062v2.708l-9.897-0.374
			c0.124-5.976,1.494-10.378,4.108-13.211c2.614-2.832,6.66-4.249,12.139-4.249c5.353,0,9.15,1.463,11.391,4.388
			c2.241,2.927,3.361,7.159,3.361,12.699v24.649c0,1.681,0.047,3.3,0.141,4.855c0.093,1.557,0.217,3.004,0.373,4.342
			c0.155,1.339,0.295,2.6,0.42,3.781h-9.149c-0.188-0.995-0.421-2.256-0.701-3.781c-0.279-1.524-0.482-2.909-0.606-4.155
			c-0.623,2.117-1.82,4.094-3.595,5.929C711.005,219.152,708.562,220.07,705.45,220.07z M709.371,211.48
			c0.995,0,1.929-0.28,2.802-0.841c0.87-0.56,1.648-1.197,2.334-1.914c0.684-0.715,1.15-1.291,1.4-1.728v-15.313
			c-1.557,0.873-3.02,1.743-4.389,2.614c-1.37,0.873-2.567,1.79-3.595,2.755c-1.027,0.966-1.837,2.054-2.428,3.268
			c-0.592,1.214-0.887,2.6-0.887,4.155c0,2.18,0.404,3.891,1.214,5.135C706.632,210.858,707.814,211.48,709.371,211.48z"/>
		<path fill="#316EED" d="M757.734,219.323v-75.63h29.226v7.563h-18.674v25.209h14.472v7.47h-14.472v35.388H757.734z"/>
		<path fill="#316EED" d="M808.247,220.07c-3.984,0-7.128-0.809-9.431-2.428c-2.303-1.618-3.938-3.922-4.901-6.909
			c-0.966-2.988-1.447-6.504-1.447-10.551v-15.687c0-4.046,0.481-7.563,1.447-10.551c0.964-2.988,2.599-5.29,4.901-6.909
			c2.303-1.618,5.446-2.428,9.431-2.428c3.983,0,7.11,0.81,9.384,2.428c2.271,1.619,3.89,3.921,4.855,6.909
			c0.964,2.987,1.447,6.505,1.447,10.551v15.687c0,4.047-0.483,7.563-1.447,10.551c-0.966,2.987-2.584,5.291-4.855,6.909
			C815.357,219.261,812.23,220.07,808.247,220.07z M808.247,212.694c1.929,0,3.282-0.561,4.062-1.681
			c0.777-1.121,1.245-2.599,1.4-4.436c0.155-1.835,0.233-3.749,0.233-5.742v-16.9c0-2.054-0.078-3.982-0.233-5.788
			c-0.155-1.805-0.623-3.283-1.4-4.436c-0.779-1.151-2.133-1.727-4.062-1.727c-1.93,0-3.3,0.576-4.108,1.727
			c-0.81,1.152-1.292,2.631-1.447,4.436c-0.156,1.806-0.233,3.734-0.233,5.788v16.9c0,1.993,0.077,3.907,0.233,5.742
			c0.155,1.837,0.638,3.314,1.447,4.436C804.947,212.134,806.317,212.694,808.247,212.694z"/>
		<path fill="#316EED" d="M840.833,220.07c-2.117,0-3.768-0.561-4.949-1.681c-1.183-1.12-2.007-2.521-2.474-4.202
			s-0.7-3.392-0.7-5.135v-43.697h9.99v40.709c0,1.931,0.28,3.44,0.84,4.528c0.561,1.09,1.712,1.635,3.455,1.635
			c1.12,0,2.287-0.327,3.501-0.98c1.214-0.654,2.381-1.447,3.502-2.381v-43.511h9.99v53.968h-9.99v-5.322
			c-1.743,1.681-3.721,3.113-5.929,4.295C845.858,219.477,843.447,220.07,840.833,220.07z"/>
		<path fill="#316EED" d="M874.164,219.323v-53.968h9.99v5.322c1.805-1.681,3.797-3.112,5.976-4.295
			c2.179-1.182,4.575-1.774,7.189-1.774c2.179,0,3.843,0.56,4.996,1.681c1.15,1.121,1.961,2.521,2.428,4.202s0.7,3.394,0.7,5.135
			v43.697h-9.991V178.52c0-1.929-0.28-3.422-0.84-4.482c-0.561-1.058-1.713-1.587-3.455-1.587c-1.12,0-2.287,0.327-3.501,0.98
			c-1.214,0.654-2.381,1.447-3.502,2.382v43.51H874.164z"/>
		<path fill="#316EED" d="M927.665,220.07c-4.545,0-7.937-1.665-10.178-4.995c-2.24-3.329-3.361-8.979-3.361-16.947v-10.457
			c0-4.108,0.342-7.92,1.027-11.438c0.685-3.517,1.976-6.333,3.875-8.45c1.897-2.116,4.683-3.175,8.356-3.175
			c1.805,0,3.455,0.406,4.948,1.214c1.494,0.81,2.832,1.806,4.016,2.988v-25.117h9.99v75.63h-9.99v-3.455
			c-1.184,1.246-2.475,2.257-3.875,3.035C931.073,219.68,929.47,220.07,927.665,220.07z M930.186,212.227
			c0.934,0,1.929-0.171,2.988-0.514c1.058-0.342,2.115-0.855,3.175-1.541v-35.387c-0.873-0.622-1.837-1.167-2.895-1.634
			c-1.06-0.467-2.211-0.7-3.455-0.7c-2.304,0-3.86,1.105-4.668,3.315c-0.811,2.21-1.214,4.871-1.214,7.982v15.22
			c0,2.49,0.14,4.747,0.42,6.77c0.28,2.023,0.854,3.61,1.728,4.762C927.136,211.652,928.442,212.227,930.186,212.227z"/>
		<path fill="#316EED" d="M966.133,220.07c-2.117,0-3.984-0.607-5.603-1.821c-1.619-1.213-2.895-2.769-3.828-4.668
			c-0.934-1.898-1.4-3.905-1.4-6.022c0-3.361,0.56-6.193,1.681-8.497c1.12-2.302,2.661-4.248,4.621-5.835
			c1.961-1.588,4.232-2.972,6.816-4.155c2.582-1.182,5.306-2.334,8.17-3.455v-3.828c0-2.178-0.126-3.982-0.374-5.415
			c-0.249-1.431-0.763-2.505-1.54-3.221c-0.779-0.715-1.946-1.074-3.501-1.074c-1.37,0-2.475,0.312-3.315,0.934
			c-0.84,0.623-1.447,1.51-1.82,2.661c-0.374,1.152-0.561,2.506-0.561,4.062v2.708l-9.897-0.374
			c0.124-5.976,1.494-10.378,4.108-13.211c2.614-2.832,6.66-4.249,12.139-4.249c5.353,0,9.15,1.463,11.391,4.388
			c2.241,2.927,3.361,7.159,3.361,12.699v24.649c0,1.681,0.047,3.3,0.141,4.855c0.093,1.557,0.217,3.004,0.373,4.342
			c0.155,1.339,0.295,2.6,0.42,3.781h-9.149c-0.188-0.995-0.421-2.256-0.701-3.781c-0.279-1.524-0.482-2.909-0.606-4.155
			c-0.623,2.117-1.82,4.094-3.595,5.929C971.688,219.152,969.244,220.07,966.133,220.07z M970.054,211.48
			c0.995,0,1.929-0.28,2.802-0.841c0.87-0.56,1.648-1.197,2.334-1.914c0.684-0.715,1.15-1.291,1.4-1.728v-15.313
			c-1.557,0.873-3.02,1.743-4.389,2.614c-1.37,0.873-2.567,1.79-3.595,2.755c-1.027,0.966-1.837,2.054-2.428,3.268
			c-0.592,1.214-0.887,2.6-0.887,4.155c0,2.18,0.404,3.891,1.214,5.135C967.314,210.858,968.497,211.48,970.054,211.48z"/>
		<path fill="#316EED" d="M1009.829,220.07c-2.801,0-5.058-0.529-6.77-1.587c-1.713-1.059-2.957-2.552-3.734-4.482
			c-0.779-1.929-1.167-4.201-1.167-6.815v-35.201h-5.696v-6.629h5.696v-15.78h9.99v15.78h8.684v6.629h-8.684v34.546
			c0,2.117,0.342,3.627,1.027,4.528c0.684,0.903,1.991,1.354,3.921,1.354c0.498,0,1.074-0.031,1.728-0.094
			c0.654-0.062,1.291-0.124,1.914-0.187v7.376c-1.246,0.187-2.396,0.327-3.454,0.42
			C1012.225,220.023,1011.073,220.07,1009.829,220.07z"/>
		<path fill="#316EED" d="M1024.861,157.325v-10.458h9.991v10.458H1024.861z M1024.861,219.323v-53.968h9.991v53.968H1024.861z"/>
		<path fill="#316EED" d="M1060.435,220.07c-3.984,0-7.128-0.809-9.431-2.428c-2.303-1.618-3.938-3.922-4.901-6.909
			c-0.966-2.988-1.447-6.504-1.447-10.551v-15.687c0-4.046,0.481-7.563,1.447-10.551c0.964-2.988,2.599-5.29,4.901-6.909
			c2.303-1.618,5.446-2.428,9.431-2.428c3.983,0,7.11,0.81,9.384,2.428c2.271,1.619,3.89,3.921,4.855,6.909
			c0.964,2.987,1.447,6.505,1.447,10.551v15.687c0,4.047-0.483,7.563-1.447,10.551c-0.966,2.987-2.584,5.291-4.855,6.909
			C1067.545,219.261,1064.418,220.07,1060.435,220.07z M1060.435,212.694c1.929,0,3.282-0.561,4.062-1.681
			c0.777-1.121,1.245-2.599,1.4-4.436c0.155-1.835,0.233-3.749,0.233-5.742v-16.9c0-2.054-0.078-3.982-0.233-5.788
			c-0.155-1.805-0.623-3.283-1.4-4.436c-0.779-1.151-2.133-1.727-4.062-1.727c-1.93,0-3.3,0.576-4.108,1.727
			c-0.81,1.152-1.292,2.631-1.447,4.436c-0.156,1.806-0.233,3.734-0.233,5.788v16.9c0,1.993,0.077,3.907,0.233,5.742
			c0.155,1.837,0.638,3.314,1.447,4.436C1057.135,212.134,1058.505,212.694,1060.435,212.694z"/>
		<path fill="#316EED" d="M1085.27,219.323v-53.968h9.99v5.322c1.805-1.681,3.797-3.112,5.976-4.295
			c2.179-1.182,4.575-1.774,7.189-1.774c2.179,0,3.843,0.56,4.996,1.681c1.15,1.121,1.961,2.521,2.428,4.202s0.7,3.394,0.7,5.135
			v43.697h-9.991V178.52c0-1.929-0.28-3.422-0.84-4.482c-0.561-1.058-1.713-1.587-3.455-1.587c-1.12,0-2.287,0.327-3.501,0.98
			c-1.214,0.654-2.381,1.447-3.502,2.382v43.51H1085.27z"/>
	</g>
</g>
<line fill="none" stroke="#31424D" stroke-width="5" stroke-miterlimit="10" x1="1120.044" y1="241.323" x2="370.963" y2="241.323"/>
</svg>
