<svg id="Capa_1" data-name="Capa 1" xmlns="http://www.w3.org/2000/svg" viewBox="0 0 258.14 259"><defs><style>.cls-1{fill:#316eed;}.cls-2{fill:#fff;}</style></defs><title>logo_circle_full</title><circle class="cls-1" cx="129.07" cy="129.5" r="125.79"/><circle class="cls-2" cx="129.07" cy="129.5" r="120.11"/><circle class="cls-1" cx="129.07" cy="129.5" r="115.32"/><g id="Capa_1-2" data-name="Capa 1"><path class="cls-2" d="M152.48,197.28c-3.11,0-6.22,0-9.34,0-1.34,0-2.55-.34-3-1.63-.66-1.75-2-1.86-3.49-1.86-4.89,0-4.56.46-4.56-4.57,0-1.45.07-2.9,0-4.34-.22-3.62,0-7,3-9.72,1.26-1.15,1.37-3,1.38-4.68,0-3.69,0-7.38,0-11.07a5.76,5.76,0,0,0-2.3-5.22c-3.46-2.65-3.29-3.52.09-6.36a13.23,13.23,0,0,1,3.54-2.05,6.16,6.16,0,0,0,3.82-6.19,2.65,2.65,0,0,0-1.89-2.64,8,8,0,0,1-4-2.5,6.89,6.89,0,0,0-6.23-2.33c-1.81.19-2.54-.59-2.88-2.35-.58-2.93-2.6-3.47-4.85-1.48A25.28,25.28,0,0,0,113.54,141c-.72,2.74-1.6,5.37-1.43,8.23.08,1.37-.59,2-2,2s-2.61.05-3.91,0c-9.38-.42-16.79,3.41-22.1,10.91A21.16,21.16,0,0,0,80,174.25c0,7,0,14,0,21.06,0,2.69-.16,2.91-2.82,2.83-6.25-.21-11.22-3-15.63-7.37-4.72-4.7-5.7-10.62-4.82-16.41a51.6,51.6,0,0,1,7.11-19.55c5.12-8.28,12.78-13.84,20-19.88,6.73-5.62,13.45-11.26,20.23-16.82,7.09-5.81,14.26-11.53,21.36-17.33,1.28-1,1.95-1.1,3.32.26,9,8.9,17.38,18.43,27.15,26.54,2.67,2.21,4.52,4.7,4.07,8.53a44.47,44.47,0,0,0,0,8.24,8.65,8.65,0,0,1-2.5,6.89,10.18,10.18,0,0,0-2.81,7.86c.15,8.54,0,17.08.06,25.63,0,4.05.45,4.5,4.41,4.67a5.5,5.5,0,0,1,5.12,6.4c-.21,1.42-1.15,1.47-2.21,1.48Z"/><path class="cls-2" d="M195.11,94.87c.7,4.39-5.23,9.79-10.71,10h-.22c-9.31.06-6.61-.89-13.57,6-3.08,3.05-6.6,5.64-9.41,9a1.61,1.61,0,0,1-2.61.2c-.65-.57-1.32-1.13-1.93-1.75L135.78,97.44c-3.21-3.21-3.11-3.08.38-5.92,4.09-3.32,7.76-7.18,12-10.25,3.7-2.68,5.57-6.54,8-10A8.72,8.72,0,0,1,159,68.78c1.83-1.08,3.07-.37,3.14,1.74,0,1.38,0,2.75,0,4.13,0,1.63.8,2.37,2.41,2.36,2.53,0,5.07.1,7.6,0a4.14,4.14,0,0,1,4.56,3.15c.7,2,1.47,4.08,2.12,6.15a3.74,3.74,0,0,0,3.69,2.82c3.58.14,6.86,1.68,10.43,2C195.05,91.23,195.2,93.16,195.11,94.87Z"/></g></svg>